<?xml version="1.0" encoding="utf-8"?>
<!-- Generator: Adobe Illustrator 17.0.1, SVG Export Plug-In . SVG Version: 6.00 Build 0)  -->
<!DOCTYPE svg PUBLIC "-//W3C//DTD SVG 1.0//EN" "http://www.w3.org/TR/2001/REC-SVG-20010904/DTD/svg10.dtd">
<svg version="1.0" id="Layer_1" xmlns="http://www.w3.org/2000/svg" xmlns:xlink="http://www.w3.org/1999/xlink" x="0px" y="0px"
	 width="854.1px" height="720px" viewBox="-26.51 0 854.1 720" enable-background="new -26.51 0 854.1 720" xml:space="preserve">
<g>
	<g id="svg_20_1_">
		<path fill="#040204" d="M694.66,511.94H531.4l-14.69-266.19l189.05-4.35C705.76,241.4,694.66,511.94,694.66,511.94z"/>
	</g>
	<g id="svg_21_1_">
		<path fill="#881726" d="M480.56,352.43c11.58,19.63,51.91,71.17,108.82-39.37l7.76,12.3c0,0-73.89,130.86-125.28,33.08
			C476.3,358.2,479.2,355.67,480.56,352.43z"/>
	</g>
	<g id="svg_22_1_">
		<path fill="#FFFFFF" d="M483.81,357.3l-3.15-7.61l-10.49,6.03l4.2,7.87L483.81,357.3z"/>
	</g>
	<g id="svg_23_1_">
		<path fill="#E8BF9B" d="M480.94,351.13c-0.98,3.25-4.5,5.3-7.81,4.55l-2.49-0.56c-3.31-0.75-8.11,0.48-10.65,2.73l-6.7,5.93
			c-2.55,2.25-6.58,2.11-8.97-0.31l-0.81-0.82c-2.39-2.42-2.03-5.95,0.78-7.86l8.55-5.78c2.81-1.9,2.44-4.19-0.84-5.09l-18.92-5.19
			c-3.28-0.9-5.34-4.34-4.58-7.66l0.4-1.75c0.76-3.31,4.03-5.18,7.26-4.16l18.73,5.92c3.24,1.02,3.92-0.1,1.52-2.5l-9.78-9.75
			c-2.41-2.4-2.82-6.37-0.92-8.83c1.9-2.46,5.48-2.57,7.96-0.24l16.85,15.83c2.48,2.33,4.91,1.48,5.42-1.88l0.47-3.09
			c0.5-3.36,3.67-5.73,7.04-5.26l1.87,0.26c3.37,0.47,5.31,3.51,4.33,6.76L480.94,351.13z M588.08,468.37l2.02,165.23h-6.83
			l-1.2-165.23H588.08z M646.78,464.53l1.98,162.63h-6.83l-1.2-160.82L646.78,464.53z"/>
	</g>
	<g id="svg_24_1_">
		<path fill="#6D6E70" d="M581.51,458.89l-1.09,16.34l69.17-7.61l-0.82-14.76l-33.6,3.15C615.16,456.01,581.51,458.89,581.51,458.89
			z"/>
	</g>
	<g id="svg_25_1_">
		<path fill="#BE1E2D" d="M572.45,459.18l-5.23-180.48l88.39,12.06l-0.33,163.76L572.45,459.18z"/>
	</g>
	<g id="svg_26_1_">
		<path fill="#881726" d="M582.06,325.38l6.02,141.48h-24.07l4.56-141.48H582.06z M661.62,305.34l6.02,153.84h-24.07l4.56-153.84
			H661.62z"/>
	</g>
	<g id="svg_27_1_" opacity="0.15" enable-background="new    ">
		<path fill="#231F20" d="M642.68,704.47c-66.2,0-119.86,1.53-119.86,3.42c0,1.89,53.67,3.42,119.86,3.42
			c66.2,0,119.87-1.53,119.87-3.42C762.55,706,708.87,704.47,642.68,704.47z"/>
	</g>
	<g id="svg_28_1_">
		<path fill="#070507" d="M585.77,700.37c0,0-4.72,8.07-16.75,8.45l-0.25,2.46c0,0,15.44,0.75,19.85-6.79l-0.12,5.65l5.1-0.68
			l-1.93-10.16L585.77,700.37z M649.93,698.26c0,0,5.23,7.76,17.27,7.4l0.41,2.44c0,0-15.38,1.7-20.26-5.54l0.49,5.63l-5.15-0.39
			l1.29-10.23L649.93,698.26z M591.67,699.31l4-168.33l-18.45,1.47l8.11,170.81L591.67,699.31z M650.13,699.31l3.99-168.33
			l-18.44,1.47l8.12,170.81L650.13,699.31z"/>
	</g>
	<g id="svg_29_1_">
		<path fill="#040204" d="M711.88,172.57c0,57.14-45.89,103.46-102.49,103.46c-56.61,0-102.49-46.32-102.49-103.46
			c0-57.14,45.89-103.46,102.49-103.46C665.99,69.11,711.88,115.43,711.88,172.57z"/>
	</g>
	<g id="svg_30_1_">
		<path fill="#E8BF9B" d="M522.59,194.39c0,0-55.22,49.87,23.38,122.1c78.6,72.23,138.36-44.75,138.36-44.75l20.14-54.34
			c0,0-14.94-114.43-107.83-113.15C503.75,105.53,512.84,169.46,522.59,194.39z M691.69,214.84c0,0,14.33-24.6,35.02-6.25
			c25.79,22.89-20.95,37.6-20.95,37.6s-14.8,4.86-9.59,20.59c5.22,15.72,5.18,21.47-0.36,23.35c-5.55,1.87-16.81-3.38-17.16-12.77
			C677.16,236.84,691.69,214.84,691.69,214.84z"/>
	</g>
	<g id="svg_31_1_">
		<g id="svg_32_1_">
			<path fill="#D09E78" d="M689.27,242.6c0,0,23.57-50.21,22.58-10.12C711.85,232.48,708.09,210.03,689.27,242.6z M689.11,242.73
				c0,0,16.32-24.8,9.36,7.6C698.48,250.33,700.85,229.46,689.11,242.73z"/>
		</g>
	</g>
	<g id="svg_33_1_">
		<path fill="#E8BF9B" d="M584.92,333.17c0,0,0.86,30.89,22.07,30.89c21.21,0,33.76-48.35,33.76-48.35S584.92,333.17,584.92,333.17z
			"/>
	</g>
	<g id="svg_34_1_">
		<path fill="#D09E78" d="M585.27,338.58c0,0,24.09,7.75,52.24-13.19l-1.62,5.45C635.89,330.83,611.79,350.3,585.27,338.58z
			 M679.28,280.86c0,0-2.14-5.48-1.71-8.85c0,0-1.93,7.16,0.43,10.75L679.28,280.86z"/>
	</g>
	<g id="svg_35_1_">
		<path fill="#040204" d="M556.72,110.39c0,0,29.17,64.54,58.29,93.42c0,0-63.65-46.42-64.03-91.52L556.72,110.39z"/>
	</g>
	<g id="svg_36_1_" opacity="0.4" enable-background="new    ">
		<path fill="#C69677" d="M590.71,212.92c0,0,47.43,42.4,59.7-15.41L590.71,212.92z"/>
	</g>
	<g id="svg_37_1_">
		<path fill="#FFFFFF" d="M644.61,199.88c0,0-12.68,34.24-53.79,14.37c0,0,23.51-23.79,53.94-14.76"/>
	</g>
	<g id="svg_38_1_">
		<path fill="#8A5D3B" d="M642.28,198.16c-9.29,1.37-19.14,1.29-28.61,1.54l-0.07,0.61c-0.43,8.18,5.97,15.14,14.27,15.56
			c8.31,0.42,15.39-5.87,15.81-14.04c0.07-1.36-0.05-2.68-0.34-3.94C643.01,198.01,642.66,198.1,642.28,198.16z"/>
	</g>
	<g id="svg_39_1_">
		<path fill="#211F1F" d="M621.38,199.53c-0.09,0.4-0.16,0.81-0.18,1.23c-0.21,4.01,2.92,7.42,6.99,7.63
			c4.07,0.2,7.54-2.88,7.75-6.88c0.05-0.91-0.09-1.79-0.36-2.61C630.89,199.29,626.12,199.43,621.38,199.53z"/>
	</g>
	<g id="svg_40_1_">
		<path fill="#FFFFFF" d="M620.14,205.81c-0.09,1.61,1.17,2.98,2.8,3.07c1.64,0.08,3.03-1.16,3.11-2.77
			c0.08-1.61-1.17-2.98-2.81-3.06C621.62,202.97,620.22,204.21,620.14,205.81z"/>
	</g>
	<g id="svg_41_1_">
		<path fill="#211F1F" d="M590.83,214.25c0.44-0.32-0.05-0.58,0.98-2.03c1.12-1.57,2.73-3.04,4.28-4.46
			c5.96-5.47,13.62-9.15,23.79-10.98c4.12-0.74,8.34-1.23,12.55-1.62c5.4-0.5,10.88-0.47,16.26-1.13c5.18-0.62,9.96-2.13,14.01-4.3
			c2.02-1.09,4.1-2.41,5.55-3.82c1.39-1.35,2.38-3,2.82-4.58c0,0,0.91,11.69-18.56,17.87c0,0,5.63,1.01,15.48-3.17
			c0,0-3.24,3.67-13.2,6.95c-2.93,0.97-6.01,2.05-7.95,3.79c-2.75,2.48-4.32,5.4-7.31,7.83c-2.64,2.16-6.06,3.98-10.09,5.01
			c-2.21,0.56-4.77,1-7.14,1.13c-1.81,0.09-3.64,0.11-5.45,0.04c-1.41-0.06-2.99-0.38-4.39-0.35c0,0,25.66-0.51,28.48-20.31
			C640.93,200.13,618.99,193.72,590.83,214.25z"/>
	</g>
	<g id="svg_42_1_" opacity="0.2" enable-background="new    ">
		<path d="M644.15,202.57c0,0-24.93-3.51-53.32,11.68l5.1-4.63l9.89-6.77l13.62-3.93l12.96-1.08c0,0,4.7-0.28,4.99-0.24
			c0.28,0.03,6.83,0.19,6.83,0.19S644.15,202.57,644.15,202.57z"/>
	</g>
	<g id="svg_43_1_" opacity="0.7" enable-background="new    ">
		<path fill="#C69677" d="M555.6,215.36c0,0,5.78-3.72-0.89-10.24c-6.67-6.53,0.02-0.48,0.02-0.48s-21.5-24.93-34.46-13.23
			l-3.93,6.32l0.86,5.44L555.6,215.36L555.6,215.36z"/>
	</g>
	<g id="svg_44_1_">
		<path fill="#FFFFFF" d="M522.65,208.42c0,0,11.41,25.5,33.48,4.83c0,0-16.63-15.94-33.62-5.12"/>
	</g>
	<g id="svg_45_1_">
		<path fill="#211F1F" d="M557.77,208.54c0,0-34.56-45.97-41.73-9.94C516.03,198.61,525.72,174.15,557.77,208.54z"/>
	</g>
	<g>
		<defs>
			<path id="SVGID_7_" d="M522.65,208.42c0,0,11.41,25.5,33.48,4.83c0,0-16.63-15.94-33.62-5.12"/>
		</defs>
		<clipPath id="SVGID_1_">
			<use xlink:href="#SVGID_7_"  overflow="visible"/>
		</clipPath>
		<g id="svg_47_1_" clip-path="url(#SVGID_1_)">
			<path fill="#8A5D3B" d="M549.31,203.95c4.16,0.42,7.17,4.18,6.72,8.4c-0.45,4.22-4.19,7.31-8.36,6.9
				c-4.16-0.42-7.17-4.18-6.72-8.4C541.4,206.62,545.14,203.53,549.31,203.95z"/>
		</g>
	</g>
	<g>
		<defs>
			<path id="SVGID_9_" d="M522.65,208.42c0,0,11.41,25.5,33.48,4.83c0,0-16.63-15.94-33.62-5.12"/>
		</defs>
		<clipPath id="SVGID_2_">
			<use xlink:href="#SVGID_9_"  overflow="visible"/>
		</clipPath>
		<g id="svg_48_1_" clip-path="url(#SVGID_2_)">
			<path fill="#211F1F" d="M548.93,207.82c2.04,0.2,3.51,2.05,3.3,4.11c-0.22,2.07-2.06,3.58-4.1,3.38
				c-2.04-0.2-3.52-2.05-3.29-4.12C545.05,209.12,546.88,207.61,548.93,207.82z"/>
		</g>
	</g>
	<g>
		<defs>
			<path id="SVGID_11_" d="M522.65,208.42c0,0,11.41,25.5,33.48,4.83c0,0-16.63-15.94-33.62-5.12"/>
		</defs>
		<clipPath id="SVGID_3_">
			<use xlink:href="#SVGID_11_"  overflow="visible"/>
		</clipPath>
		<g id="svg_49_1_" clip-path="url(#SVGID_3_)">
			<path fill="#FFFFFF" d="M544.86,210.62c0.82,0.08,1.41,0.82,1.32,1.65c-0.09,0.83-0.83,1.44-1.65,1.35
				c-0.82-0.08-1.41-0.82-1.32-1.65C543.3,211.14,544.04,210.53,544.86,210.62z"/>
		</g>
	</g>
	<g id="svg_50_1_">
		<path fill="#211F1F" d="M556.14,213.25c-0.3-0.2-0.56-1.17-0.81-1.48c-0.87-1.09-1.96-2.07-3.04-3.01
			c-4.16-3.6-9.11-5.58-15.34-5.79c-2.53-0.08-5.08,0.04-7.62,0.25c-3.25,0.26-6.5,0.94-9.75,1.08c-3.14,0.14-6.14-0.47-8.78-1.7
			c-1.32-0.61-2.7-1.4-3.72-2.34c-0.98-0.9-1.75-2.09-2.19-3.27c0,0,0.8,9.34,13.03,11.87c0,0-3.22,1.48-9.52-0.63
			c0,0,2.33,2.51,8.61,3.89c1.84,0.41,3.79,0.89,5.14,2.04c1.91,1.62,3.18,3.74,5.22,5.3c1.82,1.38,4.05,2.41,6.55,2.73
			c1.38,0.18,2.94,0.22,4.35,0.03c1.09-0.14,2.17-0.36,3.23-0.63c0.83-0.22,1.73-0.66,2.56-0.81c0,0-15.25,2.7-19.18-12.59
			C524.86,208.17,537.12,200.45,556.14,213.25z"/>
	</g>
	<g id="svg_51_1_" opacity="0.2" enable-background="new    ">
		<path d="M523.96,210.24c0,0,12.31-5.5,32.18,3.01l-7.3-4.69l-9.95-3.05l-9.48-0.47l-3.88,1.41L523.96,210.24z"/>
	</g>
	<g id="svg_52_1_">
		<path fill="#040204" d="M550.97,104.24c0,0,81.88,119.23,160.91,165.4c0,0,67.68-180.26-102.49-200.53"/>
	</g>
	<g id="svg_53_1_">
		<path fill="#D09E78" d="M550.97,243.26c0,0,19.55,51.28,48.41,0C599.38,243.26,573.64,275.2,550.97,243.26z"/>
	</g>
	<g id="svg_54_1_">
		<path fill="#040204" d="M558.62,104.24c0,0-19.05,81.04-45.85,102.91C512.76,207.15,510.02,96.36,558.62,104.24z M585.27,201.08
			c0,0,16.73-22.08,48.34-21.88l2.34,5.62C635.95,184.82,609.19,179.71,585.27,201.08z"/>
	</g>
	<g id="svg_55_1_">
		<path fill="#D09E78" d="M594.22,305.75c-2.22,0-3.55-0.11-3.61-0.12l0.17-1.74c0.22,0.05,24.1,2.11,41.31-12.22
			c10.17-8.47,16.03-20.94,17.45-37.09l1.74,0.15c-1.45,16.63-7.54,29.51-18.08,38.28C619.5,304.42,601.74,305.75,594.22,305.75z"/>
	</g>
	<g id="svg_56_1_">
		<path fill="#BE1E2D" d="M695.17,282.76c0-1.65-1.29-2.99-2.89-2.99c-1.6,0-2.89,1.34-2.89,2.99c0,1.65,1.29,2.99,2.89,2.99
			C693.88,285.74,695.17,284.41,695.17,282.76z"/>
	</g>
	<g id="svg_57_1_">
		<path fill="#D09E78" d="M639.68,252.69c0,0,17.17-20.41,21.45,3.41C661.14,256.11,655.73,239.31,639.68,252.69z"/>
	</g>
	<g id="svg_58_1_">
		<path fill="#881726" d="M766.04,366.37C754.46,386,714.13,437.54,657.22,327l-7.76,12.3c0,0,73.89,130.86,125.28,33.08
			C770.3,372.14,767.4,369.62,766.04,366.37z"/>
	</g>
	<g id="svg_59_1_">
		<path fill="#FFFFFF" d="M762.8,371.25l3.15-7.61l10.49,6.03l-4.2,7.87L762.8,371.25z"/>
	</g>
	<g id="svg_60_1_">
		<path fill="#E8BF9B" d="M765.66,365.07c0.98,3.25,4.5,5.3,7.81,4.55l2.49-0.56c3.31-0.75,8.11,0.48,10.65,2.73l6.7,5.93
			c2.54,2.25,6.58,2.11,8.96-0.31l0.81-0.82c2.39-2.42,2.03-5.96-0.78-7.86l-8.55-5.78c-2.81-1.9-2.44-4.19,0.84-5.09l18.92-5.19
			c3.28-0.9,5.34-4.34,4.58-7.66l-0.4-1.76c-0.76-3.31-4.03-5.18-7.26-4.16l-18.73,5.92c-3.24,1.02-3.92-0.1-1.52-2.5l9.78-9.75
			c2.41-2.4,2.82-6.37,0.92-8.83c-1.9-2.46-5.48-2.57-7.96-0.24l-16.85,15.83c-2.48,2.33-4.91,1.48-5.42-1.88l-0.47-3.09
			c-0.5-3.36-3.67-5.73-7.04-5.26l-1.88,0.26c-3.37,0.47-5.31,3.51-4.33,6.76L765.66,365.07z"/>
	</g>
</g>
<g>
	<path fill="#B52126" d="M341.72,383.55c0,0,33.51,49.14,31.28,48.39c-2.23-0.74-29.04,21.6-29.04,21.6l-14.16-25.32L341.72,383.55z
		"/>
	<polygon fill="#231F20" points="237.12,565.65 328.96,561.34 325.7,691.42 317.82,690.7 319.78,608.76 248.93,603.02 246.96,690.7 
		237.13,690.7 	"/>
	<path fill="#231F20" d="M324.13,692.23c0,0,6.78,10.78,23.18,10.78l0.44,3.36c0,0-20.99,1.67-27.33-8.4l0.42,7.68l-6.98-0.72
		l2.18-13.89L324.13,692.23z"/>
	<path fill="#231F20" d="M236.72,692.05c0,0-6.79,10.78-23.18,10.78l-0.44,3.36c0,0,20.99,1.68,27.33-8.39l-0.43,7.67l6.99-0.74
		l-2.18-13.87L236.72,692.05z"/>
	<polygon fill="#B52126" points="342.47,375.36 216.44,393.5 227.75,573.41 276.6,570.59 283.22,547.03 289.84,576.03 
		324.56,570.59 	"/>
	<polygon fill="#B52126" points="216.44,393.5 164.6,453.36 194.28,462.47 237.24,442.08 	"/>
	<g>
		<g>
			<g>
				
					<rect x="-9.45" y="417.92" transform="matrix(0.9902 -0.14 0.14 0.9902 -68.3072 47.0694)" fill="#FFFFFF" width="619.74" height="182.28"/>
			</g>
		</g>
		<g>
			<polygon fill="#FFFFFF" points="602.88,542.61 20.92,626.41 -0.67,476.48 581.3,392.68 			"/>
			<g>
				<path fill="#B52126" d="M90.12,476.96l3.12,23.92l-19.16,2.5l-1.26-9.63l-16.34,2.14l2.46,18.83l20.57-2.69l1.88,14.4
					l-20.57,2.69l1.8,13.75l11.04-1.44l1.88,14.4l-40.27,5.26l-1.88-14.4l6.71-0.88l-6.14-46.98l-6.71,0.88l-1.87-14.29
					L90.12,476.96z"/>
				<path fill="#B52126" d="M104.34,552.05l-1.85-14.18l4.76-0.62l-3.38-25.87l-4.65,0.61l-1.84-14.07l20.35-2.66l4.15,6.5
					c2.14-5.56,4.37-10.37,15.52-11.83l2.54,19.48c-9.74,1.27-14.94,4.48-13.69,14.01l1.46,11.15l5.41-0.71l1.85,14.18
					L104.34,552.05z"/>
				<path fill="#B52126" d="M144.07,519.12c-2.25-18.09,11.04-30.07,25.98-32.02c17.13-2.02,31.14,6.61,33.83,24.64
					c2.56,17.94-9.41,29.96-25.86,32.11C162.54,545.88,146.35,538.31,144.07,519.12z M181.68,514.65c-1.06-8.12-4.7-14.03-9.8-13.47
					c-4.22,0.55-6.65,7.25-5.62,15.16c1.16,8.88,5.39,14.27,9.93,13.67C180.86,529.4,182.75,522.76,181.68,514.65z"/>
				<path fill="#B52126" d="M211.28,538.08l-1.85-14.18l4.55-0.59l-3.38-25.87l-4.55,0.59l-1.84-14.07l23.06-3.01l3.37,6.39
					c3.02-5.57,7.53-9.79,14.35-10.68c16.78-2.19,21.22,9.89,22.7,21.25l2.36,18.08l5.09-0.67l1.85,14.18l-27.28,3.56l-3.86-29.55
					c-0.48-3.68-0.99-10.11-7.38-9.27c-5.52,0.72-6.11,6.3-5.5,10.96l2.01,15.37l7.79-1.02l1.85,14.18L211.28,538.08z"/>
				<path fill="#B52126" d="M279,474.19l-1.3-9.96l19.08-8.99l2.14,16.35l10.28-1.34l1.84,14.07l-10.28,1.34l2.52,19.27
					c0.48,3.68,0.37,8.76,4.6,8.21c1.41-0.18,4.64-1.6,6.58-2.73l1.81,13.86c-3.08,1.72-10.34,3.44-12.83,3.77
					c-16.24,2.12-17.94-6.68-20.07-20.5l-2.52-19.27l-5.85,0.76l-1.84-14.08L279,474.19z"/>
				<path fill="#B52126" d="M350.06,486.37l1.88,14.4l-31.39,4.1l-1.88-14.4L350.06,486.37z"/>
				<path fill="#B52126" d="M417.77,434.15l3.13,23.92l-18.73,2.45l-1.26-9.63l-17.32,2.26l1.95,14.94l20.57-2.69l1.88,14.4
					l-20.57,2.69l2.3,17.64l17.32-2.26l-1.31-10.07l18.73-2.45l3.2,24.46l-65.27,8.53l-1.88-14.4l6.82-0.89l-6.14-46.98l-6.82,0.89
					l-1.87-14.29L417.77,434.15z"/>
				<path fill="#B52126" d="M433.07,509.1l-1.85-14.18l4.55-0.59l-3.38-25.87l-4.55,0.59L426,454.98l23.06-3.01l3.37,6.39
					c3.02-5.57,7.53-9.79,14.35-10.68c16.78-2.19,21.22,9.89,22.7,21.25l2.36,18.08l5.09-0.67l1.85,14.18l-27.28,3.56l-3.86-29.55
					c-0.48-3.68-0.99-10.11-7.38-9.27c-5.52,0.72-6.11,6.3-5.5,10.96l2.01,15.37l7.79-1.02l1.85,14.18L433.07,509.1z"/>
				<path fill="#B52126" d="M526.48,428.65l-1.84-14.07l26.95-3.52l8.77,67.11l5.2-0.68l1.84,14.07l-25.33,3.31l-2.36-3.76
					c-1.24,1.48-5.52,5.78-12.99,6.76c-15.26,1.99-26.88-10.25-28.84-25.29c-2.21-16.89,8.19-29.14,21.51-30.88
					c7.69-1,11.95,1.3,14.18,2.33l-2.09-16.02L526.48,428.65z M530.67,481.82c4.22-0.55,7.43-6.36,5.88-14.86
					c-0.96-7.36-5.38-12.51-9.49-11.97c-4.55,0.6-6.99,6.31-5.92,14.54C521.99,476.02,525.91,482.44,530.67,481.82z"/>
			</g>
			<g>
				<path fill="#B5B5B6" d="M50.46,572.45c0.6,0.28,1.31,0.8,2.13,1.58l-1.24-9.43l3.01-0.4l3.37,25.69l-2.82,0.37l-0.34-2.6
					c-0.58,1.25-1.33,2.19-2.26,2.83s-2.04,1.05-3.32,1.22c-2.07,0.27-3.98-0.37-5.73-1.92s-2.81-3.78-3.19-6.68
					c-0.36-2.72,0.03-5.17,1.15-7.34s2.97-3.43,5.54-3.77C48.19,571.83,49.42,571.97,50.46,572.45z M45.29,587.36
					c1.02,1.24,2.46,1.73,4.32,1.49c1.45-0.19,2.55-0.97,3.32-2.34c0.77-1.37,1-3.22,0.69-5.56c-0.31-2.36-1.02-4.04-2.13-5.05
					s-2.37-1.42-3.78-1.23c-1.57,0.21-2.77,0.98-3.59,2.31c-0.82,1.34-1.07,3.18-0.77,5.52C43.63,584.51,44.27,586.13,45.29,587.36z
					"/>
				<path fill="#B5B5B6" d="M86.71,567.64c1.32,0.46,2.36,1.14,3.14,2.04c0.75,0.86,1.31,1.9,1.68,3.13c0.3,0.84,0.57,2.2,0.82,4.08
					l-13.58,1.78c0.31,1.89,0.95,3.36,1.93,4.4c0.98,1.04,2.34,1.44,4.08,1.22c1.62-0.21,2.85-0.93,3.68-2.14
					c0.46-0.7,0.75-1.48,0.87-2.34l3.09-0.4c0.01,0.7-0.16,1.49-0.51,2.4c-0.35,0.9-0.77,1.66-1.26,2.27
					c-0.82,1.05-1.91,1.83-3.26,2.34c-0.73,0.28-1.56,0.49-2.51,0.61c-2.31,0.3-4.38-0.28-6.2-1.77s-2.94-3.74-3.34-6.79
					c-0.39-3,0.1-5.54,1.47-7.62s3.36-3.29,5.97-3.64C84.07,567.03,85.39,567.18,86.71,567.64z M88.79,574.82
					c-0.3-1.34-0.74-2.39-1.31-3.14c-1.05-1.4-2.57-1.97-4.57-1.71c-1.43,0.19-2.56,0.86-3.39,2.03c-0.83,1.17-1.17,2.56-1.02,4.17
					L88.79,574.82z"/>
				<path fill="#B5B5B6" d="M113.64,576.61c0.23,1.03,0.6,1.8,1.12,2.3c0.94,0.91,2.4,1.23,4.4,0.97c1.19-0.16,2.2-0.54,3.03-1.17
					c0.84-0.62,1.18-1.46,1.04-2.52c-0.1-0.8-0.54-1.36-1.32-1.69c-0.49-0.2-1.44-0.37-2.84-0.53l-2.62-0.29
					c-1.67-0.18-2.92-0.47-3.75-0.85c-1.48-0.67-2.32-1.75-2.52-3.25c-0.23-1.77,0.23-3.28,1.37-4.54c1.15-1.26,2.81-2.03,4.99-2.32
					c2.85-0.37,5.01,0.18,6.49,1.67c0.93,0.94,1.46,2.02,1.59,3.23l-2.96,0.39c-0.15-0.7-0.49-1.3-1.02-1.82
					c-0.85-0.72-2.18-0.97-4-0.73c-1.21,0.16-2.1,0.51-2.67,1.04c-0.56,0.53-0.8,1.17-0.7,1.91c0.1,0.81,0.6,1.4,1.49,1.78
					c0.51,0.23,1.24,0.39,2.2,0.49l2.18,0.23c2.37,0.24,3.98,0.57,4.82,0.98c1.32,0.64,2.1,1.82,2.33,3.54
					c0.22,1.66-0.23,3.18-1.35,4.56c-1.12,1.38-2.98,2.23-5.6,2.58c-2.81,0.37-4.88,0-6.22-1.11s-2.17-2.59-2.49-4.43L113.64,576.61
					z"/>
				<path fill="#B5B5B6" d="M142.17,552.79l3.19-0.42l0.47,3.56l-3.19,0.42L142.17,552.79z M143.09,559.81l3.19-0.42l2.44,18.58
					l-3.19,0.42L143.09,559.81z"/>
				<path fill="#B5B5B6" d="M176.62,556.09c0.64,0.33,1.32,0.84,2.04,1.54l-0.31-2.35l2.89-0.38l2.23,16.98
					c0.31,2.37,0.21,4.29-0.31,5.75c-0.96,2.7-3.25,4.29-6.85,4.76c-2,0.26-3.75,0.03-5.23-0.69c-1.48-0.72-2.43-2.03-2.85-3.93
					l3.19-0.42c0.26,0.82,0.65,1.42,1.15,1.82c0.8,0.6,1.95,0.81,3.46,0.61c2.39-0.31,3.85-1.37,4.36-3.16
					c0.31-1.06,0.28-2.87-0.1-5.43c-0.5,1.03-1.16,1.84-1.98,2.42s-1.95,0.97-3.4,1.15c-2.01,0.27-3.87-0.22-5.57-1.46
					c-1.7-1.24-2.76-3.51-3.2-6.82c-0.41-3.13,0.03-5.67,1.32-7.62c1.29-1.95,3.01-3.07,5.17-3.35
					C174.12,555.32,175.44,555.51,176.62,556.09z M177.45,559.4c-1.1-0.99-2.38-1.39-3.84-1.2c-2.2,0.29-3.56,1.52-4.1,3.69
					c-0.28,1.16-0.31,2.64-0.07,4.42c0.28,2.1,0.91,3.65,1.9,4.64c0.99,0.99,2.21,1.39,3.64,1.2c2.24-0.29,3.69-1.52,4.33-3.67
					c0.36-1.22,0.44-2.59,0.23-4.13C179.24,562.04,178.54,560.39,177.45,559.4z"/>
				<path fill="#B5B5B6" d="M201.13,552.11l2.98-0.39l0.35,2.65c0.74-1.21,1.57-2.12,2.5-2.72c0.92-0.6,1.99-0.99,3.2-1.15
					c2.65-0.35,4.56,0.34,5.73,2.07c0.64,0.94,1.09,2.36,1.34,4.24l1.57,11.97l-3.19,0.42l-1.54-11.76
					c-0.15-1.14-0.44-2.03-0.87-2.69c-0.71-1.09-1.8-1.54-3.26-1.35c-0.74,0.1-1.34,0.25-1.8,0.47c-0.83,0.37-1.52,0.98-2.07,1.83
					c-0.44,0.68-0.7,1.37-0.77,2.04c-0.07,0.68-0.02,1.62,0.13,2.85l1.28,9.78l-3.14,0.41L201.13,552.11z"/>
				<path fill="#B5B5B6" d="M273.63,543.62c1.45,0.85,2.48,2.51,3.07,4.97l-3.05,0.4c-0.34-1.13-0.89-2.03-1.65-2.7
					c-0.76-0.67-1.88-0.91-3.34-0.72c-2,0.26-3.3,1.43-3.9,3.49c-0.39,1.34-0.47,2.94-0.22,4.79c0.24,1.87,0.85,3.39,1.8,4.56
					c0.96,1.17,2.28,1.65,3.98,1.42c1.3-0.17,2.28-0.7,2.94-1.59s1.04-2.05,1.15-3.46l3.05-0.4c-0.02,2.52-0.66,4.45-1.9,5.77
					c-1.24,1.33-2.95,2.13-5.13,2.42c-2.44,0.32-4.5-0.32-6.19-1.91c-1.69-1.59-2.7-3.73-3.05-6.4c-0.43-3.28,0.03-5.93,1.39-7.97
					s3.26-3.21,5.73-3.53C270.4,542.48,272.18,542.77,273.63,543.62z"/>
				<path fill="#B5B5B6" d="M307.92,540.01c1.86,1.39,2.99,3.63,3.4,6.74c0.39,3.01-0.01,5.59-1.2,7.74
					c-1.2,2.15-3.32,3.43-6.38,3.83c-2.55,0.34-4.69-0.27-6.42-1.81s-2.78-3.77-3.17-6.7c-0.41-3.14,0.05-5.73,1.39-7.8
					c1.34-2.06,3.34-3.27,6-3.62C303.94,538.09,306.06,538.62,307.92,540.01z M307.6,552.67c0.56-1.67,0.71-3.47,0.46-5.4
					c-0.23-1.74-0.69-3.12-1.39-4.14c-1.1-1.6-2.72-2.27-4.85-1.98c-1.9,0.25-3.18,1.16-3.85,2.73c-0.67,1.58-0.87,3.4-0.6,5.46
					c0.26,1.98,0.91,3.58,1.94,4.79c1.04,1.21,2.49,1.69,4.36,1.45C305.73,555.31,307.04,554.34,307.6,552.67z"/>
				<path fill="#B5B5B6" d="M329.14,535.33l2.98-0.39l0.35,2.65c0.74-1.21,1.57-2.11,2.5-2.72c0.93-0.6,1.99-0.99,3.2-1.15
					c2.65-0.35,4.56,0.34,5.73,2.07c0.64,0.94,1.09,2.36,1.34,4.24l1.57,11.97l-3.19,0.42l-1.54-11.76
					c-0.15-1.14-0.44-2.03-0.87-2.69c-0.71-1.09-1.8-1.54-3.26-1.34c-0.74,0.1-1.35,0.25-1.8,0.47c-0.83,0.37-1.52,0.98-2.06,1.83
					c-0.44,0.68-0.7,1.37-0.77,2.04c-0.07,0.68-0.03,1.63,0.13,2.85l1.28,9.78l-3.14,0.41L329.14,535.33z"/>
				<path fill="#B5B5B6" d="M364.84,524.85c0.59-1.16,1.93-1.88,4.02-2.16c0.2-0.03,0.4-0.05,0.61-0.06
					c0.21-0.02,0.45-0.03,0.72-0.04l0.37,2.86c-0.33,0.02-0.57,0.04-0.72,0.05s-0.29,0.03-0.42,0.04c-0.96,0.13-1.51,0.45-1.63,0.97
					c-0.12,0.52-0.05,1.79,0.21,3.81l3.14-0.41l0.32,2.48l-3.14,0.41l2.11,16.1l-3.1,0.41l-2.11-16.1l-2.6,0.34l-0.32-2.47l2.6-0.34
					l-0.38-2.93C364.41,526.49,364.51,525.51,364.84,524.85z"/>
				<path fill="#B5B5B6" d="M400.77,526.46c1.32,0.46,2.36,1.14,3.14,2.04c0.75,0.86,1.31,1.9,1.68,3.13
					c0.3,0.84,0.57,2.2,0.82,4.08l-13.58,1.78c0.31,1.89,0.95,3.36,1.93,4.4c0.98,1.04,2.34,1.44,4.08,1.22
					c1.63-0.21,2.85-0.93,3.68-2.14c0.46-0.7,0.75-1.48,0.86-2.34l3.08-0.4c0.01,0.7-0.16,1.49-0.51,2.4
					c-0.35,0.9-0.77,1.66-1.27,2.27c-0.82,1.05-1.91,1.83-3.27,2.34c-0.73,0.28-1.56,0.49-2.51,0.61c-2.31,0.3-4.38-0.29-6.2-1.77
					c-1.83-1.48-2.94-3.74-3.34-6.79c-0.39-3,0.1-5.54,1.47-7.62s3.36-3.29,5.97-3.64C398.14,525.86,399.45,526,400.77,526.46z
					 M402.86,533.64c-0.3-1.34-0.74-2.39-1.31-3.14c-1.05-1.4-2.57-1.97-4.57-1.71c-1.43,0.19-2.56,0.86-3.39,2.03
					c-0.83,1.17-1.17,2.56-1.02,4.17L402.86,533.64z"/>
				<path fill="#B5B5B6" d="M424.25,522.86l2.98-0.39l0.42,3.22c0.16-0.66,0.66-1.5,1.49-2.53c0.83-1.02,1.87-1.62,3.12-1.78
					c0.06-0.01,0.16-0.02,0.3-0.02c0.14-0.01,0.38-0.02,0.72-0.02l0.43,3.31c-0.19-0.01-0.36-0.01-0.52,0s-0.33,0.03-0.52,0.05
					c-1.58,0.21-2.73,0.87-3.44,2s-0.99,2.35-0.81,3.68l1.41,10.73l-3.14,0.41L424.25,522.86z"/>
				<path fill="#B5B5B6" d="M462.78,518.33c1.32,0.46,2.36,1.14,3.14,2.04c0.75,0.86,1.31,1.9,1.68,3.13
					c0.3,0.84,0.57,2.2,0.82,4.08l-13.58,1.78c0.31,1.89,0.95,3.36,1.93,4.4c0.98,1.04,2.34,1.44,4.08,1.22
					c1.62-0.21,2.85-0.93,3.68-2.14c0.46-0.7,0.75-1.48,0.87-2.34l3.09-0.4c0.01,0.7-0.16,1.49-0.51,2.4
					c-0.35,0.9-0.77,1.66-1.27,2.27c-0.82,1.05-1.91,1.83-3.27,2.34c-0.73,0.28-1.56,0.49-2.51,0.61c-2.31,0.3-4.38-0.29-6.2-1.77
					s-2.94-3.74-3.34-6.79c-0.39-3,0.1-5.54,1.47-7.62s3.36-3.29,5.97-3.64C460.15,517.73,461.46,517.87,462.78,518.33z
					 M464.86,525.51c-0.3-1.34-0.74-2.39-1.31-3.14c-1.05-1.4-2.57-1.97-4.57-1.71c-1.43,0.19-2.56,0.86-3.39,2.03
					c-0.83,1.17-1.17,2.56-1.02,4.17L464.86,525.51z"/>
				<path fill="#B5B5B6" d="M486.17,514.74l2.98-0.39l0.35,2.65c0.74-1.21,1.57-2.11,2.5-2.72c0.93-0.61,1.99-0.99,3.2-1.15
					c2.65-0.35,4.56,0.34,5.73,2.07c0.65,0.94,1.09,2.36,1.34,4.24l1.57,11.97l-3.19,0.42l-1.54-11.76
					c-0.15-1.14-0.44-2.03-0.87-2.69c-0.71-1.09-1.8-1.54-3.26-1.35c-0.74,0.1-1.34,0.25-1.8,0.47c-0.83,0.37-1.52,0.98-2.07,1.83
					c-0.44,0.68-0.7,1.37-0.77,2.04c-0.07,0.68-0.03,1.62,0.13,2.85l1.28,9.78l-3.14,0.41L486.17,514.74z"/>
				<path fill="#B5B5B6" d="M533.62,509.53c1.45,0.85,2.48,2.51,3.07,4.97l-3.05,0.4c-0.34-1.13-0.89-2.03-1.65-2.7
					c-0.76-0.67-1.88-0.92-3.34-0.72c-2,0.26-3.3,1.42-3.9,3.49c-0.39,1.34-0.47,2.94-0.22,4.79c0.24,1.87,0.85,3.39,1.8,4.56
					c0.96,1.17,2.28,1.65,3.98,1.42c1.3-0.17,2.28-0.7,2.94-1.59s1.04-2.05,1.15-3.46l3.05-0.4c-0.02,2.52-0.66,4.45-1.9,5.77
					c-1.24,1.33-2.95,2.13-5.13,2.42c-2.44,0.32-4.5-0.32-6.19-1.91c-1.69-1.59-2.7-3.73-3.05-6.4c-0.43-3.28,0.03-5.93,1.39-7.96
					c1.35-2.03,3.26-3.21,5.72-3.53C530.39,508.4,532.16,508.68,533.62,509.53z"/>
				<path fill="#B5B5B6" d="M565.73,504.84c1.32,0.46,2.36,1.14,3.14,2.04c0.75,0.86,1.31,1.9,1.68,3.13
					c0.3,0.84,0.57,2.19,0.82,4.08l-13.58,1.78c0.31,1.89,0.95,3.36,1.93,4.4s2.34,1.44,4.08,1.22c1.63-0.21,2.85-0.93,3.68-2.14
					c0.46-0.7,0.75-1.48,0.86-2.34l3.09-0.4c0.01,0.7-0.16,1.49-0.51,2.4c-0.35,0.9-0.77,1.66-1.27,2.27
					c-0.82,1.05-1.91,1.84-3.27,2.34c-0.72,0.28-1.56,0.49-2.51,0.61c-2.31,0.3-4.38-0.29-6.2-1.77c-1.83-1.48-2.94-3.74-3.34-6.79
					c-0.39-3,0.1-5.54,1.47-7.62s3.36-3.3,5.97-3.64C563.1,504.23,564.42,504.38,565.73,504.84z M567.82,512.02
					c-0.31-1.34-0.74-2.39-1.31-3.14c-1.05-1.4-2.57-1.97-4.57-1.71c-1.43,0.19-2.56,0.86-3.39,2.03s-1.17,2.56-1.02,4.17
					L567.82,512.02z"/>
			</g>
		</g>
		<polygon fill="none" stroke="#BCBCBC" stroke-width="0.3788" points="607.54,545.42 20.39,628.41 -1.14,476.06 586.02,393.07 		
			"/>
	</g>
	<g>
		<path fill="#E9C09B" d="M379.12,606.31c-0.7,0.58-1.79,0.52-2.42-0.14l-7.5-7.83c-0.63-0.66-1.88-1.09-2.78-0.96l-16.74,2.4
			c-0.9,0.13-1.78-0.5-1.96-1.39l-1.82-9.33c-0.17-0.89,0.43-1.63,1.34-1.64l18.18-0.22c0.91-0.01,1.16-0.58,0.56-1.26l-17.83-20.29
			c-0.6-0.68-0.55-1.76,0.1-2.39l7.31-7.01c0.66-0.63,1.66-0.57,2.24,0.14l17.03,21c0.57,0.71,0.89,0.56,0.71-0.34l-4.36-21.06
			c-0.18-0.89,0.37-1.86,1.23-2.15l7-2.38c0.86-0.29,1.74,0.19,1.95,1.08l7.02,29.52c0.21,0.89,0.88,1.06,1.49,0.38l7.6-8.46
			c0.61-0.68,1.67-0.74,2.35-0.14l7.68,6.73c0.68,0.6,0.67,1.57-0.03,2.15L379.12,606.31z"/>
	</g>
	<g>
		<path fill="#E9C09B" d="M186.78,633.97c0.88,0.25,1.85-0.25,2.15-1.1l3.69-10.2c0.31-0.85,1.28-1.76,2.16-2l16.28-4.58
			c0.88-0.25,1.43-1.17,1.23-2.06l-2.11-9.27c-0.2-0.89-1.05-1.32-1.89-0.96l-16.7,7.15c-0.84,0.36-1.3-0.06-1.02-0.93l8.1-25.78
			c0.27-0.87-0.2-1.83-1.06-2.14l-9.51-3.45c-0.86-0.31-1.75,0.16-1.99,1.03l-7.1,26.1c-0.24,0.88-0.59,0.87-0.78-0.02l-4.53-21.03
			c-0.19-0.89-1.09-1.55-2-1.47l-7.36,0.66c-0.91,0.08-1.51,0.88-1.35,1.77l5.52,29.83c0.17,0.9-0.38,1.32-1.21,0.95l-10.37-4.66
			c-0.83-0.37-1.82,0-2.21,0.82l-4.3,9.26c-0.38,0.83,0.02,1.71,0.89,1.96L186.78,633.97z"/>
	</g>
	<g>
		<path fill="#E8BF9B" d="M366.38,190.61c0,0,11.01-26.82,34.09-10.94c28.78,19.82-15.88,40.86-15.88,40.86s-14.12,6.86-6.82,22.13
			c7.31,15.26,8.02,21.09,2.75,23.72c-5.27,2.62-17.21-1.23-18.81-10.69C354.81,214.8,366.38,190.61,366.38,190.61z"/>
		<g>
			<path fill="#D09D78" d="M367.66,219.05c0,0,16.82-53.98,21.17-13.22C388.83,205.83,382.1,183.58,367.66,219.05z"/>
			<path fill="#D09D78" d="M367.52,219.21c0,0,12.97-27.28,10.35,6.47C377.87,225.68,377.45,204.21,367.52,219.21z"/>
		</g>
		<g>
			<path fill="#E8BF9B" d="M368.04,230.07c-0.7,8.17-0.3,21.5,0.89,29.62l16.45,112.51c1.19,8.12-4.24,16.79-12.06,19.26
				l-99.36,31.47c-7.82,2.48-20.48,2.08-28.13-0.89l-52.65-20.41c-7.65-2.96-15.49-11.91-17.43-19.89l-32.96-135.76
				c-1.94-7.97-2.81-21.17-1.95-29.33l11.93-112.98c0.86-8.16,7.15-18.55,13.98-23.1l42.24-28.13c6.83-4.55,18.85-6.37,26.72-4.05
				l108.27,31.9c7.87,2.32,19.24,4.86,25.26,5.66c6.03,0.79,10.39,8.13,9.69,16.3L368.04,230.07z"/>
		</g>
		<path fill="#D09F78" d="M259.73,276.48c0,0,25.79,20.43,67.43,0C327.16,276.48,293.44,329.58,259.73,276.48z"/>
		<g>
			<path fill="#CA8C84" d="M257.62,319.21c0,0-11.83,45.24,8.38,59.81c0,0-35.81,8.74-39.93,6.08c0,0-5.67-2.6-6.33-18.17
				c0,0,1.1-50.56,6.34-65.57C226.08,301.35,249.91,319.76,257.62,319.21z"/>
			<path fill="#6C302A" d="M247.33,382.51c0,0-13.18-43.37-27.02-32.79c0,0-2.85,38.14,9.58,36.08L247.33,382.51z"/>
			<path fill="#FFFFFF" d="M291.69,373.91l-4.85-17.15l-64.71,23.36c0,0,1.65,7.25,9.69,6.3L291.69,373.91z"/>
			<path fill="#A47F5F" d="M240.64,290.72c0,0-24.1-6.73-27.59,22.16C213.05,312.88,218.43,292.75,240.64,290.72z"/>
			<path fill="#FFFFFF" d="M328.11,319.64l4.28,16.79c0,0-62.88,34.26-109.5-18.43l3.19-16.64
				C226.08,301.35,282.02,349.16,328.11,319.64z"/>
			<path fill="none" stroke="#A47F5F" stroke-width="0.5154" d="M290.4,386.11c15.49,1.58,5.5-13.23,5.5-13.23
				s-45.35,10.45-66.02,12.93c-20.7,2.47-3.8-84.46-3.8-84.46c61.46,43.2,96.45,28.12,115.44,5.97"/>
			<polygon fill="#CA8C84" points="222.72,346.74 224.11,358.36 221.62,359.07 222.05,361.79 230.85,360.1 229.9,356.2 
				226.72,356.39 226.07,348.4 			"/>
		</g>
		<path fill="#D09F78" d="M152.07,284.09c0,0,10.38-12.71,11.24-20.96c0,0,1.06,20.52-9.32,28.99L152.07,284.09z"/>
		<path fill="#D09F78" d="M275.47,234.86c0,0-44.54-62.49-80.25,7.16C195.22,242.02,244.81,301.4,275.47,234.86z"/>
		<path fill="#FFFFFF" d="M275.47,234.86c0,0-39.67-43.84-77.66,6.08C197.81,240.94,230.91,271.29,275.47,234.86z"/>
		<g>
			<g>
				<g>
					<defs>
						<path id="SVGID_4_" d="M274.89,235.09c0,0-48.28-53.37-94.52,7.4C180.37,242.5,220.66,279.43,274.89,235.09z"/>
					</defs>
					<clipPath id="SVGID_5_">
						<use xlink:href="#SVGID_4_"  overflow="visible"/>
					</clipPath>
					<path clip-path="url(#SVGID_5_)" fill="#008BC1" d="M253.81,238.62c-2.02-7.49,2.12-15.27,9.25-17.39
						c7.11-2.12,14.51,2.24,16.52,9.73c2.01,7.49-2.13,15.27-9.24,17.39C263.21,250.47,255.81,246.11,253.81,238.62z"/>
				</g>
			</g>
			<g>
				<g>
					<defs>
						<path id="SVGID_6_" d="M274.89,235.09c0,0-48.28-53.37-94.52,7.4C180.37,242.5,220.66,279.43,274.89,235.09z"/>
					</defs>
					<clipPath id="SVGID_8_">
						<use xlink:href="#SVGID_6_"  overflow="visible"/>
					</clipPath>
					<path clip-path="url(#SVGID_8_)" fill="#231F20" d="M261.23,236.42c-0.86-3.18,0.89-6.47,3.92-7.37
						c3.02-0.9,6.15,0.95,7.01,4.12c0.85,3.18-0.9,6.47-3.92,7.37C265.22,241.44,262.08,239.59,261.23,236.42z"/>
				</g>
			</g>
			<g>
				<g>
					<defs>
						<path id="SVGID_10_" d="M274.89,235.09c0,0-48.28-53.37-94.52,7.4C180.37,242.5,220.66,279.43,274.89,235.09z"/>
					</defs>
					<clipPath id="SVGID_12_">
						<use xlink:href="#SVGID_10_"  overflow="visible"/>
					</clipPath>
					<path clip-path="url(#SVGID_12_)" fill="#FFFFFF" d="M257.97,232.47c-0.47-1.74,0.49-3.55,2.15-4.05
						c1.65-0.49,3.38,0.52,3.84,2.26c0.47,1.75-0.49,3.55-2.15,4.05S258.43,234.22,257.97,232.47z"/>
				</g>
			</g>
		</g>
		<path fill="#D09F78" d="M365.25,228.55c0,0-37.64-52.82-67.84,6.05C297.41,234.6,339.33,284.79,365.25,228.55z"/>
		<path fill="#FFFFFF" d="M365.25,228.55c0,0-33.53-37.06-65.64,5.14C299.6,233.69,327.59,259.33,365.25,228.55z"/>
		<path fill="#3B2518" d="M182.69,214.23l-4.94-12.62c0,0,44.34-44.77,89.87-3.15l-1.76,1.89
			C265.86,200.34,213.25,177.02,182.69,214.23z"/>
		<path fill="#3B2518" d="M369.69,206.98l4.82-13.12c0,0-42.42-35.01-78.72,5.52l0.47,1.56
			C296.27,200.94,339.92,177.31,369.69,206.98z"/>
		<g>
			<g>
				<g>
					<defs>
						<path id="SVGID_13_" d="M366.71,229.18c0,0-39.72-43.9-77.77,6.09C288.94,235.28,322.09,265.66,366.71,229.18z"/>
					</defs>
					<clipPath id="SVGID_14_">
						<use xlink:href="#SVGID_13_"  overflow="visible"/>
					</clipPath>
					<path clip-path="url(#SVGID_14_)" fill="#008BC0" d="M346.35,231.75c-1.67-6.16,1.74-12.56,7.6-14.31
						c5.85-1.74,11.93,1.85,13.59,8.01c1.65,6.17-1.75,12.57-7.61,14.31C354.09,241.5,348,237.92,346.35,231.75z"/>
				</g>
			</g>
			<g>
				<g>
					<defs>
						<path id="SVGID_15_" d="M366.71,229.18c0,0-39.72-43.9-77.77,6.09C288.94,235.28,322.09,265.66,366.71,229.18z"/>
					</defs>
					<clipPath id="SVGID_16_">
						<use xlink:href="#SVGID_15_"  overflow="visible"/>
					</clipPath>
					<path clip-path="url(#SVGID_16_)" fill="#231F20" d="M358.49,229.94c-0.7-2.61,0.74-5.32,3.23-6.06
						c2.48-0.74,5.05,0.78,5.76,3.39c0.7,2.62-0.74,5.33-3.23,6.07C361.78,234.07,359.2,232.55,358.49,229.94z"/>
				</g>
			</g>
			<g>
				<g>
					<defs>
						<path id="SVGID_17_" d="M366.71,229.18c0,0-39.72-43.9-77.77,6.09C288.94,235.28,322.09,265.66,366.71,229.18z"/>
					</defs>
					<clipPath id="SVGID_18_">
						<use xlink:href="#SVGID_17_"  overflow="visible"/>
					</clipPath>
					<path clip-path="url(#SVGID_18_)" fill="#FFFFFF" d="M355.81,226.69c-0.39-1.43,0.41-2.92,1.77-3.33s2.77,0.43,3.16,1.86
						c0.38,1.44-0.41,2.93-1.77,3.33C357.61,228.97,356.2,228.13,355.81,226.69z"/>
				</g>
			</g>
		</g>
		<path fill="#3B2518" d="M152.07,284.09l8.26-1.35l3.68-148.96l202.27-28.97l5.12,85.9c0,0,3.36-111.16,38.86-177.99
			c0,0-41.69,30.95-73.38,47.12l-25-55.08l-15.36,28.3l-21.57-17.71l-16.84,18.72c0,0-24.21-16.66-68.18-5.35
			c0,0,8.65,7.37,13.45,10.4c0,0-66.25,6.06-83.53,41.43c0,0,9.6-9.1,19.2-9.1c0,0-25.92,61.65-6.72,91.96
			c0,0,10.56,12.13,10.56,23.24L152.07,284.09z"/>
		<polyline opacity="0.55" fill="#D09F78" enable-background="new    " points="165.02,156.12 366.29,104.81 164.02,133.78 
			165.02,157.83 		"/>
		<path fill="#E8BF9B" d="M145.53,187.03c0,0-15.96-38.85-49.39-15.84c-41.69,28.71,23.01,59.19,23.01,59.19s20.45,9.93,9.88,32.05
			c-10.6,22.11-11.62,30.55-3.99,34.36c7.64,3.79,24.93-1.78,27.25-15.49C162.28,222.08,145.53,187.03,145.53,187.03z"/>
		<g>
			<path fill="#D09D78" d="M143.67,228.23c0,0-24.36-78.19-30.67-19.14C113,209.09,122.75,176.84,143.67,228.23z"/>
			<path fill="#D09D78" d="M143.87,228.47c0,0-18.79-39.52-15,9.38C128.88,237.85,129.48,206.74,143.87,228.47z"/>
		</g>
	</g>
	<g id="svg_27_2_" opacity="0.15" enable-background="new    ">
		<path fill="#231F20" d="M280.04,699.52c-79.18,0-143.38,3.12-143.38,6.96c0,3.85,64.19,6.96,143.38,6.96
			c79.18,0,143.39-3.11,143.39-6.96C423.42,702.64,359.22,699.52,280.04,699.52z"/>
	</g>
</g>
</svg>
