<?xml version="1.0" encoding="utf-8"?>
<!-- Generator: Adobe Illustrator 17.0.1, SVG Export Plug-In . SVG Version: 6.00 Build 0)  -->
<!DOCTYPE svg PUBLIC "-//W3C//DTD SVG 1.0//EN" "http://www.w3.org/TR/2001/REC-SVG-20010904/DTD/svg10.dtd">
<svg version="1.0" id="Layer_1" xmlns="http://www.w3.org/2000/svg" xmlns:xlink="http://www.w3.org/1999/xlink" x="0px" y="0px"
	 width="720px" height="720px" viewBox="0 0 720 720" enable-background="new 0 0 720 720" xml:space="preserve">
<g>
	<g>
		<g>
			<polyline fill="#895D3B" points="461.38,393.22 211.44,507.9 201.92,490.98 505.24,348.47 515.89,368.62 470.39,389.24 			"/>
			<g>
				<path fill="#E0A680" d="M511.84,368.04c-3.65,1.05-34.75,15.47-38.32,16.75c-3.1,1.11-6.4,1.59-9.58,2.31
					c-4.51,1.02-8.31,2.71-12.13,5.18c-5.79,3.75-11.85,7.86-18.5,10.09c-1.99,0.67-4.29,1.16-6.09,0.32
					c-2.17-1.02-1.56-3.51-0.34-5.25c1.74-2.5,5.19-3.91,7.49-2.01c2.05,1.7-1.88,3.11-3.46,2.79c-0.35-0.07-0.1-0.56,0.25-0.49
					c2.67,0.54,3.41-1.94,1.42-2.67c-1.2-0.45-2.68,0.39-3.67,1.07c-1.63,1.13-2.99,3.19-2.47,4.87c0.59,1.9,3.24,1.75,5.11,1.36
					c5.16-1.11,10.25-4.4,14.67-7.11c3.45-2.12,6.73-4.62,10.43-6.34c4.03-1.87,8.53-2.57,12.78-3.52
					c5.1-1.14,37.36-16.41,42.37-17.85C512.16,367.44,512.2,367.94,511.84,368.04L511.84,368.04z"/>
				<path fill="#E0A680" d="M428.18,403.1c-8.91,1.43-15.25,7.8-22.83,12.01c-7.38,4.1-15.42,7.28-23.61,9.17
					c-4.5,1.05-8.98,1.72-13.32,3.5c-4.25,1.74-8.17,4.24-12.14,6.47c-7.03,3.96-138.05,65.85-145.91,67.52
					c-0.37,0.08-0.42-0.42-0.04-0.5c8.19-1.74,139.33-63.86,146.64-67.96c3.71-2.09,7.34-4.27,11.26-5.98
					c4.04-1.75,8.32-2.41,12.54-3.33c9.07-1.98,17.95-5.62,26.03-10.27c7.13-4.11,12.87-9.78,21.35-11.14
					C428.5,402.54,428.55,403.04,428.18,403.1L428.18,403.1z"/>
				<path fill="#E0A680" d="M508.7,358.74c-3.48,3.47-35.57,17.53-40.33,18.46c-2.53,0.49-5.07,0.91-7.59,1.47
					c-1.59,0.36-3.11,0.97-4.44,1.91c-0.62,0.52-1.1,1.12-1.45,1.79c-1.02,1.78,1.28,2.11,2.72,1.55c0.36-0.14,0.55,0.31,0.2,0.45
					c-4.87,1.87-4.39-2.36-1.24-4.58c2.46-1.73,6.19-2.09,9-2.61c5.46-0.99,38.6-14.65,42.69-18.73
					C508.52,358.21,508.97,358.48,508.7,358.74L508.7,358.74z"/>
				<path fill="#E0A680" d="M454.84,382.01c-8.87,2.33-13.05,11.87-22.28,13.23c-0.37,0.06-0.42-0.44-0.04-0.5
					c9.14-1.35,13.41-10.91,22.28-13.24C455.17,381.41,455.21,381.92,454.84,382.01L454.84,382.01z"/>
				<path fill="#E0A680" d="M204.32,493.17c-0.34-0.11-0.65-0.09-0.72-0.41c-0.03-0.17,0.18-0.31,0.34-0.3
					c1.45-0.03,3-0.59,4.45-0.88c1.66-0.32,3.32-0.55,4.98-0.8c3.27-0.51,129.9-59.98,133.13-60.83c6.77-1.78,13.3-4.46,19.7-7.37
					c13.3-6.06,27.02-11.72,39.42-19.43c6.05-3.76,11.62-8.16,17.36-12.3c5.54-4.01,11.23-7.52,17.43-10.57
					c6.4-3.17,12.98-6.37,19.62-9.02c5.25-2.11,38.65-16.22,44.15-16.47c0.37-0.02,0.26,0.5-0.11,0.51
					c-6.31,0.29-40.6,14.82-46.47,17.54c-6.62,3.07-13.3,6-19.8,9.29c-13.08,6.62-23.62,16.74-36.25,24.04
					c-12.03,6.95-25.17,12.45-37.89,18.1c-5.87,2.61-11.89,4.81-18.08,6.44c-3.25,0.86-129.9,60.23-133.19,60.74
					c-1.66,0.25-3.31,0.52-4.97,0.85c-0.87,0.17-1.73,0.39-2.59,0.63c-1.62,0.45-0.09-0.16-0.3-0.22
					C204.9,492.78,204.65,493.27,204.32,493.17L204.32,493.17z"/>
			</g>
		</g>
		<path fill="#8E9093" d="M521.44,416.18l-65.89,27.22l-25.36-99.57l41.62-10.6C481.97,357.58,521.44,416.18,521.44,416.18z"/>
		<path fill="#B9202E" d="M471.81,333.22c5.83,13.99,21.33,39.26,33.48,58.25c-19.04,7.54-38.19,14.78-57.37,21.95l-17.73-69.6
			L471.81,333.22z"/>
	</g>
	<path fill="#6E9A74" d="M331.54,455.42c-33.78-11.94-50.16-24.72-50.07-39.08c0.12-19.76,32.17-31.22,35.82-32.46l3.5,10.29
		c-9.27,3.16-28.4,12.76-28.45,22.25c-0.02,4.09,4.11,15.08,42.83,28.77L331.54,455.42z M320.79,394.17l-1.75-5.14L320.79,394.17
		L320.79,394.17L320.79,394.17z"/>
	<path fill="#E1B783" d="M292.74,418.8c-2.1-0.49-4.19-0.98-6.29-1.45c-1.65-0.37-3.32-0.72-4.98-1.08c0,0.03,0,0.05,0,0.07
		c-0.09,14.35,16.29,27.13,50.07,39.08l3.62-10.24C302.44,433.61,294.43,423.98,292.74,418.8z"/>
	<path fill="#6E9A74" d="M350.03,445.18c38.72-13.69,42.85-24.68,42.83-28.77c-0.05-9.48-19.19-19.08-28.45-22.25l3.49-10.29
		c3.65,1.24,35.7,12.71,35.82,32.46c0.09,14.35-16.29,27.13-50.07,39.08L350.03,445.18z M364.4,394.17L364.4,394.17l1.75-5.14
		L364.4,394.17L364.4,394.17z"/>
	<path fill="#E1B783" d="M392.45,418.8c2.1-0.49,4.19-0.98,6.29-1.45c1.66-0.37,3.32-0.72,4.97-1.08c0,0.03,0,0.05,0,0.07
		c0.09,14.35-16.29,27.13-50.07,39.08l-3.62-10.24C382.75,433.61,390.76,423.98,392.45,418.8z"/>
	<polyline fill="#7A8368" points="324.21,466.75 324.21,445.44 364.94,444.3 362.39,698.31 358.92,697.93 360.47,465.22 
		329.1,466.91 	"/>
	<polygon fill="#6E9A74" points="369.77,458.22 371.94,382.9 318.91,383.8 320.71,458.22 	"/>
	<path fill="#060406" d="M362.5,698.26c0,0,2.91,4.83,10.18,4.97l0.16,1.49c0,0-9.31,0.57-12.03-3.94l0.12,3.4l-3.09-0.37l1.08-6.14
		L362.5,698.26z"/>
	<path opacity="0.1" stroke="#A1805F" stroke-width="0.2121" d="M201.92,704.49c0,2,70.28,3.62,156.98,3.62
		c86.72,0,157-1.61,157-3.62c0-2-70.28-3.62-157-3.62C272.2,700.86,201.92,702.49,201.92,704.49z"/>
	<path fill="#E1B783" d="M414.5,83.36c-46.89-14.36-118.78-7.86-151.32,33.72c-15.33,19.6-20.87,44.51-16.45,68.79
		c2.12,11.66,9.68,16.88,6.42,29.69c-3.06,12-10.69,21.95-16.15,32.88c-16.35,32.71-1.17,73.59,21.03,100.46
		c9.34,11.68,22.19,25.7,35.04,33.88c0,0,52.8,48.83,92.27,5l0,0c12.63-11.12,37.58-39.04,33.75-83.47l-1.45-1.75
		c24.86-31.04,62.79-63.46,70.51-103.18C497.44,151.71,459.65,97.19,414.5,83.36z"/>
	<path fill="#5F3A16" d="M314.1,282.69c-55.3,12.72-46.4,59.16-32.6,91.28c3.79,3.32,7.68,6.34,11.57,8.82c0,0,52.8,48.83,92.27,5
		c5.66-4.98,13.79-13.35,20.69-25.05C408.17,279.75,389.46,265.36,314.1,282.69z"/>
	<path fill="#E1B783" d="M447.18,253.22c0,0,20.67-13.63,33.6,15.69c16.1,36.57-30.71,21.41-30.71,21.41s-14.88-4.61-15.12,12.88
		c-0.25,17.46-2.08,22.67-7.67,21c-5.59-1.7-14.11-13.35-11.48-22.09C427.17,264.37,447.18,253.22,447.18,253.22z"/>
	<g>
		<path fill="#A77C4F" d="M436.29,276.98c0,0,37.05-31.26,23.56,4.57C459.85,281.55,463.53,258.86,436.29,276.98z"/>
		<path fill="#A77C4F" d="M436.12,277c0,0,22.53-12.58,6.04,12.63C442.16,289.63,450.88,272.09,436.12,277z"/>
	</g>
	<path fill="#FFFFFF" d="M257.02,223.97c-0.18,8.14,6,15.16,13.84,15.67c7.81,0.49,14.29-5.71,14.47-13.87
		c0.19-8.15-6.01-15.17-13.81-15.67C263.7,209.61,257.24,215.8,257.02,223.97z"/>
	<path fill="#E6E6E6" d="M269.22,216.17c-4.99-0.32-9.42,2.09-12.03,6c-0.09,0.59-0.15,1.19-0.17,1.8
		c-0.18,8.14,6,15.16,13.84,15.67c4.97,0.32,9.4-2.1,12.01-5.99c0.09-0.59,0.14-1.19,0.16-1.81
		C283.23,223.69,277.03,216.67,269.22,216.17z"/>
	<path fill="#221F1F" d="M275.22,228.03c-0.07,2.16,1.09,3.98,2.59,4.09c1.5,0.09,2.78-1.57,2.84-3.73
		c0.08-2.16-1.08-3.99-2.59-4.09C276.57,224.21,275.29,225.87,275.22,228.03z"/>
	<g>
		<path fill="#FFFFFF" d="M320.68,227.07c1.08,11.57,12.61,20.47,25.79,19.86c13.14-0.62,22.91-10.5,21.82-22.08
			c-1.07-11.59-12.61-20.49-25.76-19.86C329.38,205.59,319.62,215.48,320.68,227.07z"/>
		<path fill="#E6E6E6" d="M364.85,230.59c-1.07-11.58-12.61-20.48-25.75-19.86c-7.19,0.33-13.35,3.45-17.3,8.09
			c-0.97,2.56-1.38,5.35-1.11,8.24c1.08,11.57,12.61,20.47,25.79,19.86c7.18-0.34,13.34-3.45,17.28-8.09
			C364.71,236.28,365.12,233.49,364.85,230.59z"/>
		<path fill="#221F1F" d="M345.17,229.43c1.02,2.37,3.22,3.74,4.88,3.08c1.67-0.66,2.18-3.11,1.14-5.47
			c-1.03-2.35-3.22-3.74-4.88-3.08C344.64,224.63,344.13,227.08,345.17,229.43z"/>
	</g>
	<path fill="#5F3A16" d="M237.28,195.84l1.51,15.95c0,0,42.92,14.83,48.09-18.06l-9.16-11.93
		C277.72,181.8,272.6,211.8,237.28,195.84z"/>
	<path fill="#A77C4F" d="M420.38,317.89c0,0-7.51-6.59-9.9-17.16c0,0-2.42,17.16,8.07,25.47L420.38,317.89z"/>
	<path fill="#5F3A16" d="M325.74,202.08l2.55-21.16c0,0,61.1-19.72,67.55,23.86l-13.27,15.83
		C382.57,220.61,376.11,180.84,325.74,202.08z"/>
	<g>
		<path fill="#D4545D" d="M335.24,330c0.8,0.74,9.05,29.74,2.44,40.63l18.85,6.65c0,0,37.94-2.79,32.75-64.18L335.24,330z"/>
		<path fill="#913440" d="M347.26,374c-2.97-1.75,3.34-45.21,40.12-28.62C387.38,345.38,372.07,388.62,347.26,374z"/>
		<path fill="#FFFFFF" d="M386.62,295.97c0,0-0.85,6.36-8.23,11.34c-0.8,0.92-1.8,2.36-2.89,3.02c-7.41,4.53-11.75,7.06-20.3,8.4
			c-1.41,0.22-7.24,1.65-8.59,1.51c-11.93,2.03-28.1,0.99-47.73-0.2c0,0,0.3,10.14,6.62,12.8c6.31,2.65,70.73,0.1,83.8-19.08
			L386.62,295.97z"/>
		<path fill="#FFFFFF" d="M314.15,370.43c0,0-0.71-9.83,3.09-9.48c3.8,0.35,44.08,15.73,44.08,15.73S343.65,382,314.15,370.43z"/>
		
			<path fill="none" stroke="#A77C4F" stroke-width="0.502" stroke-linecap="round" stroke-linejoin="round" stroke-miterlimit="10" d="
			M286.43,319.2c25.69,2.48,96.95,10.43,100.27-28.63c4.07,21.12,5.2,46.28-4.44,66.13c-13.78,28.35-45.27,23.43-69.87,12.98"/>
		<polyline fill="#D4545D" points="372.42,340.2 368.12,353.22 363.35,351.3 360.53,356.95 374.25,362.3 377.09,356.11 
			372.42,354.69 377.87,341.13 374.5,341.67 		"/>
	</g>
	<path fill="#A77C4F" d="M281.44,266.11c0,0,24.92,56.27,48.39-5.14C329.83,260.97,313.31,290.46,281.44,266.11z"/>
	<path fill="#A77C4F" d="M377.87,272.94c0,0,22.03-19.53,25.85,8.6C403.72,281.55,397.07,263.44,377.87,272.94z"/>
	<g>
		<ellipse fill="#895D3B" cx="289.25" cy="704.15" rx="18.82" ry="3.95"/>
		<path fill="#B1C68E" d="M253.59,648.14c0,0-36.12-2.35-27.68,28.75C225.91,676.9,252.74,684.78,253.59,648.14z"/>
		<path fill="#895D3B" d="M303.35,601c-11.05,1.05-22.07,1.87-33.07,2.48l0.31,45.12l-35.53-26.63l-4.69,7.79l40.49,35.39
			l-0.42,39.01c12.14-1.25,25.3,0.74,37.45-0.41l0.28-100.9C306.55,603,304.95,600.85,303.35,601z"/>
		<g>
			<path fill="#E0A680" d="M275.57,603.17c-0.33,0.02-0.65,0.04-0.98,0.06c0.18,16.72,0.29,34.13,0.59,37.46
				c0.49,5.5,2.08,10.89,3.22,16.24c1.61,7.61,1.72,14.58,0.63,22.15c-1.29,9.02-2.78,18.46-2.75,27.77
				c0.23-0.02,0.45-0.04,0.68-0.07c0.04-5.79,0.84-11.72,1.48-17.09c0.81-6.75,2.32-13.51,2.33-20.36
				c0.03-7.47-2.08-14.81-3.63-21.97C276.11,642.6,275.84,622.02,275.57,603.17z"/>
			<path fill="#E0A680" d="M289.35,602.2c-0.3,0.02-0.6,0.05-0.91,0.07c0.09,17.8,0.9,36.68,1.94,40.92
				c1.03,4.2,2.18,8.37,3.09,12.61c0.58,2.68,0.71,5.42,0.21,8.12c-0.35,1.32-0.93,2.48-1.72,3.47c-2.01,2.8-4.11-0.47-4.28-3.07
				c-0.04-0.64-0.87-0.62-0.83,0.02c0.58,8.75,6.7,5.04,7.85-1.33c0.9-4.97-1.16-10.91-2.36-15.55
				C291.05,642.42,289.7,621.36,289.35,602.2z"/>
			<path fill="#E0A680" d="M287.17,705.74c0.27-0.03,0.55-0.05,0.82-0.08c-1.26-13.08,7.76-25.14,5.35-38.73
				c-0.11-0.63-0.91-0.34-0.79,0.29C294.95,680.75,285.98,692.65,287.17,705.74z"/>
			<path fill="#E0A680" d="M302.78,601.05c-0.16,0.02-0.32,0.03-0.48,0.04c1.55,21.67,2.32,48.63,2.31,55.42
				c-0.02,12.25,0.2,24.49-0.24,36.73c-0.13,3.67-0.44,7.3-0.85,10.91c0.24-0.02,0.48-0.05,0.72-0.07
				c0.58-5.31,0.98-10.65,1.12-16.09c0.32-11.99,0.57-24.28-0.05-36.27C305.01,645.98,304.17,621.45,302.78,601.05z"/>
		</g>
		<path fill="#E0A680" d="M270.48,654c-1.89-1.11-3.5-2.59-5.3-3.83c-1.56-1.08-3.37-1.79-5.06-2.63c-2.39-1.2-4.22-2.72-5.9-4.76
			c-2.54-3.08-5.15-6.42-8.51-8.64c-1.01-0.67-2.24-1.26-3.47-0.95c-1.49,0.38-1.68,2.03-1.36,3.28c0.46,1.79,2.15,3.11,3.91,2.18
			c1.57-0.82-0.4-2.2-1.39-2.19c-0.22,0-0.19,0.34,0.04,0.34c1.67-0.02,1.55,1.64,0.24,1.87c-0.8,0.14-1.47-0.57-1.9-1.12
			c-0.7-0.91-1.03-2.38-0.36-3.38c0.76-1.13,2.26-0.72,3.27-0.24c2.76,1.33,4.98,4.03,6.95,6.28c1.53,1.76,2.89,3.75,4.65,5.29
			c1.93,1.68,4.38,2.66,6.65,3.78c2.71,1.34,4.81,3.5,7.41,5.02C270.53,654.42,270.67,654.11,270.48,654L270.48,654z"/>
		<path fill="#E0A680" d="M253.72,649.65c-4.63-2.55-4.96-9.1-10.02-11.09c-0.2-0.08-0.34,0.23-0.14,0.31
			c5.01,1.96,5.38,8.53,10.02,11.09C253.77,650.07,253.91,649.76,253.72,649.65L253.72,649.65z"/>
		<path fill="#E0A680" d="M308.07,602.84c0,2.18-8.42,3.95-18.82,3.95c-10.39,0-18.82-1.77-18.82-3.95c0-2.18,8.43-3.95,18.82-3.95
			C299.65,598.89,308.07,600.66,308.07,602.84z"/>
		<path fill="#895D3B" d="M299.95,602.11c0,0.58-4.29,1.06-9.59,1.06c-5.3,0-9.59-0.47-9.59-1.06c0-0.58,4.29-1.06,9.59-1.06
			C295.66,601.05,299.95,601.53,299.95,602.11z"/>
	</g>
	<path fill="#7A8368" d="M293.4,499.13l-0.15,97.89l3.35-0.16l0.79-97.96C296.08,499.05,294.74,499.13,293.4,499.13z"/>
	<path fill="#060406" d="M293,596.05c0,0-3.1,4.72-10.36,4.58l-0.23,1.48c0,0,9.29,0.91,12.17-3.49l-0.25,3.4l3.11-0.27l-0.86-6.16
		L293,596.05z"/>
	<polyline fill="#7A8368" points="297.4,498.9 328.79,461.7 324.21,461.7 293.4,499.13 	"/>
</g>
</svg>
