<?xml version="1.0" encoding="utf-8"?>
<!-- Generator: Adobe Illustrator 17.0.1, SVG Export Plug-In . SVG Version: 6.00 Build 0)  -->
<!DOCTYPE svg PUBLIC "-//W3C//DTD SVG 1.0//EN" "http://www.w3.org/TR/2001/REC-SVG-20010904/DTD/svg10.dtd">
<svg version="1.0" id="Layer_1" xmlns="http://www.w3.org/2000/svg" xmlns:xlink="http://www.w3.org/1999/xlink" x="0px" y="0px"
	 width="720px" height="720px" viewBox="0 0 720 720" enable-background="new 0 0 720 720" xml:space="preserve">
<g>
	<ellipse opacity="0.2" fill="#231F20" cx="326.96" cy="703.83" rx="249.66" ry="8.43"/>
	<path fill="#E8BF9B" d="M133.4,431.37c21.56-26.52,58.49-60.64,117.41-104.56l4.26,15.61c0,0-87.52,63.29-115.65,112.01"/>
	<path fill="#E8BF9B" d="M603.31,286.01c-0.55-0.78-1.11-1.57-1.66-2.35c-78.31,42.96-232.51,68.72-232.51,68.72l-4.05,23.51
		c120.51-21.79,198.85-44.67,247.71-67.14C608.82,301.55,605.74,293.93,603.31,286.01z"/>
	<polygon fill="#155580" points="369.69,517.09 244.26,511.23 248.74,688.83 259.48,687.84 256.81,575.96 353.54,568.13 
		356.23,687.84 369.67,687.84 	"/>
	<path fill="#231F20" d="M367.16,688.65c0,0,9.25,14.73,31.64,14.73l0.6,4.58c0,0-28.66,2.28-37.31-11.46l0.56,10.48l-9.53-0.98
		l2.99-18.98L367.16,688.65z"/>
	<path fill="#231F20" d="M247.79,688.42c0,0-9.27,14.72-31.66,14.72l-0.61,4.57c0,0,28.66,2.3,37.31-11.44l-0.58,10.48l9.55-0.98
		l-2.99-18.98L247.79,688.42z"/>
	<path fill="#D7D5CA" d="M367.67,374.73c0,0,102.22-1.17,123.42-14.59l-10.64-43.24l-73.85,8.46h-27.44L367.67,374.73z"/>
	<g>
		<path fill="#E8BF9B" d="M580.88,310.62c0.09,1.09,1.07,1.98,2.17,1.96l14.41-0.22c1.1-0.02,2.53,0.69,3.18,1.57l13.31,17.97
			c0.65,0.88,1.94,1.11,2.85,0.5l10.57-7.01c0.91-0.61,1.04-1.75,0.28-2.54l-16.69-17.29c-0.76-0.79-0.49-1.49,0.61-1.55l35.45-2.08
			c1.1-0.06,1.98-1.02,1.96-2.11l-0.21-13.51c-0.02-1.1-0.92-1.91-2.02-1.8l-35.35,3.48c-1.09,0.11-1.23-0.29-0.31-0.89l23.78-15.42
			c0.92-0.6,1.28-1.89,0.81-2.88l-4.33-8.95c-0.48-0.99-1.64-1.33-2.58-0.76l-34.03,20.65c-0.94,0.57-1.65,0.14-1.59-0.96l0.9-15.1
			c0.07-1.1-0.78-2.06-1.87-2.13l-13.57-0.97c-1.1-0.08-1.92,0.75-1.82,1.85L580.88,310.62z"/>
	</g>
	<g>
		<path fill="#3B2416" d="M252.17,600.84c-21.89-13.78-18.79-42.27-18.79-42.27c2.6-73.13-76.11-41.87-76.11-41.87l-13.47,4.83
			c-41.99,13.3-36.16,50.5-24.86,66.5c11.31,16,5.01,31.66,1.45,58.47c-3.57,26.81,7.59,78.61,96.23,57.77
			C305.28,683.41,274.06,614.62,252.17,600.84z M181.11,611.56c-12.74-0.64-22.56-11.5-21.91-24.25
			c0.64-12.75,11.51-22.55,24.25-21.9c12.75,0.64,22.56,11.49,21.91,24.24C204.72,602.39,193.85,612.21,181.11,611.56z"/>
		<polygon fill="#3B2416" points="120.91,375.49 154.98,518.24 176.76,512.73 140.94,371.54 		"/>
		<g>
			<path fill="#3B2416" d="M150.17,319.2c1.25,3.91,0.5,7.64-1.67,8.34c-2.17,0.7-4.94-1.91-6.21-5.82c-1.25-3.9-0.5-7.63,1.67-8.32
				C146.13,312.69,148.91,315.29,150.17,319.2z"/>
			<polygon fill="#3B2416" points="148.16,322.05 135.24,326.21 134,322.36 146.94,318.22 			"/>
		</g>
		<g>
			<path fill="#3B2416" d="M153.2,338.8c0.48,3.82-0.87,7.13-3,7.39c-2.12,0.25-4.21-2.63-4.68-6.46c-0.48-3.82,0.87-7.13,2.99-7.38
				C150.64,332.09,152.74,334.97,153.2,338.8z"/>
			<polygon fill="#3B2416" points="150.73,341.52 138.09,343.06 137.63,339.31 150.28,337.76 			"/>
		</g>
		<g>
			<path fill="#3B2416" d="M154.74,355.18c0.77,3.53-0.21,6.73-2.18,7.16c-1.96,0.42-4.17-2.1-4.93-5.64
				c-0.75-3.53,0.22-6.73,2.18-7.15C151.78,349.12,153.98,351.64,154.74,355.18z"/>
			<polygon fill="#3B2416" points="152.12,358.09 140.44,360.61 139.69,357.14 151.38,354.62 			"/>
		</g>
		<g>
			<path fill="#3B2416" d="M100.64,368.8c-1.4-3.33-1.02-6.67,0.82-7.45c1.86-0.77,4.49,1.31,5.89,4.64
				c1.39,3.33,1.02,6.66-0.82,7.44C104.67,374.2,102.03,372.13,100.64,368.8z"/>
			<polygon fill="#3B2416" points="104.03,365.19 115.05,360.57 116.43,363.84 105.4,368.46 			"/>
		</g>
		<g>
			<path fill="#3B2416" d="M96.51,353.14c-0.78-3.53,0.19-6.74,2.15-7.17c1.96-0.43,4.18,2.08,4.96,5.61
				c0.77,3.53-0.19,6.73-2.15,7.17C99.49,359.18,97.28,356.67,96.51,353.14z"/>
			<polygon fill="#3B2416" points="100.49,350.2 112.16,347.64 112.93,351.12 101.25,353.67 			"/>
		</g>
		<g>
			<path fill="#3B2416" d="M90.43,335.21c-0.78-3.53,0.19-6.74,2.15-7.17c1.96-0.43,4.17,2.08,4.96,5.61
				c0.77,3.53-0.18,6.73-2.15,7.17C93.43,341.25,91.21,338.74,90.43,335.21z"/>
			<polygon fill="#3B2416" points="94.42,332.27 106.09,329.7 106.85,333.17 95.17,335.74 			"/>
		</g>
		<polygon fill="#FFFFFF" points="165.47,641.25 224.37,624.04 229.81,639.74 170.19,656.91 		"/>
		<polyline fill="none" stroke="#FFFFFF" stroke-width="0.3563" points="125.04,377.57 190.72,644.7 197.34,644.25 131.63,376.04 		
			"/>
		<line fill="none" stroke="#FFFFFF" stroke-width="0.3563" x1="136.38" y1="374.42" x2="205.94" y2="638.95"/>
		<path fill="#3B2416" d="M134.75,308.97l-37.34,8.57l19.49,61.04l27.28-5.77L134.75,308.97z M119.48,372.44l-11.86-46.48l5.06-1.23
			l11.86,46.48L119.48,372.44z M121.92,323.33l11.2-2.72l7.26,47.32l-7.32,1.21L121.92,323.33z"/>
	</g>
	<path fill="#E8BF9B" d="M139.42,454.43c-17.09,29.6-12.28,53.82,47.4,55.21l2.87,13.49c0,0-137.73,8.41-56.29-91.75"/>
	<path fill="#D7D5CA" d="M226.22,321.57c0,0-30.7,28.13-60.68,62.71l34.59,25.37l36.9-39.2L226.22,321.57z"/>
	<polyline fill="#D7D5CA" points="324.71,552.23 373.81,551.14 389.6,327.41 226.22,321.57 240.94,556.16 304.67,552.49 	"/>
	<g>
		<path fill="#E8BF9B" d="M175.19,524.36c-0.2,1.08,0.5,2.19,1.57,2.46l13.98,3.61c1.06,0.27,2.26,1.34,2.65,2.36l8.05,20.84
			c0.4,1.02,1.57,1.58,2.62,1.24l12.06-3.96c1.04-0.34,1.47-1.41,0.94-2.38l-11.47-21.07c-0.53-0.96-0.08-1.57,1-1.34l34.7,7.4
			c1.07,0.23,2.18-0.45,2.45-1.52l3.39-13.06c0.28-1.06-0.38-2.09-1.47-2.27l-35-6.05c-1.08-0.19-1.11-0.61-0.06-0.94l27-8.54
			c1.05-0.33,1.74-1.49,1.54-2.57l-1.8-9.78c-0.2-1.08-1.23-1.72-2.28-1.42l-38.3,10.89c-1.06,0.3-1.63-0.3-1.28-1.34l4.88-14.32
			c0.35-1.04-0.2-2.19-1.24-2.56l-12.83-4.55c-1.03-0.37-2.05,0.22-2.25,1.3L175.19,524.36z"/>
	</g>
	<polygon fill="#414141" points="240.26,548.22 375,544.01 373.08,556.28 241.79,566.27 	"/>
	<polygon fill="#6D6F71" points="281.93,543.08 282.82,564.57 324.73,561.35 324.73,542.01 	"/>
	<line fill="none" stroke="#BCBAB3" stroke-width="1.1876" x1="307.33" y1="324.42" x2="307.33" y2="541.11"/>
	<path fill="#BCBAB3" d="M333.7,378.91c0-4.02-3.26-7.28-7.28-7.28c-4.02,0-7.28,3.26-7.28,7.28c0,4.02,3.26,7.29,7.28,7.29
		C330.45,386.2,333.7,382.93,333.7,378.91z"/>
	<path fill="#BCBAB3" d="M334.37,408.05c0-4.02-3.26-7.28-7.28-7.28c-4.02,0-7.28,3.26-7.28,7.28c0,4.02,3.26,7.29,7.28,7.29
		C331.11,415.34,334.37,412.07,334.37,408.05z"/>
	<path fill="#BCBAB3" d="M334.37,440.5c0-4.02-3.26-7.28-7.28-7.28c-4.02,0-7.28,3.27-7.28,7.28c0,4.02,3.26,7.28,7.28,7.28
		C331.11,447.78,334.37,444.52,334.37,440.5z"/>
	<path fill="#BCBAB3" d="M334.37,468.31c0-4.02-3.26-7.28-7.28-7.28c-4.02,0-7.28,3.26-7.28,7.28c0,4.02,3.26,7.28,7.28,7.28
		C331.11,475.6,334.37,472.33,334.37,468.31z"/>
	<path fill="#BCBAB3" d="M336.35,502.75c0-4.02-3.26-7.28-7.28-7.28c-4.02,0-7.28,3.26-7.28,7.28s3.26,7.28,7.28,7.28
		C333.1,510.04,336.35,506.77,336.35,502.75z"/>
	<line fill="none" stroke="#BCBAB3" stroke-width="0.5938" x1="246.45" y1="408.35" x2="295.23" y2="408.35"/>
	<path fill="#E9C09B" d="M162.74,292.85c10.83,61.36,76.6,105.4,165.32,86.89c88.73-18.52,124.13-74.99,115.21-136.66
		c-8.91-61.68-58.77-105.2-147.5-86.68C207.04,174.91,149.17,215.93,162.74,292.85z"/>
	<path fill="#E9C09B" d="M157.67,194.12c7.55,46.56,69.77,73.71,138.96,60.66c69.19-13.06,119.15-61.39,111.59-107.94
		c-7.56-46.56-67.47-92.09-136.66-79.03C202.37,80.86,150.11,147.57,157.67,194.12z"/>
	<path fill="#E9C09B" d="M393.37,175.99c1.33,9.11,10.64,14.78,20.8,12.66c10.19-2.12,17.36-11.23,16.04-20.34
		c-1.32-9.11-10.63-14.78-20.81-12.66C399.23,157.77,392.05,166.87,393.37,175.99z"/>
	<path fill="#E9C09B" d="M129.99,231.06c1.92,13.28,15.49,21.53,30.3,18.44c14.83-3.09,25.29-16.36,23.36-29.63
		c-1.91-13.28-15.48-21.54-30.32-18.44C138.53,204.52,128.07,217.78,129.99,231.06z"/>
	<path fill="#CF9E78" d="M161.46,219.38c0,0-24.34-11.43-25.46,18.37c0,0,6.05-17.78,13.02-13.85c0,0-7.8,12.37-3.84,19.99
		C145.18,243.9,149.67,221.84,161.46,219.38z"/>
	<path fill="#CF9E78" d="M408.21,170.99c0,0,9.86-15.92,18.78-0.4c0,0-8.21-7.09-10.86-2.18c0,0,7.64,3.49,7.64,9.17
		C423.77,177.58,415.21,167.57,408.21,170.99z"/>
	<path fill="#FFFFFF" d="M297.58,185.81c0.67,4.56,11.98,6.02,25.27,3.24c13.29-2.78,23.53-8.73,22.89-13.29
		c-0.67-4.56-11.97-6.01-25.28-3.23C307.17,175.29,296.93,181.25,297.58,185.81z"/>
	<path fill="#FFFFFF" d="M259.89,193.17c1.08,7.52,12.74,11.36,26.03,8.58c13.31-2.76,23.21-11.12,22.11-18.63
		c-1.09-7.52-12.75-11.36-26.04-8.59C268.7,177.32,258.8,185.65,259.89,193.17z"/>
	<path fill="#46150C" d="M305.47,178.26c0.38,2.63,2.05,5.09,4.59,4.43c2.17-0.56,3.66-2.96,3.28-5.59
		c-0.37-2.63-2.46-4.39-4.66-3.93c-0.15,0.04-0.31,0.07-0.46,0.13"/>
	<path fill="#46150C" d="M295.08,181.49c0.49,3.41,3.19,5.7,6.03,5.11c2.85-0.59,4.75-3.84,4.26-7.26c-0.5-3.41-3.2-5.7-6.04-5.1
		C296.49,174.82,294.57,178.08,295.08,181.49z"/>
	<path fill="#553F37" d="M352.19,156.84c0,0-27.33-30.12-47.89,0.01C304.29,156.85,337.95,144.54,352.19,156.84z"/>
	<path fill="#553F37" d="M292.61,150.48c0,0-37.24-44.5-52.47,12.42C240.14,162.9,259.47,124.22,292.61,150.48z"/>
	<path fill="#E9C09B" d="M345.11,182l-33.28,6.36c0,0-7.43,1.85-5.4,4.31C306.43,192.68,334.52,190.29,345.11,182z"/>
	<path fill="#CF9E78" d="M391.12,181.08c0,0-42.27-9.84-85.7,9.64C305.42,190.72,371.18,175.69,391.12,181.08z"/>
	<path fill="#E9C09B" d="M311.39,192.59c0,0-22.78-9.94-57.97,1.75l3.6,14.87l44.66-8.45L311.39,192.59z"/>
	<path fill="#CF9E78" d="M306.02,190.74c0,0-66.12-10.07-93.04,13.77C212.98,204.51,284.03,183.61,306.02,190.74z"/>
	<path fill="#FFFFFF" d="M305.96,178.22c0.11,0.74,0.69,1.23,1.3,1.11c0.61-0.13,1.02-0.83,0.92-1.57c-0.1-0.73-0.69-1.23-1.3-1.1
		C306.26,176.79,305.85,177.49,305.96,178.22z"/>
	<path fill="#FFFFFF" d="M301.64,178.72c0.15,1.06,0.98,1.75,1.86,1.57c0.87-0.19,1.46-1.17,1.31-2.23
		c-0.15-1.04-0.98-1.75-1.85-1.57C302.07,176.68,301.49,177.67,301.64,178.72z"/>
	<path fill="#CF9E78" d="M349.94,174.61c0,0-30.86-34.05-44.69,3.78C305.25,178.39,336.63,166.32,349.94,174.61z"/>
	<path fill="#CF9E78" d="M305.61,178.48c0,0-17.05-40.69-51.1,1.81C254.51,180.29,293.43,172.49,305.61,178.48z"/>
	<path fill="#E9C09B" d="M364.31,312.26"/>
	<path opacity="0.31" fill="#D09E78" d="M175.23,237.01c0,0-32.05-97.91,51.12-144.69c0,0,64.11,59.78,110.03-10.4
		c0,0,66.33,41.76,73.02,73.73c0,0-5.2-92.69-128.17-88.85c-90.11,2.82-135.16,107.95-122.46,133.82l4.33,48.52
		c0,0-28.54,139.29,148.16,133.42c0,0,155.08-5.2,129.96-149.89c0,0-5.2-25.99-22.53-45.05c0,0,3.46,16.47-5.2,19.06
		C413.49,206.68,286.13,242.2,175.23,237.01z"/>
	<path fill="#E9C09B" d="M174.37,267.55c0,0,25.47-37.04,62.51-19.68c0,0,94.91,12.73,153.94-20.83c0,0,11.77-25.68,22.67-20.36
		c10.9,5.32,3.95-2.79,3.95-2.79s19.68,62.51,1.16,86.82c0,0-9.26,53.24-86.82,53.24c0,0-131.95,27.78-135.42-46.3L174.37,267.55z"
		/>
	<g>
		<path fill="#FFFFFF" d="M203.35,256.09c0,0,98.47,31.14,206.42-26.35l3.35,38.27c0,0-24.54,37.97-102.09,44.61
			c-77.53,6.64-3.34,0.08-3.34,0.08s-91.74,5.53-100.37-10.78L203.35,256.09z"/>
		<path fill="none" stroke="#A47F5F" stroke-width="0.8473" d="M203.35,256.09c0,0,105,31.27,206.42-26.35l6.3,34.15
			c0,0-5.16,35.63-108.37,48.81c-103.2,13.18-101.38-18.13-101.38-18.13L203.35,256.09z"/>
		<path fill="#A47F5F" d="M183.16,274.51c0,0,4.99-37.65,48.82-26.92C231.98,247.59,199.43,248.47,183.16,274.51z"/>
		<path fill="#A47F5F" d="M378.21,220.56c0,0,31.37-21.39,52.62,18.41C430.83,238.97,408.46,215.33,378.21,220.56z"/>
		<path fill="#A47F5F" d="M286.31,332.11c0,0,48.74-10.56,72.46-3.81l-70.57,10.1L286.31,332.11z"/>
	</g>
	<path fill="none" stroke="#C0C0C0" stroke-width="0.5938" d="M210.64,282.16c0,0,120.77,23.71,198.66-31.6"/>
	<path fill="#D09E78" d="M276.92,211.98c0,0,34.65,24.37,56.78-6.5C333.7,205.48,308.68,224.98,276.92,211.98z"/>
</g>
</svg>
