<?xml version="1.0" encoding="utf-8"?>
<!-- Generator: Adobe Illustrator 17.0.1, SVG Export Plug-In . SVG Version: 6.00 Build 0)  -->
<!DOCTYPE svg PUBLIC "-//W3C//DTD SVG 1.0//EN" "http://www.w3.org/TR/2001/REC-SVG-20010904/DTD/svg10.dtd">
<svg version="1.0" id="Layer_1" xmlns="http://www.w3.org/2000/svg" xmlns:xlink="http://www.w3.org/1999/xlink" x="0px" y="0px"
	 width="720px" height="720px" viewBox="0 0 720 720" enable-background="new 0 0 720 720" xml:space="preserve">
<g>
	<path fill="#B52126" d="M404.42,379.6c0,0,33.51,49.14,31.28,48.39c-2.23-0.74-29.04,21.6-29.04,21.6l-14.16-25.32L404.42,379.6z"
		/>
	<polygon fill="#231F20" points="299.82,561.7 391.66,557.39 388.4,687.47 380.52,686.75 382.48,604.81 311.63,599.07 
		309.66,686.75 299.83,686.75 	"/>
	<path fill="#9B9A91" d="M515.74,702.7c0,7.47-76.51,13.5-170.91,13.5c-94.38,0-170.89-6.04-170.89-13.5
		c0-7.44,76.51-13.48,170.89-13.48C439.23,689.22,515.74,695.26,515.74,702.7z"/>
	<path fill="#231F20" d="M386.83,688.28c0,0,6.78,10.78,23.18,10.78l0.44,3.36c0,0-20.99,1.67-27.33-8.4l0.42,7.68l-6.98-0.72
		l2.18-13.89L386.83,688.28z"/>
	<path fill="#231F20" d="M299.42,688.1c0,0-6.79,10.78-23.18,10.78l-0.44,3.36c0,0,20.99,1.68,27.33-8.39l-0.43,7.67l6.99-0.74
		l-2.18-13.87L299.42,688.1z"/>
	<polygon fill="#B52126" points="405.17,371.41 279.14,389.55 290.45,569.46 339.3,566.64 345.92,543.08 352.54,572.08 
		387.26,566.64 	"/>
	<polygon fill="#B52126" points="279.14,389.55 227.3,449.41 256.98,458.52 299.94,438.13 	"/>
	<g>
		<g>
			
				<image overflow="visible" opacity="0.3" enable-background="new    " width="2704" height="1154" xlink:href="2BD7AD546BB5F401.png"  transform="matrix(0.2397 0 0 0.2396 36.7305 369.2539)">
			</image>
			<g>
				
					<rect x="53.27" y="414" transform="matrix(-0.9902 0.14 -0.14 -0.9902 793.4018 954.4572)" fill="#FFFFFF" width="619.71" height="182.27"/>
			</g>
		</g>
		<g>
			<polygon fill="#FFFFFF" points="665.58,538.66 83.62,622.46 62.03,472.53 644,388.73 			"/>
			<g>
				<path fill="#B52126" d="M152.82,473.01l3.12,23.92l-19.16,2.5l-1.26-9.63l-16.34,2.14l2.46,18.83l20.57-2.69l1.88,14.4
					l-20.57,2.69l1.8,13.75l11.04-1.44l1.88,14.4l-40.27,5.26l-1.88-14.4l6.71-0.88l-6.14-46.98l-6.71,0.88l-1.87-14.29
					L152.82,473.01z"/>
				<path fill="#B52126" d="M167.04,548.1l-1.85-14.18l4.76-0.62l-3.38-25.87l-4.65,0.61l-1.84-14.07l20.35-2.66l4.15,6.5
					c2.14-5.56,4.37-10.37,15.52-11.83l2.54,19.48c-9.74,1.27-14.94,4.48-13.69,14.01l1.46,11.15l5.41-0.71l1.85,14.18L167.04,548.1
					z"/>
				<path fill="#B52126" d="M206.77,515.17c-2.25-18.09,11.04-30.07,25.98-32.02c17.13-2.02,31.14,6.61,33.83,24.64
					c2.56,17.94-9.41,29.96-25.86,32.11C225.24,541.93,209.05,534.36,206.77,515.17z M244.38,510.7c-1.06-8.12-4.7-14.03-9.8-13.47
					c-4.22,0.55-6.65,7.25-5.62,15.16c1.16,8.88,5.39,14.27,9.93,13.67C243.56,525.45,245.45,518.81,244.38,510.7z"/>
				<path fill="#B52126" d="M273.98,534.13l-1.85-14.18l4.55-0.59l-3.38-25.87l-4.55,0.59l-1.84-14.07l23.06-3.01l3.37,6.39
					c3.02-5.57,7.53-9.79,14.35-10.68c16.78-2.19,21.22,9.89,22.7,21.25l2.36,18.08l5.09-0.67l1.85,14.18l-27.28,3.56l-3.86-29.55
					c-0.48-3.68-0.99-10.11-7.38-9.27c-5.52,0.72-6.11,6.3-5.5,10.96l2.01,15.37l7.79-1.02l1.85,14.18L273.98,534.13z"/>
				<path fill="#B52126" d="M341.7,470.24l-1.3-9.96l19.08-8.99l2.14,16.35l10.28-1.34l1.84,14.07l-10.28,1.34l2.52,19.27
					c0.48,3.68,0.37,8.76,4.6,8.21c1.41-0.18,4.64-1.6,6.58-2.73l1.81,13.86c-3.08,1.72-10.34,3.44-12.83,3.77
					c-16.24,2.12-17.94-6.68-20.07-20.5l-2.52-19.27l-5.85,0.76L335.86,471L341.7,470.24z"/>
				<path fill="#B52126" d="M412.76,482.42l1.88,14.4l-31.39,4.1l-1.88-14.4L412.76,482.42z"/>
				<path fill="#B52126" d="M480.47,430.2l3.13,23.92l-18.73,2.45l-1.26-9.63l-17.32,2.26l1.95,14.94l20.57-2.69l1.88,14.4
					l-20.57,2.69l2.3,17.64l17.32-2.26l-1.31-10.07l18.73-2.45l3.2,24.46l-65.27,8.53l-1.88-14.4l6.82-0.89l-6.14-46.98l-6.82,0.89
					l-1.87-14.29L480.47,430.2z"/>
				<path fill="#B52126" d="M495.77,505.15l-1.85-14.18l4.55-0.59l-3.38-25.87l-4.55,0.59l-1.84-14.07l23.06-3.01l3.37,6.39
					c3.02-5.57,7.53-9.79,14.35-10.68c16.78-2.19,21.22,9.89,22.7,21.25l2.36,18.08l5.09-0.67l1.85,14.18l-27.28,3.56l-3.86-29.55
					c-0.48-3.68-0.99-10.11-7.38-9.27c-5.52,0.72-6.11,6.3-5.5,10.96l2.01,15.37l7.79-1.02l1.85,14.18L495.77,505.15z"/>
				<path fill="#B52126" d="M589.18,424.7l-1.84-14.07l26.95-3.52l8.77,67.11l5.2-0.68l1.84,14.07l-25.33,3.31l-2.36-3.76
					c-1.24,1.48-5.52,5.78-12.99,6.76c-15.26,1.99-26.88-10.25-28.84-25.29c-2.21-16.89,8.19-29.14,21.51-30.88
					c7.69-1,11.95,1.3,14.18,2.33l-2.09-16.02L589.18,424.7z M593.37,477.87c4.22-0.55,7.43-6.36,5.88-14.86
					c-0.96-7.36-5.38-12.51-9.49-11.97c-4.55,0.6-6.99,6.31-5.92,14.54C584.69,472.07,588.61,478.49,593.37,477.87z"/>
			</g>
			<g>
				<path fill="#B5B5B6" d="M113.16,568.5c0.6,0.28,1.31,0.8,2.13,1.58l-1.24-9.43l3.01-0.4l3.37,25.69l-2.82,0.37l-0.34-2.6
					c-0.58,1.25-1.33,2.19-2.26,2.83c-0.93,0.64-2.04,1.05-3.32,1.22c-2.07,0.27-3.98-0.37-5.73-1.92
					c-1.75-1.55-2.81-3.78-3.19-6.68c-0.36-2.72,0.03-5.17,1.15-7.34s2.97-3.43,5.54-3.77C110.89,567.88,112.12,568.02,113.16,568.5
					z M107.99,583.41c1.02,1.24,2.46,1.73,4.32,1.49c1.45-0.19,2.55-0.97,3.32-2.34c0.77-1.37,1-3.22,0.69-5.56
					c-0.31-2.36-1.02-4.04-2.13-5.05c-1.11-1.01-2.37-1.42-3.78-1.23c-1.57,0.21-2.77,0.98-3.59,2.31
					c-0.82,1.34-1.07,3.18-0.77,5.52C106.33,580.56,106.97,582.18,107.99,583.41z"/>
				<path fill="#B5B5B6" d="M149.41,563.69c1.32,0.46,2.36,1.14,3.14,2.04c0.75,0.86,1.31,1.9,1.68,3.13
					c0.3,0.84,0.57,2.2,0.82,4.08l-13.58,1.78c0.31,1.89,0.95,3.36,1.93,4.4c0.98,1.04,2.34,1.44,4.08,1.22
					c1.62-0.21,2.85-0.93,3.68-2.14c0.46-0.7,0.75-1.48,0.87-2.34l3.09-0.4c0.01,0.7-0.16,1.49-0.51,2.4
					c-0.35,0.9-0.77,1.66-1.26,2.27c-0.82,1.05-1.91,1.83-3.26,2.34c-0.73,0.28-1.56,0.49-2.51,0.61c-2.31,0.3-4.38-0.28-6.2-1.77
					s-2.94-3.74-3.34-6.79c-0.39-3,0.1-5.54,1.47-7.62c1.37-2.08,3.36-3.29,5.97-3.64C146.77,563.08,148.09,563.23,149.41,563.69z
					 M151.49,570.87c-0.3-1.34-0.74-2.39-1.31-3.14c-1.05-1.4-2.57-1.97-4.57-1.71c-1.43,0.19-2.56,0.86-3.39,2.03
					c-0.83,1.17-1.17,2.56-1.02,4.17L151.49,570.87z"/>
				<path fill="#B5B5B6" d="M176.34,572.66c0.23,1.03,0.6,1.8,1.12,2.3c0.94,0.91,2.4,1.23,4.4,0.97c1.19-0.16,2.2-0.54,3.03-1.17
					c0.84-0.62,1.18-1.46,1.04-2.52c-0.1-0.8-0.54-1.36-1.32-1.69c-0.49-0.2-1.44-0.37-2.84-0.53l-2.62-0.29
					c-1.67-0.18-2.92-0.47-3.75-0.85c-1.48-0.67-2.32-1.75-2.52-3.25c-0.23-1.77,0.23-3.28,1.37-4.54c1.15-1.26,2.81-2.03,4.99-2.32
					c2.85-0.37,5.01,0.18,6.49,1.67c0.93,0.94,1.46,2.02,1.59,3.23l-2.96,0.39c-0.15-0.7-0.49-1.3-1.02-1.82
					c-0.85-0.72-2.18-0.97-4-0.73c-1.21,0.16-2.1,0.51-2.67,1.04c-0.56,0.53-0.8,1.17-0.7,1.91c0.1,0.81,0.6,1.4,1.49,1.78
					c0.51,0.23,1.24,0.39,2.2,0.49l2.18,0.23c2.37,0.24,3.98,0.57,4.82,0.98c1.32,0.64,2.1,1.82,2.33,3.54
					c0.22,1.66-0.23,3.18-1.35,4.56c-1.12,1.38-2.98,2.23-5.6,2.58c-2.81,0.37-4.88,0-6.22-1.11c-1.34-1.11-2.17-2.59-2.49-4.43
					L176.34,572.66z"/>
				<path fill="#B5B5B6" d="M204.87,548.84l3.19-0.42l0.47,3.56l-3.19,0.42L204.87,548.84z M205.79,555.86l3.19-0.42l2.44,18.58
					l-3.19,0.42L205.79,555.86z"/>
				<path fill="#B5B5B6" d="M239.32,552.14c0.64,0.33,1.32,0.84,2.04,1.54l-0.31-2.35l2.89-0.38l2.23,16.98
					c0.31,2.37,0.21,4.29-0.31,5.75c-0.96,2.7-3.25,4.29-6.85,4.76c-2,0.26-3.75,0.03-5.23-0.69c-1.48-0.72-2.43-2.03-2.85-3.93
					l3.19-0.42c0.26,0.82,0.65,1.42,1.15,1.82c0.8,0.6,1.95,0.81,3.46,0.61c2.39-0.31,3.85-1.37,4.36-3.16
					c0.31-1.06,0.28-2.87-0.1-5.43c-0.5,1.03-1.16,1.84-1.98,2.42s-1.95,0.97-3.4,1.15c-2.01,0.27-3.87-0.22-5.57-1.46
					c-1.7-1.24-2.76-3.51-3.2-6.82c-0.41-3.13,0.03-5.67,1.32-7.62c1.29-1.95,3.01-3.07,5.17-3.35
					C236.82,551.37,238.14,551.56,239.32,552.14z M240.15,555.45c-1.1-0.99-2.38-1.39-3.84-1.2c-2.2,0.29-3.56,1.52-4.1,3.69
					c-0.28,1.16-0.31,2.64-0.07,4.42c0.28,2.1,0.91,3.65,1.9,4.64c0.99,0.99,2.21,1.39,3.64,1.2c2.24-0.29,3.69-1.52,4.33-3.67
					c0.36-1.22,0.44-2.59,0.23-4.13C241.94,558.09,241.24,556.44,240.15,555.45z"/>
				<path fill="#B5B5B6" d="M263.83,548.16l2.98-0.39l0.35,2.65c0.74-1.21,1.57-2.12,2.5-2.72c0.92-0.6,1.99-0.99,3.2-1.15
					c2.65-0.35,4.56,0.34,5.73,2.07c0.64,0.94,1.09,2.36,1.34,4.24l1.57,11.97l-3.19,0.42l-1.54-11.76
					c-0.15-1.14-0.44-2.03-0.87-2.69c-0.71-1.09-1.8-1.54-3.26-1.35c-0.74,0.1-1.34,0.25-1.8,0.47c-0.83,0.37-1.52,0.98-2.07,1.83
					c-0.44,0.68-0.7,1.37-0.77,2.04c-0.07,0.68-0.02,1.62,0.13,2.85l1.28,9.78l-3.14,0.41L263.83,548.16z"/>
				<path fill="#B5B5B6" d="M336.33,539.67c1.45,0.85,2.48,2.51,3.07,4.97l-3.05,0.4c-0.34-1.13-0.89-2.03-1.65-2.7
					c-0.76-0.67-1.88-0.91-3.34-0.72c-2,0.26-3.3,1.43-3.9,3.49c-0.39,1.34-0.47,2.94-0.22,4.79c0.24,1.87,0.85,3.39,1.8,4.56
					c0.96,1.17,2.28,1.65,3.98,1.42c1.3-0.17,2.28-0.7,2.94-1.59s1.04-2.05,1.15-3.46l3.05-0.4c-0.02,2.52-0.66,4.45-1.9,5.77
					c-1.24,1.33-2.95,2.13-5.13,2.42c-2.44,0.32-4.5-0.32-6.19-1.91c-1.69-1.59-2.7-3.73-3.05-6.4c-0.43-3.28,0.03-5.93,1.39-7.97
					s3.26-3.21,5.73-3.53C333.1,538.53,334.88,538.82,336.33,539.67z"/>
				<path fill="#B5B5B6" d="M370.62,536.06c1.86,1.39,2.99,3.63,3.4,6.74c0.39,3.01-0.01,5.59-1.2,7.74
					c-1.2,2.15-3.32,3.43-6.38,3.83c-2.55,0.34-4.69-0.27-6.42-1.81c-1.73-1.54-2.78-3.77-3.17-6.7c-0.41-3.14,0.05-5.73,1.39-7.8
					c1.34-2.06,3.34-3.27,6-3.62C366.64,534.14,368.76,534.67,370.62,536.06z M370.3,548.72c0.56-1.67,0.71-3.47,0.46-5.4
					c-0.23-1.74-0.69-3.12-1.39-4.14c-1.1-1.6-2.72-2.27-4.85-1.98c-1.9,0.25-3.18,1.16-3.85,2.73c-0.67,1.58-0.87,3.4-0.6,5.46
					c0.26,1.98,0.91,3.58,1.94,4.79c1.04,1.21,2.49,1.69,4.36,1.45C368.43,551.36,369.74,550.39,370.3,548.72z"/>
				<path fill="#B5B5B6" d="M391.84,531.38l2.98-0.39l0.35,2.65c0.74-1.21,1.57-2.11,2.5-2.72c0.93-0.6,1.99-0.99,3.2-1.15
					c2.65-0.35,4.56,0.34,5.73,2.07c0.64,0.94,1.09,2.36,1.34,4.24l1.57,11.97l-3.19,0.42l-1.54-11.76
					c-0.15-1.14-0.44-2.03-0.87-2.69c-0.71-1.09-1.8-1.54-3.26-1.34c-0.74,0.1-1.35,0.25-1.8,0.47c-0.83,0.37-1.52,0.98-2.06,1.83
					c-0.44,0.68-0.7,1.37-0.77,2.04c-0.07,0.68-0.03,1.63,0.13,2.85l1.28,9.78l-3.14,0.41L391.84,531.38z"/>
				<path fill="#B5B5B6" d="M427.54,520.9c0.59-1.16,1.93-1.88,4.02-2.16c0.2-0.03,0.4-0.05,0.61-0.06
					c0.21-0.02,0.45-0.03,0.72-0.04l0.37,2.86c-0.33,0.02-0.57,0.04-0.72,0.05s-0.29,0.03-0.42,0.04c-0.96,0.13-1.51,0.45-1.63,0.97
					c-0.12,0.52-0.05,1.79,0.21,3.81l3.14-0.41l0.32,2.48l-3.14,0.41l2.11,16.1l-3.1,0.41l-2.11-16.1l-2.6,0.34l-0.32-2.47l2.6-0.34
					l-0.38-2.93C427.11,522.54,427.21,521.56,427.54,520.9z"/>
				<path fill="#B5B5B6" d="M463.47,522.51c1.32,0.46,2.36,1.14,3.14,2.04c0.75,0.86,1.31,1.9,1.68,3.13
					c0.3,0.84,0.57,2.2,0.82,4.08l-13.58,1.78c0.31,1.89,0.95,3.36,1.93,4.4c0.98,1.04,2.34,1.44,4.08,1.22
					c1.63-0.21,2.85-0.93,3.68-2.14c0.46-0.7,0.75-1.48,0.86-2.34l3.08-0.4c0.01,0.7-0.16,1.49-0.51,2.4
					c-0.35,0.9-0.77,1.66-1.27,2.27c-0.82,1.05-1.91,1.83-3.27,2.34c-0.73,0.28-1.56,0.49-2.51,0.61c-2.31,0.3-4.38-0.29-6.2-1.77
					c-1.83-1.48-2.94-3.74-3.34-6.79c-0.39-3,0.1-5.54,1.47-7.62c1.37-2.08,3.36-3.29,5.97-3.64
					C460.84,521.91,462.15,522.05,463.47,522.51z M465.56,529.69c-0.3-1.34-0.74-2.39-1.31-3.14c-1.05-1.4-2.57-1.97-4.57-1.71
					c-1.43,0.19-2.56,0.86-3.39,2.03c-0.83,1.17-1.17,2.56-1.02,4.17L465.56,529.69z"/>
				<path fill="#B5B5B6" d="M486.95,518.91l2.98-0.39l0.42,3.22c0.16-0.66,0.66-1.5,1.49-2.53c0.83-1.02,1.87-1.62,3.12-1.78
					c0.06-0.01,0.16-0.02,0.3-0.02c0.14-0.01,0.38-0.02,0.72-0.02l0.43,3.31c-0.19-0.01-0.36-0.01-0.52,0s-0.33,0.03-0.52,0.05
					c-1.58,0.21-2.73,0.87-3.44,2c-0.71,1.13-0.99,2.35-0.81,3.68l1.41,10.73l-3.14,0.41L486.95,518.91z"/>
				<path fill="#B5B5B6" d="M525.48,514.38c1.32,0.46,2.36,1.14,3.14,2.04c0.75,0.86,1.31,1.9,1.68,3.13
					c0.3,0.84,0.57,2.2,0.82,4.08l-13.58,1.78c0.31,1.89,0.95,3.36,1.93,4.4c0.98,1.04,2.34,1.44,4.08,1.22
					c1.62-0.21,2.85-0.93,3.68-2.14c0.46-0.7,0.75-1.48,0.87-2.34l3.09-0.4c0.01,0.7-0.16,1.49-0.51,2.4
					c-0.35,0.9-0.77,1.66-1.27,2.27c-0.82,1.05-1.91,1.83-3.27,2.34c-0.73,0.28-1.56,0.49-2.51,0.61c-2.31,0.3-4.38-0.29-6.2-1.77
					s-2.94-3.74-3.34-6.79c-0.39-3,0.1-5.54,1.47-7.62c1.37-2.08,3.36-3.29,5.97-3.64C522.85,513.78,524.16,513.92,525.48,514.38z
					 M527.56,521.56c-0.3-1.34-0.74-2.39-1.31-3.14c-1.05-1.4-2.57-1.97-4.57-1.71c-1.43,0.19-2.56,0.86-3.39,2.03
					c-0.83,1.17-1.17,2.56-1.02,4.17L527.56,521.56z"/>
				<path fill="#B5B5B6" d="M548.87,510.79l2.98-0.39l0.35,2.65c0.74-1.21,1.57-2.11,2.5-2.72c0.93-0.61,1.99-0.99,3.2-1.15
					c2.65-0.35,4.56,0.34,5.73,2.07c0.65,0.94,1.09,2.36,1.34,4.24l1.57,11.97l-3.19,0.42l-1.54-11.76
					c-0.15-1.14-0.44-2.03-0.87-2.69c-0.71-1.09-1.8-1.54-3.26-1.35c-0.74,0.1-1.34,0.25-1.8,0.47c-0.83,0.37-1.52,0.98-2.07,1.83
					c-0.44,0.68-0.7,1.37-0.77,2.04c-0.07,0.68-0.03,1.62,0.13,2.85l1.28,9.78l-3.14,0.41L548.87,510.79z"/>
				<path fill="#B5B5B6" d="M596.32,505.58c1.45,0.85,2.48,2.51,3.07,4.97l-3.05,0.4c-0.34-1.13-0.89-2.03-1.65-2.7
					s-1.88-0.92-3.34-0.72c-2,0.26-3.3,1.42-3.9,3.49c-0.39,1.34-0.47,2.94-0.22,4.79c0.24,1.87,0.85,3.39,1.8,4.56
					c0.96,1.17,2.28,1.65,3.98,1.42c1.3-0.17,2.28-0.7,2.94-1.59c0.66-0.89,1.04-2.05,1.15-3.46l3.05-0.4
					c-0.02,2.52-0.66,4.45-1.9,5.77c-1.24,1.33-2.95,2.13-5.13,2.42c-2.44,0.32-4.5-0.32-6.19-1.91c-1.69-1.59-2.7-3.73-3.05-6.4
					c-0.43-3.28,0.03-5.93,1.39-7.96c1.35-2.03,3.26-3.21,5.72-3.53C593.09,504.45,594.86,504.73,596.32,505.58z"/>
				<path fill="#B5B5B6" d="M628.43,500.89c1.32,0.46,2.36,1.14,3.14,2.04c0.75,0.86,1.31,1.9,1.68,3.13
					c0.3,0.84,0.57,2.19,0.82,4.08l-13.58,1.78c0.31,1.89,0.95,3.36,1.93,4.4c0.98,1.04,2.34,1.44,4.08,1.22
					c1.63-0.21,2.85-0.93,3.68-2.14c0.46-0.7,0.75-1.48,0.86-2.34l3.09-0.4c0.01,0.7-0.16,1.49-0.51,2.4
					c-0.35,0.9-0.77,1.66-1.27,2.27c-0.82,1.05-1.91,1.84-3.27,2.34c-0.72,0.28-1.56,0.49-2.51,0.61c-2.31,0.3-4.38-0.29-6.2-1.77
					c-1.83-1.48-2.94-3.74-3.34-6.79c-0.39-3,0.1-5.54,1.47-7.62c1.37-2.08,3.36-3.3,5.97-3.64
					C625.8,500.28,627.12,500.43,628.43,500.89z M630.52,508.07c-0.31-1.34-0.74-2.39-1.31-3.14c-1.05-1.4-2.57-1.97-4.57-1.71
					c-1.43,0.19-2.56,0.86-3.39,2.03c-0.83,1.17-1.17,2.56-1.02,4.17L630.52,508.07z"/>
			</g>
		</g>
		<polygon fill="none" stroke="#BCBCBC" stroke-width="0.3788" points="670.24,541.47 83.09,624.46 61.56,472.11 648.72,389.12 		
			"/>
	</g>
	<g>
		<path fill="#E9C09B" d="M441.82,602.36c-0.7,0.58-1.79,0.52-2.42-0.14l-7.5-7.83c-0.63-0.66-1.88-1.09-2.78-0.96l-16.74,2.4
			c-0.9,0.13-1.78-0.5-1.96-1.39l-1.82-9.33c-0.17-0.89,0.43-1.63,1.34-1.64l18.18-0.22c0.91-0.01,1.16-0.58,0.56-1.26l-17.83-20.29
			c-0.6-0.68-0.55-1.76,0.1-2.39l7.31-7.01c0.66-0.63,1.66-0.57,2.24,0.14l17.03,21c0.57,0.71,0.89,0.56,0.71-0.34l-4.36-21.06
			c-0.18-0.89,0.37-1.86,1.23-2.15l7-2.38c0.86-0.29,1.74,0.19,1.95,1.08l7.02,29.52c0.21,0.89,0.88,1.06,1.49,0.38l7.6-8.46
			c0.61-0.68,1.67-0.74,2.35-0.14l7.68,6.73c0.68,0.6,0.67,1.57-0.03,2.15L441.82,602.36z"/>
	</g>
	<g>
		<path fill="#E9C09B" d="M249.48,630.02c0.88,0.25,1.85-0.25,2.15-1.1l3.69-10.2c0.31-0.85,1.28-1.76,2.16-2l16.28-4.58
			c0.88-0.25,1.43-1.17,1.23-2.06l-2.11-9.27c-0.2-0.89-1.05-1.32-1.89-0.96L254.29,607c-0.84,0.36-1.3-0.06-1.02-0.93l8.1-25.78
			c0.27-0.87-0.2-1.83-1.06-2.14l-9.51-3.45c-0.86-0.31-1.75,0.16-1.99,1.03l-7.1,26.1c-0.24,0.88-0.59,0.87-0.78-0.02l-4.53-21.03
			c-0.19-0.89-1.09-1.55-2-1.47l-7.36,0.66c-0.91,0.08-1.51,0.88-1.35,1.77l5.52,29.83c0.17,0.9-0.38,1.32-1.21,0.95l-10.37-4.66
			c-0.83-0.37-1.82,0-2.21,0.82l-4.3,9.26c-0.38,0.83,0.02,1.71,0.89,1.96L249.48,630.02z"/>
	</g>
	<g>
		<path fill="#E8BF9B" d="M429.08,186.66c0,0,11.01-26.82,34.09-10.94c28.78,19.82-15.88,40.86-15.88,40.86s-14.12,6.86-6.82,22.13
			c7.31,15.26,8.02,21.09,2.75,23.72c-5.27,2.62-17.21-1.23-18.81-10.69C417.51,210.85,429.08,186.66,429.08,186.66z"/>
		<g>
			<path fill="#D09D78" d="M430.36,215.1c0,0,16.82-53.98,21.17-13.22C451.53,201.88,444.8,179.63,430.36,215.1z"/>
			<path fill="#D09D78" d="M430.22,215.26c0,0,12.97-27.28,10.35,6.47C440.57,221.73,440.15,200.26,430.22,215.26z"/>
		</g>
		<g>
			<path fill="#E8BF9B" d="M430.74,226.12c-0.7,8.17-0.3,21.5,0.89,29.62l16.45,112.51c1.19,8.12-4.24,16.79-12.06,19.26
				l-99.36,31.47c-7.82,2.48-20.48,2.08-28.13-0.89l-52.65-20.41c-7.65-2.96-15.49-11.91-17.43-19.89l-32.96-135.76
				c-1.94-7.97-2.81-21.17-1.95-29.33l11.93-112.98c0.86-8.16,7.15-18.55,13.98-23.1l42.24-28.13c6.83-4.55,18.85-6.37,26.72-4.05
				l108.27,31.9c7.87,2.32,19.24,4.86,25.26,5.66c6.03,0.79,10.39,8.13,9.69,16.3L430.74,226.12z"/>
		</g>
		<path fill="#D09F78" d="M322.43,272.53c0,0,25.79,20.43,67.43,0C389.86,272.53,356.14,325.63,322.43,272.53z"/>
		<g>
			<path fill="#CA8C84" d="M320.32,315.26c0,0-11.83,45.24,8.38,59.81c0,0-35.81,8.74-39.93,6.08c0,0-5.67-2.6-6.33-18.17
				c0,0,1.1-50.56,6.34-65.57C288.78,297.4,312.61,315.81,320.32,315.26z"/>
			<path fill="#6C302A" d="M310.03,378.56c0,0-13.18-43.37-27.02-32.79c0,0-2.85,38.14,9.58,36.08L310.03,378.56z"/>
			<path fill="#FFFFFF" d="M354.39,369.96l-4.85-17.15l-64.71,23.36c0,0,1.65,7.25,9.69,6.3L354.39,369.96z"/>
			<path fill="#A47F5F" d="M303.34,286.77c0,0-24.1-6.73-27.59,22.16C275.75,308.93,281.13,288.8,303.34,286.77z"/>
			<path fill="#FFFFFF" d="M390.81,315.69l4.28,16.79c0,0-62.88,34.26-109.5-18.43l3.19-16.64
				C288.78,297.4,344.72,345.21,390.81,315.69z"/>
			<path fill="none" stroke="#A47F5F" stroke-width="0.5154" d="M353.1,382.16c15.49,1.58,5.5-13.23,5.5-13.23
				s-45.35,10.45-66.02,12.93c-20.7,2.47-3.8-84.46-3.8-84.46c61.46,43.2,96.45,28.12,115.44,5.97"/>
			<polygon fill="#CA8C84" points="285.42,342.79 286.81,354.41 284.32,355.12 284.75,357.84 293.55,356.15 292.6,352.25 
				289.42,352.44 288.77,344.45 			"/>
		</g>
		<path fill="#D09F78" d="M214.77,280.14c0,0,10.38-12.71,11.24-20.96c0,0,1.06,20.52-9.32,28.99L214.77,280.14z"/>
		<path fill="#D09F78" d="M338.17,230.91c0,0-44.54-62.49-80.25,7.16C257.92,238.07,307.51,297.45,338.17,230.91z"/>
		<path fill="#FFFFFF" d="M338.17,230.91c0,0-39.67-43.84-77.66,6.08C260.51,236.99,293.61,267.34,338.17,230.91z"/>
		<g>
			<g>
				<defs>
					<path id="SVGID_1_" d="M337.59,231.14c0,0-48.28-53.37-94.52,7.4C243.07,238.55,283.36,275.48,337.59,231.14z"/>
				</defs>
				<clipPath id="SVGID_2_">
					<use xlink:href="#SVGID_1_"  overflow="visible"/>
				</clipPath>
				<path clip-path="url(#SVGID_2_)" fill="#008BC1" d="M316.51,234.67c-2.02-7.49,2.12-15.27,9.25-17.39
					c7.11-2.12,14.51,2.24,16.52,9.73c2.01,7.49-2.13,15.27-9.24,17.39C325.91,246.52,318.51,242.16,316.51,234.67z"/>
			</g>
			<g>
				<defs>
					<path id="SVGID_3_" d="M337.59,231.14c0,0-48.28-53.37-94.52,7.4C243.07,238.55,283.36,275.48,337.59,231.14z"/>
				</defs>
				<clipPath id="SVGID_4_">
					<use xlink:href="#SVGID_3_"  overflow="visible"/>
				</clipPath>
				<path clip-path="url(#SVGID_4_)" fill="#231F20" d="M323.93,232.47c-0.86-3.18,0.89-6.47,3.92-7.37
					c3.02-0.9,6.15,0.95,7.01,4.12c0.85,3.18-0.9,6.47-3.92,7.37C327.92,237.49,324.78,235.64,323.93,232.47z"/>
			</g>
			<g>
				<defs>
					<path id="SVGID_5_" d="M337.59,231.14c0,0-48.28-53.37-94.52,7.4C243.07,238.55,283.36,275.48,337.59,231.14z"/>
				</defs>
				<clipPath id="SVGID_6_">
					<use xlink:href="#SVGID_5_"  overflow="visible"/>
				</clipPath>
				<path clip-path="url(#SVGID_6_)" fill="#FFFFFF" d="M320.67,228.52c-0.47-1.74,0.49-3.55,2.15-4.05
					c1.65-0.49,3.38,0.52,3.84,2.26c0.47,1.75-0.49,3.55-2.15,4.05C322.85,231.28,321.13,230.27,320.67,228.52z"/>
			</g>
		</g>
		<path fill="#D09F78" d="M427.95,224.6c0,0-37.64-52.82-67.84,6.05C360.11,230.65,402.03,280.84,427.95,224.6z"/>
		<path fill="#FFFFFF" d="M427.95,224.6c0,0-33.53-37.06-65.64,5.14C362.3,229.74,390.29,255.38,427.95,224.6z"/>
		<path fill="#3B2518" d="M245.39,210.28l-4.94-12.62c0,0,44.34-44.77,89.87-3.15l-1.76,1.89
			C328.56,196.39,275.95,173.07,245.39,210.28z"/>
		<path fill="#3B2518" d="M432.39,203.03l4.82-13.12c0,0-42.42-35.01-78.72,5.52l0.47,1.56
			C358.97,196.99,402.62,173.36,432.39,203.03z"/>
		<g>
			<g>
				<defs>
					<path id="SVGID_7_" d="M429.41,225.23c0,0-39.72-43.9-77.77,6.09C351.64,231.33,384.79,261.71,429.41,225.23z"/>
				</defs>
				<clipPath id="SVGID_8_">
					<use xlink:href="#SVGID_7_"  overflow="visible"/>
				</clipPath>
				<path clip-path="url(#SVGID_8_)" fill="#008BC0" d="M409.05,227.8c-1.67-6.16,1.74-12.56,7.6-14.31
					c5.85-1.74,11.93,1.85,13.59,8.01c1.65,6.17-1.75,12.57-7.61,14.31C416.79,237.55,410.7,233.97,409.05,227.8z"/>
			</g>
			<g>
				<defs>
					<path id="SVGID_9_" d="M429.41,225.23c0,0-39.72-43.9-77.77,6.09C351.64,231.33,384.79,261.71,429.41,225.23z"/>
				</defs>
				<clipPath id="SVGID_10_">
					<use xlink:href="#SVGID_9_"  overflow="visible"/>
				</clipPath>
				<path clip-path="url(#SVGID_10_)" fill="#231F20" d="M421.19,225.99c-0.7-2.61,0.74-5.32,3.23-6.06
					c2.48-0.74,5.05,0.78,5.76,3.39c0.7,2.62-0.74,5.33-3.23,6.07C424.48,230.12,421.9,228.6,421.19,225.99z"/>
			</g>
			<g>
				<defs>
					<path id="SVGID_11_" d="M429.41,225.23c0,0-39.72-43.9-77.77,6.09C351.64,231.33,384.79,261.71,429.41,225.23z"/>
				</defs>
				<clipPath id="SVGID_12_">
					<use xlink:href="#SVGID_11_"  overflow="visible"/>
				</clipPath>
				<path clip-path="url(#SVGID_12_)" fill="#FFFFFF" d="M418.51,222.74c-0.39-1.43,0.41-2.92,1.77-3.33
					c1.36-0.41,2.77,0.43,3.16,1.86c0.38,1.44-0.41,2.93-1.77,3.33C420.31,225.02,418.9,224.18,418.51,222.74z"/>
			</g>
		</g>
		<path fill="#3B2518" d="M214.77,280.14l8.26-1.35l3.68-148.96l202.27-28.97l5.12,85.9c0,0,3.36-111.16,38.86-177.99
			c0,0-41.69,30.95-73.38,47.12L374.58,0.81l-15.36,28.3L337.65,11.4l-16.84,18.72c0,0-24.21-16.66-68.18-5.35
			c0,0,8.65,7.37,13.45,10.4c0,0-66.25,6.06-83.53,41.43c0,0,9.6-9.1,19.2-9.1c0,0-25.92,61.65-6.72,91.96
			c0,0,10.56,12.13,10.56,23.24L214.77,280.14z"/>
		<polyline opacity="0.55" fill="#D09F78" enable-background="new    " points="227.72,152.17 428.99,100.86 226.72,129.83 
			227.72,153.88 		"/>
		<path fill="#E8BF9B" d="M208.23,183.08c0,0-15.96-38.85-49.39-15.84c-41.69,28.71,23.01,59.19,23.01,59.19s20.45,9.93,9.88,32.05
			c-10.6,22.11-11.62,30.55-3.99,34.36c7.64,3.79,24.93-1.78,27.25-15.49C224.98,218.13,208.23,183.08,208.23,183.08z"/>
		<g>
			<path fill="#D09D78" d="M206.37,224.28c0,0-24.36-78.19-30.67-19.14C175.7,205.14,185.45,172.89,206.37,224.28z"/>
			<path fill="#D09D78" d="M206.57,224.52c0,0-18.79-39.52-15,9.38C191.58,233.9,192.18,202.79,206.57,224.52z"/>
		</g>
	</g>
</g>
</svg>
