<?xml version="1.0" encoding="utf-8"?>
<!-- Generator: Adobe Illustrator 17.0.1, SVG Export Plug-In . SVG Version: 6.00 Build 0)  -->
<!DOCTYPE svg PUBLIC "-//W3C//DTD SVG 1.1//EN" "http://www.w3.org/Graphics/SVG/1.1/DTD/svg11.dtd">
<svg version="1.1" id="Layer_1" xmlns="http://www.w3.org/2000/svg" xmlns:xlink="http://www.w3.org/1999/xlink" x="0px" y="0px"
	 width="319.9px" height="71.4px" viewBox="0 0 319.9 71.4" enable-background="new 0 0 319.9 71.4" xml:space="preserve">
<path fill="#FFFFFF" d="M4.53,35.03c0-0.27,0.22-0.49,0.49-0.49h3.67c0.27,0,0.49-0.22,0.49-0.49V9.91c0-0.27-0.22-0.49-0.49-0.49
	H5.02c-0.27,0-0.49-0.22-0.49-0.49V0.49C4.53,0.22,4.75,0,5.02,0h32.89c0.27,0,0.49,0.22,0.49,0.49v13.2c0,0.27-0.22,0.49-0.49,0.49
	H27.88c-0.27,0-0.49-0.22-0.49-0.49v-2.2c0-0.27-0.22-0.49-0.49-0.49h-4.03c-0.27,0-0.49,0.22-0.49,0.49v6.23
	c0,0.27,0.22,0.49,0.49,0.49h10.88c0.27,0,0.49,0.22,0.49,0.49v9.23c0,0.27-0.22,0.49-0.49,0.49H22.87c-0.27,0-0.49,0.22-0.49,0.49
	v5.13c0,0.27,0.22,0.49,0.49,0.49h4.34c0.27,0,0.49,0.22,0.49,0.49v8.44c0,0.27-0.22,0.49-0.49,0.49H5.02
	c-0.27,0-0.49-0.22-0.49-0.49C4.53,43.46,4.53,35.03,4.53,35.03z"/>
<path fill="#FFFFFF" d="M40.17,35.4c0-0.27,0.22-0.49,0.49-0.49h3.12c0.27,0,0.49-0.22,0.49-0.49V23.11c0-0.27-0.08-0.7-0.17-0.95
	c0,0-0.32-0.88-1.18-0.88H40.9c-0.27,0-0.49-0.22-0.49-0.49v-8.07c0-0.27,0.22-0.49,0.49-0.49h10.4c0.27,0,0.7,0.05,0.97,0.12
	c0,0,4.23,1.04,4.23,4.1v1.04c0,0.27-0.02,0.71-0.04,0.98c0,0,0.02,0.48-0.02,0.61c-0.03,0.13-0.03,0.24,0,0.24s0.19-0.18,0.34-0.4
	c0,0,5.16-7.3,9.8-7.3c0.55,0,0.61,0.01,0.61,0.01c0.27,0.03,0.49,0.27,0.49,0.54v11.55c0,0.27-0.22,0.45-0.48,0.39
	c0,0-0.44-0.09-1.84-0.09c-5.56,0-8.31,2.38-8.31,7.95v2.44c0,0.27,0.22,0.49,0.49,0.49h3.12c0.27,0,0.49,0.22,0.49,0.49v8.07
	c0,0.27-0.22,0.49-0.49,0.49h-20c-0.27,0-0.49-0.22-0.49-0.49V35.4z"/>
<path fill="#FFFFFF" d="M86.7,11.49c10.27,0,18.46,6.6,18.46,16.75c0,10.03-8.19,16.45-18.4,16.45s-18.4-6.42-18.4-16.45
	C68.36,18.1,76.55,11.49,86.7,11.49z M86.76,34.18c2.93,0,5.5-2.02,5.5-5.93c0-3.97-2.57-6.24-5.5-6.24s-5.5,2.26-5.5,6.24
	C81.26,32.16,83.82,34.18,86.76,34.18z"/>
<path fill="#FFFFFF" d="M123.56,34.42c0,0.27,0.22,0.49,0.49,0.49h2.57c0.27,0,0.49,0.22,0.49,0.49v8.07c0,0.27-0.22,0.49-0.49,0.49
	h-18.89c-0.27,0-0.49-0.22-0.49-0.49V35.4c0-0.27,0.22-0.49,0.49-0.49h2.57c0.27,0,0.49-0.22,0.49-0.49V23.11
	c0-0.27-0.08-0.7-0.17-0.95c0,0-0.32-0.88-1.18-0.88h-2.02c-0.27,0-0.49-0.22-0.49-0.49v-8.07c0-0.27,0.22-0.49,0.49-0.49h10.45
	c0.27,0,0.7,0.07,0.96,0.15c0,0,4.12,1.32,4.12,3.58c0,0.98-0.03,1.11-0.03,1.11c-0.05,0.26-0.07,0.48-0.03,0.48s0.14-0.2,0.24-0.45
	c0,0,2.26-5.6,10.09-5.6c5.32,0,10.7,2.45,10.7,11.74v11.19c0,0.27,0.22,0.49,0.49,0.49h2.57c0.27,0,0.49,0.22,0.49,0.49v8.07
	c0,0.27-0.22,0.49-0.49,0.49h-15.34c-0.27,0-0.49-0.22-0.49-0.49V26.35c0-0.27-0.06-0.7-0.13-0.96c0,0-0.66-2.4-2.31-2.4
	c-3.85,0-5.05,6.79-5.05,6.79c-0.05,0.27-0.09,0.7-0.09,0.97v3.67H123.56z"/>
<path fill="#FFFFFF" d="M152,21.77c0-0.27-0.22-0.49-0.49-0.49h-2.87c-0.27,0-0.49-0.22-0.49-0.49v-8.07c0-0.27,0.22-0.49,0.49-0.49
	h3.3c0.27,0,0.49-0.22,0.49-0.49V4.22c0-0.27,0.22-0.49,0.49-0.49h11.37c0.27,0,0.49,0.22,0.49,0.49v7.52
	c0,0.27,0.22,0.49,0.49,0.49h5.26c0.27,0,0.49,0.22,0.49,0.49v8.07c0,0.27-0.22,0.49-0.49,0.49h-5.26c-0.27,0-0.49,0.22-0.49,0.49
	v8.56c0,0.27,0.16,0.64,0.36,0.82c0,0,2.94,2.72,4.84,2.72c0.86,0,0.92,0,0.92,0c0.27,0,0.49,0.22,0.49,0.49v9.23
	c0,0.27-0.22,0.52-0.49,0.56c0,0-0.86,0.12-2.76,0.12c-5.5,0-15.82-11.68-15.82-11.68c-0.18-0.2-0.32-0.59-0.32-0.86V21.77z"/>
<path fill="#FFFFFF" d="M176.76,19.8c0-0.54,0.44-0.98,0.98-0.98h17.91c0.54,0,0.98,0.44,0.98,0.98v7.16c0,0.54-0.44,0.98-0.98,0.98
	h-17.91c-0.54,0-0.98-0.44-0.98-0.98V19.8z"/>
<path fill="#FFFFFF" d="M198.64,35.03c0-0.27,0.22-0.49,0.49-0.49h3.67c0.27,0,0.49-0.22,0.49-0.49V9.91c0-0.27-0.22-0.49-0.49-0.49
	h-3.67c-0.27,0-0.49-0.22-0.49-0.49V0.49c0-0.27,0.22-0.49,0.49-0.49H233c0.27,0,0.49,0.22,0.49,0.49v13.27
	c0,0.27-0.22,0.49-0.49,0.49h-10.02c-0.27,0-0.49-0.22-0.49-0.49V10.7c0-0.27-0.22-0.49-0.49-0.49h-5.01
	c-0.27,0-0.49,0.22-0.49,0.49v5.5c0,0.27,0.22,0.49,0.49,0.49h10.64c0.27,0,0.49,0.22,0.49,0.49v9.29c0,0.27-0.22,0.49-0.49,0.49
	h-10.64c-0.27,0-0.49,0.22-0.49,0.49v5.81c0,0.27,0.22,0.49,0.49,0.49h5.62c0.27,0,0.49-0.22,0.49-0.49v-2.93
	c0-0.27,0.22-0.49,0.49-0.49h10.02c0.27,0,0.49,0.22,0.49,0.49v13.14c0,0.27-0.22,0.49-0.49,0.49h-34.48
	c-0.27,0-0.49-0.22-0.49-0.49V35.03z"/>
<path fill="#FFFFFF" d="M254.16,34.42c0,0.27,0.22,0.49,0.49,0.49h2.57c0.27,0,0.49,0.22,0.49,0.49v8.07c0,0.27-0.22,0.49-0.49,0.49
	h-18.89c-0.27,0-0.49-0.22-0.49-0.49V35.4c0-0.27,0.22-0.49,0.49-0.49h2.57c0.27,0,0.49-0.22,0.49-0.49V23.11
	c0-0.27-0.08-0.7-0.17-0.95c0,0-0.32-0.88-1.18-0.88h-2.02c-0.27,0-0.49-0.22-0.49-0.49v-8.07c0-0.27,0.22-0.49,0.49-0.49h10.45
	c0.27,0,0.7,0.07,0.96,0.15c0,0,4.12,1.32,4.12,3.58c0,0.98-0.03,1.11-0.03,1.11c-0.05,0.26-0.07,0.48-0.04,0.48
	c0.03,0,0.14-0.2,0.24-0.45c0,0,2.26-5.6,10.09-5.6c5.32,0,10.7,2.45,10.7,11.74v11.19c0,0.27,0.22,0.49,0.49,0.49h2.57
	c0.27,0,0.49,0.22,0.49,0.49v8.07c0,0.27-0.22,0.49-0.49,0.49h-15.34c-0.27,0-0.49-0.22-0.49-0.49V26.35c0-0.27-0.06-0.7-0.13-0.96
	c0,0-0.66-2.4-2.32-2.4c-3.85,0-5.05,6.79-5.05,6.79c-0.05,0.27-0.09,0.7-0.09,0.97v3.67H254.16z"/>
<path fill="#FFFFFF" d="M294.27,11.49c5.26,0,6.99,2.36,6.99,2.36c0.16,0.22,0.32,0.4,0.35,0.4s0.03-0.22-0.01-0.48
	c0,0-0.05-0.31-0.05-1.41V9.54c0-0.27-0.22-0.49-0.49-0.49h-2.87c-0.27,0-0.49-0.22-0.49-0.49V0.49c0-0.27,0.22-0.49,0.49-0.49
	h15.65c0.27,0,0.49,0.22,0.49,0.49v32.58c0,0.27,0.08,0.7,0.17,0.95c0,0,0.32,0.88,1.18,0.88h1.47c0.27,0,0.49,0.22,0.49,0.49v8.07
	c0,0.27-0.22,0.49-0.49,0.49h-9.54c-0.27,0-0.69-0.09-0.94-0.19c0,0-3.95-1.7-3.95-2.99c0-0.8,0.03-0.93,0.03-0.93
	c0.05-0.26,0.07-0.48,0.04-0.48s-0.15,0.2-0.26,0.45c0,0-2.13,4.87-9.16,4.87c-8.44,0-14.06-6.73-14.06-16.63
	C279.29,17.98,285.16,11.49,294.27,11.49z M296.96,34.24c2.51,0,4.95-1.9,4.95-5.93c0-3.3-1.59-6.18-4.83-6.18
	c-2.69,0-5.01,2.08-5.01,5.99C292.07,31.73,294.08,34.24,296.96,34.24z"/>
<g>
	<path fill="#FFFFFF" d="M10.697,66.974H4.604V49.426h6.092c5.515,0,9.326,3.785,9.326,8.749S16.212,66.974,10.697,66.974z
		 M10.697,51.256H6.585v13.889h4.112c4.437,0,7.27-3.009,7.27-6.919C17.967,54.314,15.134,51.256,10.697,51.256z"/>
	<path fill="#FFFFFF" d="M28.598,65.596c1.78,0,3.034-0.727,4.086-1.83l1.203,1.078c-1.303,1.454-2.883,2.432-5.34,2.432
		c-3.56,0-6.468-2.732-6.468-6.769c0-3.761,2.632-6.77,6.217-6.77c3.835,0,6.042,3.059,6.042,6.869c0,0.176,0,0.376-0.025,0.602
		H24.035C24.311,64.016,26.317,65.596,28.598,65.596z M32.384,59.779c-0.201-2.356-1.554-4.412-4.137-4.412
		c-2.256,0-3.961,1.88-4.212,4.412H32.384z"/>
	<path fill="#FFFFFF" d="M41.008,67.225c-1.855,0-3.911-0.728-5.365-1.905l0.978-1.379c1.404,1.053,2.958,1.654,4.488,1.654
		c1.554,0,2.682-0.802,2.682-2.056v-0.05c0-1.304-1.529-1.806-3.234-2.282c-2.031-0.576-4.287-1.278-4.287-3.66v-0.05
		c0-2.231,1.855-3.71,4.413-3.71c1.58,0,3.334,0.551,4.663,1.429l-0.877,1.454c-1.204-0.777-2.583-1.254-3.836-1.254
		c-1.529,0-2.507,0.803-2.507,1.881v0.05c0,1.229,1.604,1.705,3.334,2.231c2.005,0.602,4.162,1.379,4.162,3.71v0.051
		C45.621,65.796,43.591,67.225,41.008,67.225z"/>
	<path fill="#FFFFFF" d="M48.254,51.18V49.05h2.207v2.131H48.254z M48.38,66.974V54.013h1.93v12.961H48.38z"/>
	<path fill="#FFFFFF" d="M59.535,71.036c-2.156,0-4.162-0.602-5.891-1.806l0.877-1.504c1.479,1.078,3.133,1.655,4.989,1.655
		c2.858,0,4.713-1.58,4.713-4.613v-1.529c-1.128,1.504-2.708,2.732-5.089,2.732c-3.109,0-6.092-2.307-6.092-6.092
		c0-3.811,3.008-6.143,6.092-6.143c2.432,0,4.011,1.203,5.064,2.607v-2.331h1.931v10.705C66.129,68.905,63.522,71.036,59.535,71.036
		z M59.511,55.442c-2.457,0-4.488,1.68-4.488,4.388c0,2.657,2.081,4.437,4.488,4.437c2.457,0,4.763-1.755,4.763-4.412
		C64.274,57.172,61.968,55.442,59.511,55.442z"/>
	<path fill="#FFFFFF" d="M71.369,66.974h-1.93V54.013h1.93v2.256c0.853-1.404,2.206-2.532,4.438-2.532
		c3.134,0,4.964,2.106,4.964,5.189v8.048H78.84v-7.571c0-2.406-1.303-3.911-3.585-3.911c-2.231,0-3.886,1.63-3.886,4.062V66.974z"/>
	<path fill="#FFFFFF" d="M98.747,67.275c-5.064,0-8.8-3.986-8.8-9.05c0-5.015,3.71-9.101,8.875-9.101
		c3.184,0,5.089,1.128,6.844,2.782l-1.354,1.454c-1.479-1.403-3.134-2.406-5.515-2.406c-3.886,0-6.794,3.134-6.794,7.22
		c0,4.087,2.933,7.271,6.794,7.271c2.407,0,3.986-0.928,5.666-2.532l1.304,1.278C103.937,66.047,101.931,67.275,98.747,67.275z"/>
	<path fill="#FFFFFF" d="M113.565,67.275c-3.886,0-6.719-3.059-6.719-6.744c0-3.685,2.858-6.794,6.769-6.794
		c3.886,0,6.744,3.059,6.744,6.744S117.475,67.275,113.565,67.275z M113.565,55.442c-2.808,0-4.738,2.231-4.738,5.039
		s2.056,5.064,4.788,5.064c2.808,0,4.764-2.231,4.764-5.015C118.378,57.698,116.297,55.442,113.565,55.442z"/>
	<path fill="#FFFFFF" d="M124.772,66.974h-1.93V54.013h1.93v2.256c0.853-1.404,2.206-2.532,4.438-2.532
		c3.134,0,4.964,2.106,4.964,5.189v8.048h-1.931v-7.571c0-2.406-1.303-3.911-3.585-3.911c-2.231,0-3.886,1.63-3.886,4.062V66.974z"
		/>
	<path fill="#FFFFFF" d="M144.027,54.063v1.654h-4.086v11.257h-1.93V55.718h-1.78v-1.68h1.78V52.91c0-2.833,1.429-4.337,3.911-4.337
		c0.903,0,1.504,0.101,2.131,0.326v1.68c-0.702-0.201-1.228-0.326-1.88-0.326c-1.504,0-2.256,0.902-2.256,2.758v1.053H144.027z"/>
	<path fill="#FFFFFF" d="M150.946,65.596c1.78,0,3.034-0.727,4.086-1.83l1.203,1.078c-1.303,1.454-2.883,2.432-5.34,2.432
		c-3.56,0-6.468-2.732-6.468-6.769c0-3.761,2.632-6.77,6.217-6.77c3.835,0,6.042,3.059,6.042,6.869c0,0.176,0,0.376-0.025,0.602
		h-10.279C146.659,64.016,148.665,65.596,150.946,65.596z M154.732,59.779c-0.201-2.356-1.554-4.412-4.137-4.412
		c-2.256,0-3.961,1.88-4.212,4.412H154.732z"/>
	<path fill="#FFFFFF" d="M161.001,66.974h-1.931V54.013h1.931v3.384c0.952-2.155,2.832-3.71,5.289-3.609v2.08h-0.15
		c-2.833,0-5.139,2.031-5.139,5.942V66.974z"/>
	<path fill="#FFFFFF" d="M173.387,65.596c1.78,0,3.033-0.727,4.086-1.83l1.204,1.078c-1.304,1.454-2.884,2.432-5.34,2.432
		c-3.561,0-6.469-2.732-6.469-6.769c0-3.761,2.633-6.77,6.218-6.77c3.836,0,6.042,3.059,6.042,6.869c0,0.176,0,0.376-0.025,0.602
		h-10.278C169.099,64.016,171.105,65.596,173.387,65.596z M177.172,59.779c-0.2-2.356-1.554-4.412-4.136-4.412
		c-2.257,0-3.962,1.88-4.212,4.412H177.172z"/>
	<path fill="#FFFFFF" d="M183.44,66.974h-1.931V54.013h1.931v2.256c0.852-1.404,2.206-2.532,4.437-2.532
		c3.134,0,4.964,2.106,4.964,5.189v8.048h-1.93v-7.571c0-2.406-1.304-3.911-3.585-3.911c-2.231,0-3.886,1.63-3.886,4.062V66.974z"/>
	<path fill="#FFFFFF" d="M201.792,67.275c-3.785,0-6.644-3.084-6.644-6.744c0-3.685,2.858-6.794,6.644-6.794
		c2.457,0,3.986,1.028,5.189,2.307l-1.278,1.354c-1.027-1.078-2.181-1.955-3.936-1.955c-2.633,0-4.639,2.231-4.639,5.039
		c0,2.833,2.056,5.064,4.764,5.064c1.654,0,2.934-0.827,3.961-1.931l1.229,1.153C205.778,66.222,204.223,67.275,201.792,67.275z"/>
	<path fill="#FFFFFF" d="M214.607,65.596c1.78,0,3.033-0.727,4.086-1.83l1.204,1.078c-1.304,1.454-2.884,2.432-5.34,2.432
		c-3.561,0-6.469-2.732-6.469-6.769c0-3.761,2.633-6.77,6.218-6.77c3.836,0,6.042,3.059,6.042,6.869c0,0.176,0,0.376-0.025,0.602
		h-10.278C210.32,64.016,212.326,65.596,214.607,65.596z M218.392,59.779c-0.2-2.356-1.554-4.412-4.136-4.412
		c-2.257,0-3.962,1.88-4.212,4.412H218.392z"/>
	<path fill="#FFFFFF" d="M223.157,66.974h-0.902v-2.633h2.307v2.257c0,2.03-0.878,3.009-2.783,3.435l-0.301-0.878
		C222.731,68.704,223.258,68.053,223.157,66.974z"/>
	<path fill="#FFFFFF" d="M241.107,66.974h-2.006V51.256h-5.892v-1.83h13.788v1.83h-5.891V66.974z"/>
	<path fill="#FFFFFF" d="M250.939,66.974h-1.931V48.674h1.931v7.596c0.852-1.404,2.206-2.532,4.437-2.532
		c3.134,0,4.964,2.106,4.964,5.189v8.048h-1.93v-7.571c0-2.406-1.304-3.911-3.585-3.911c-2.231,0-3.886,1.63-3.886,4.062V66.974z"/>
	<path fill="#FFFFFF" d="M264.201,56.495l-0.577-1.579c1.43-0.652,2.833-1.078,4.714-1.078c3.535,0,5.516,1.805,5.516,5.215v7.922
		h-1.855v-1.955c-0.902,1.178-2.407,2.23-4.688,2.23c-2.406,0-4.838-1.354-4.838-4.061c0-2.758,2.256-4.212,5.54-4.212
		c1.654,0,2.833,0.226,3.986,0.551v-0.451c0-2.331-1.429-3.534-3.861-3.534C266.607,55.543,265.404,55.943,264.201,56.495z
		 M264.427,63.114c0,1.654,1.504,2.606,3.259,2.606c2.382,0,4.338-1.454,4.338-3.51v-1.253c-0.953-0.276-2.231-0.552-3.812-0.552
		C265.78,60.406,264.427,61.459,264.427,63.114z"/>
	<path fill="#FFFFFF" d="M278.893,66.974h-1.931V54.013h1.931v2.256c0.852-1.404,2.206-2.532,4.437-2.532
		c3.134,0,4.964,2.106,4.964,5.189v8.048h-1.93v-7.571c0-2.406-1.304-3.911-3.585-3.911c-2.231,0-3.886,1.63-3.886,4.062V66.974z"/>
	<path fill="#FFFFFF" d="M302.911,66.974h-2.307l-4.638-6.042l-2.632,2.657v3.385h-1.931V48.674h1.931v12.635l6.994-7.295h2.406
		l-5.439,5.565L302.911,66.974z"/>
	<path fill="#FFFFFF" d="M308.954,67.225c-1.855,0-3.911-0.728-5.365-1.905l0.978-1.379c1.404,1.053,2.958,1.654,4.487,1.654
		c1.555,0,2.683-0.802,2.683-2.056v-0.05c0-1.304-1.529-1.806-3.233-2.282c-2.031-0.576-4.287-1.278-4.287-3.66v-0.05
		c0-2.231,1.854-3.71,4.412-3.71c1.579,0,3.334,0.551,4.663,1.429l-0.878,1.454c-1.203-0.777-2.582-1.254-3.835-1.254
		c-1.529,0-2.508,0.803-2.508,1.881v0.05c0,1.229,1.604,1.705,3.335,2.231c2.006,0.602,4.161,1.379,4.161,3.71v0.051
		C313.566,65.796,311.536,67.225,308.954,67.225z"/>
	<path fill="#FFFFFF" d="M315.925,66.974v-2.633h2.307v2.633H315.925z"/>
</g>
</svg>
