<?xml version="1.0" encoding="utf-8"?>
<!-- Generator: Adobe Illustrator 17.0.1, SVG Export Plug-In . SVG Version: 6.00 Build 0)  -->
<!DOCTYPE svg PUBLIC "-//W3C//DTD SVG 1.0//EN" "http://www.w3.org/TR/2001/REC-SVG-20010904/DTD/svg10.dtd">
<svg version="1.0" id="Layer_1" xmlns="http://www.w3.org/2000/svg" xmlns:xlink="http://www.w3.org/1999/xlink" x="0px" y="0px"
	 width="319.9px" height="71.4px" viewBox="0 0 319.9 71.4" enable-background="new 0 0 319.9 71.4" xml:space="preserve">
<path fill="#FFFFFF" d="M4.53,35.03c0-0.27,0.22-0.49,0.49-0.49h3.67c0.27,0,0.49-0.22,0.49-0.49V9.91c0-0.27-0.22-0.49-0.49-0.49
	H5.02c-0.27,0-0.49-0.22-0.49-0.49V0.49C4.53,0.22,4.75,0,5.02,0h32.89c0.27,0,0.49,0.22,0.49,0.49v13.2c0,0.27-0.22,0.49-0.49,0.49
	H27.88c-0.27,0-0.49-0.22-0.49-0.49v-2.2c0-0.27-0.22-0.49-0.49-0.49h-4.03c-0.27,0-0.49,0.22-0.49,0.49v6.23
	c0,0.27,0.22,0.49,0.49,0.49h10.88c0.27,0,0.49,0.22,0.49,0.49v9.23c0,0.27-0.22,0.49-0.49,0.49H22.87c-0.27,0-0.49,0.22-0.49,0.49
	v5.13c0,0.27,0.22,0.49,0.49,0.49h4.34c0.27,0,0.49,0.22,0.49,0.49v8.44c0,0.27-0.22,0.49-0.49,0.49H5.02
	c-0.27,0-0.49-0.22-0.49-0.49V35.03z"/>
<path fill="#FFFFFF" d="M40.17,35.4c0-0.27,0.22-0.49,0.49-0.49h3.12c0.27,0,0.49-0.22,0.49-0.49V23.11c0-0.27-0.08-0.7-0.17-0.95
	c0,0-0.32-0.88-1.18-0.88h-2.02c-0.27,0-0.49-0.22-0.49-0.49v-8.07c0-0.27,0.22-0.49,0.49-0.49H51.3c0.27,0,0.7,0.05,0.97,0.12
	c0,0,4.23,1.04,4.23,4.1v1.04c0,0.27-0.02,0.71-0.04,0.98c0,0,0.02,0.48-0.02,0.61c-0.03,0.13-0.03,0.24,0,0.24
	c0.03,0,0.19-0.18,0.34-0.4c0,0,5.16-7.3,9.8-7.3c0.55,0,0.61,0.01,0.61,0.01c0.27,0.03,0.49,0.27,0.49,0.54v11.55
	c0,0.27-0.22,0.45-0.48,0.39c0,0-0.44-0.09-1.84-0.09c-5.56,0-8.31,2.38-8.31,7.95v2.44c0,0.27,0.22,0.49,0.49,0.49h3.12
	c0.27,0,0.49,0.22,0.49,0.49v8.07c0,0.27-0.22,0.49-0.49,0.49H40.66c-0.27,0-0.49-0.22-0.49-0.49V35.4z"/>
<path fill="#FFFFFF" d="M86.7,11.49c10.27,0,18.46,6.6,18.46,16.75c0,10.03-8.19,16.45-18.4,16.45s-18.4-6.42-18.4-16.45
	C68.36,18.1,76.55,11.49,86.7,11.49z M86.76,34.18c2.93,0,5.5-2.02,5.5-5.93c0-3.97-2.57-6.24-5.5-6.24c-2.93,0-5.5,2.26-5.5,6.24
	C81.26,32.16,83.82,34.18,86.76,34.18z"/>
<path fill="#FFFFFF" d="M123.56,34.42c0,0.27,0.22,0.49,0.49,0.49h2.57c0.27,0,0.49,0.22,0.49,0.49v8.07c0,0.27-0.22,0.49-0.49,0.49
	h-18.89c-0.27,0-0.49-0.22-0.49-0.49V35.4c0-0.27,0.22-0.49,0.49-0.49h2.57c0.27,0,0.49-0.22,0.49-0.49V23.11
	c0-0.27-0.08-0.7-0.17-0.95c0,0-0.32-0.88-1.18-0.88h-2.02c-0.27,0-0.49-0.22-0.49-0.49v-8.07c0-0.27,0.22-0.49,0.49-0.49h10.45
	c0.27,0,0.7,0.07,0.96,0.15c0,0,4.12,1.32,4.12,3.58c0,0.98-0.03,1.11-0.03,1.11c-0.05,0.26-0.07,0.48-0.03,0.48s0.14-0.2,0.24-0.45
	c0,0,2.26-5.6,10.09-5.6c5.32,0,10.7,2.45,10.7,11.74v11.19c0,0.27,0.22,0.49,0.49,0.49h2.57c0.27,0,0.49,0.22,0.49,0.49v8.07
	c0,0.27-0.22,0.49-0.49,0.49h-15.34c-0.27,0-0.49-0.22-0.49-0.49V26.35c0-0.27-0.06-0.7-0.13-0.96c0,0-0.66-2.4-2.31-2.4
	c-3.85,0-5.05,6.79-5.05,6.79c-0.05,0.27-0.09,0.7-0.09,0.97V34.42z"/>
<path fill="#FFFFFF" d="M152,21.77c0-0.27-0.22-0.49-0.49-0.49h-2.87c-0.27,0-0.49-0.22-0.49-0.49v-8.07c0-0.27,0.22-0.49,0.49-0.49
	h3.3c0.27,0,0.49-0.22,0.49-0.49V4.22c0-0.27,0.22-0.49,0.49-0.49h11.37c0.27,0,0.49,0.22,0.49,0.49v7.52
	c0,0.27,0.22,0.49,0.49,0.49h5.26c0.27,0,0.49,0.22,0.49,0.49v8.07c0,0.27-0.22,0.49-0.49,0.49h-5.26c-0.27,0-0.49,0.22-0.49,0.49
	v8.56c0,0.27,0.16,0.64,0.36,0.82c0,0,2.94,2.72,4.84,2.72c0.86,0,0.92,0,0.92,0c0.27,0,0.49,0.22,0.49,0.49v9.23
	c0,0.27-0.22,0.52-0.49,0.56c0,0-0.86,0.12-2.76,0.12c-5.5,0-15.82-11.68-15.82-11.68c-0.18-0.2-0.32-0.59-0.32-0.86V21.77z"/>
<path fill="#FFFFFF" d="M176.76,19.8c0-0.54,0.44-0.98,0.98-0.98h17.91c0.54,0,0.98,0.44,0.98,0.98v7.16c0,0.54-0.44,0.98-0.98,0.98
	h-17.91c-0.54,0-0.98-0.44-0.98-0.98V19.8z"/>
<path fill="#FFFFFF" d="M198.64,35.03c0-0.27,0.22-0.49,0.49-0.49h3.67c0.27,0,0.49-0.22,0.49-0.49V9.91c0-0.27-0.22-0.49-0.49-0.49
	h-3.67c-0.27,0-0.49-0.22-0.49-0.49V0.49c0-0.27,0.22-0.49,0.49-0.49H233c0.27,0,0.49,0.22,0.49,0.49v13.27
	c0,0.27-0.22,0.49-0.49,0.49h-10.02c-0.27,0-0.49-0.22-0.49-0.49V10.7c0-0.27-0.22-0.49-0.49-0.49h-5.01
	c-0.27,0-0.49,0.22-0.49,0.49v5.5c0,0.27,0.22,0.49,0.49,0.49h10.64c0.27,0,0.49,0.22,0.49,0.49v9.29c0,0.27-0.22,0.49-0.49,0.49
	h-10.64c-0.27,0-0.49,0.22-0.49,0.49v5.81c0,0.27,0.22,0.49,0.49,0.49h5.62c0.27,0,0.49-0.22,0.49-0.49v-2.93
	c0-0.27,0.22-0.49,0.49-0.49h10.02c0.27,0,0.49,0.22,0.49,0.49v13.14c0,0.27-0.22,0.49-0.49,0.49h-34.48
	c-0.27,0-0.49-0.22-0.49-0.49V35.03z"/>
<path fill="#FFFFFF" d="M254.16,34.42c0,0.27,0.22,0.49,0.49,0.49h2.57c0.27,0,0.49,0.22,0.49,0.49v8.07c0,0.27-0.22,0.49-0.49,0.49
	h-18.89c-0.27,0-0.49-0.22-0.49-0.49V35.4c0-0.27,0.22-0.49,0.49-0.49h2.57c0.27,0,0.49-0.22,0.49-0.49V23.11
	c0-0.27-0.08-0.7-0.17-0.95c0,0-0.32-0.88-1.18-0.88h-2.02c-0.27,0-0.49-0.22-0.49-0.49v-8.07c0-0.27,0.22-0.49,0.49-0.49h10.45
	c0.27,0,0.7,0.07,0.96,0.15c0,0,4.12,1.32,4.12,3.58c0,0.98-0.03,1.11-0.03,1.11c-0.05,0.26-0.07,0.48-0.04,0.48
	c0.03,0,0.14-0.2,0.24-0.45c0,0,2.26-5.6,10.09-5.6c5.32,0,10.7,2.45,10.7,11.74v11.19c0,0.27,0.22,0.49,0.49,0.49h2.57
	c0.27,0,0.49,0.22,0.49,0.49v8.07c0,0.27-0.22,0.49-0.49,0.49h-15.34c-0.27,0-0.49-0.22-0.49-0.49V26.35c0-0.27-0.06-0.7-0.13-0.96
	c0,0-0.66-2.4-2.32-2.4c-3.85,0-5.05,6.79-5.05,6.79c-0.05,0.27-0.09,0.7-0.09,0.97V34.42z"/>
<path fill="#FFFFFF" d="M294.27,11.49c5.26,0,6.99,2.36,6.99,2.36c0.16,0.22,0.32,0.4,0.35,0.4s0.03-0.22-0.01-0.48
	c0,0-0.05-0.31-0.05-1.41V9.54c0-0.27-0.22-0.49-0.49-0.49h-2.87c-0.27,0-0.49-0.22-0.49-0.49V0.49c0-0.27,0.22-0.49,0.49-0.49
	h15.65c0.27,0,0.49,0.22,0.49,0.49v32.58c0,0.27,0.08,0.7,0.17,0.95c0,0,0.32,0.88,1.18,0.88h1.47c0.27,0,0.49,0.22,0.49,0.49v8.07
	c0,0.27-0.22,0.49-0.49,0.49h-9.54c-0.27,0-0.69-0.09-0.94-0.19c0,0-3.95-1.7-3.95-2.99c0-0.8,0.03-0.93,0.03-0.93
	c0.05-0.26,0.07-0.48,0.04-0.48c-0.03,0-0.15,0.2-0.26,0.45c0,0-2.13,4.87-9.16,4.87c-8.44,0-14.06-6.73-14.06-16.63
	C279.29,17.98,285.16,11.49,294.27,11.49z M296.96,34.24c2.51,0,4.95-1.9,4.95-5.93c0-3.3-1.59-6.18-4.83-6.18
	c-2.69,0-5.01,2.08-5.01,5.99C292.07,31.73,294.08,34.24,296.96,34.24z"/>
<g>
	<path fill="#F1F2F2" d="M10.43,67.38h-5.9V50.37h5.9c5.35,0,9.04,3.67,9.04,8.48S15.78,67.38,10.43,67.38z M10.43,52.15H6.45v13.46
		h3.98c4.3,0,7.05-2.92,7.05-6.71C17.48,55.11,14.73,52.15,10.43,52.15z"/>
	<path fill="#F1F2F2" d="M28.75,66.05c1.73,0,2.94-0.7,3.96-1.77l1.17,1.04c-1.26,1.41-2.79,2.36-5.18,2.36
		c-3.45,0-6.27-2.65-6.27-6.56c0-3.64,2.55-6.56,6.03-6.56c3.72,0,5.86,2.96,5.86,6.66c0,0.17,0,0.36-0.02,0.58h-9.96
		C24.59,64.52,26.54,66.05,28.75,66.05z M32.42,60.41c-0.19-2.28-1.51-4.28-4.01-4.28c-2.19,0-3.84,1.82-4.08,4.28H32.42z"/>
	<path fill="#F1F2F2" d="M41.74,67.63c-1.8,0-3.79-0.7-5.2-1.85l0.95-1.34c1.36,1.02,2.87,1.6,4.35,1.6c1.51,0,2.6-0.78,2.6-1.99V64
		c0-1.26-1.48-1.75-3.13-2.21c-1.97-0.56-4.15-1.24-4.15-3.55V58.2c0-2.16,1.8-3.6,4.28-3.6c1.53,0,3.23,0.53,4.52,1.38L45.1,57.4
		c-1.17-0.75-2.5-1.21-3.72-1.21c-1.48,0-2.43,0.78-2.43,1.82v0.05c0,1.19,1.55,1.65,3.23,2.16c1.94,0.58,4.03,1.34,4.03,3.6v0.05
		C46.21,66.24,44.25,67.63,41.74,67.63z"/>
	<path fill="#F1F2F2" d="M49.74,52.08v-2.07h2.14v2.07H49.74z M49.86,67.38V54.82h1.87v12.56H49.86z"/>
	<path fill="#F1F2F2" d="M61.64,71.32c-2.09,0-4.03-0.58-5.71-1.75l0.85-1.46c1.43,1.04,3.04,1.6,4.84,1.6
		c2.77,0,4.57-1.53,4.57-4.47v-1.48c-1.09,1.46-2.62,2.65-4.93,2.65c-3.01,0-5.9-2.23-5.9-5.9c0-3.69,2.92-5.95,5.9-5.95
		c2.36,0,3.89,1.17,4.91,2.53v-2.26h1.87V65.2C68.03,69.25,65.5,71.32,61.64,71.32z M61.62,56.21c-2.38,0-4.35,1.63-4.35,4.25
		c0,2.58,2.02,4.3,4.35,4.3c2.38,0,4.62-1.7,4.62-4.28C66.23,57.88,64,56.21,61.62,56.21z"/>
	<path fill="#F1F2F2" d="M74.08,67.38h-1.87V54.82h1.87v2.19c0.83-1.36,2.14-2.45,4.3-2.45c3.04,0,4.81,2.04,4.81,5.03v7.8h-1.87
		v-7.34c0-2.33-1.26-3.79-3.47-3.79c-2.16,0-3.77,1.58-3.77,3.94V67.38z"/>
	<path fill="#F1F2F2" d="M102.55,67.67c-4.91,0-8.53-3.86-8.53-8.77c0-4.86,3.6-8.82,8.6-8.82c3.09,0,4.93,1.09,6.63,2.7l-1.31,1.41
		c-1.43-1.36-3.04-2.33-5.35-2.33c-3.77,0-6.58,3.04-6.58,7c0,3.96,2.84,7.05,6.58,7.05c2.33,0,3.86-0.9,5.49-2.45l1.26,1.24
		C107.58,66.48,105.64,67.67,102.55,67.67z"/>
	<path fill="#F1F2F2" d="M117.88,67.67c-3.77,0-6.51-2.96-6.51-6.54c0-3.57,2.77-6.58,6.56-6.58c3.77,0,6.54,2.96,6.54,6.54
		C124.47,64.66,121.67,67.67,117.88,67.67z M117.88,56.21c-2.72,0-4.59,2.16-4.59,4.88s1.99,4.91,4.64,4.91
		c2.72,0,4.62-2.16,4.62-4.86C122.55,58.39,120.53,56.21,117.88,56.21z"/>
	<path fill="#F1F2F2" d="M129.71,67.38h-1.87V54.82h1.87v2.19c0.83-1.36,2.14-2.45,4.3-2.45c3.04,0,4.81,2.04,4.81,5.03v7.8h-1.87
		v-7.34c0-2.33-1.26-3.79-3.47-3.79c-2.16,0-3.77,1.58-3.77,3.94V67.38z"/>
	<path fill="#F1F2F2" d="M149.34,54.87v1.6h-3.96v10.91h-1.87V56.47h-1.72v-1.63h1.72v-1.09c0-2.75,1.39-4.2,3.79-4.2
		c0.87,0,1.46,0.1,2.07,0.32v1.63c-0.68-0.19-1.19-0.32-1.82-0.32c-1.46,0-2.19,0.87-2.19,2.67v1.02H149.34z"/>
	<path fill="#F1F2F2" d="M153.59,67.38h-1.87V54.82h1.87v3.28c0.92-2.09,2.75-3.6,5.13-3.5v2.02h-0.15c-2.75,0-4.98,1.97-4.98,5.76
		V67.38z"/>
	<path fill="#F1F2F2" d="M166.57,66.05c1.73,0,2.94-0.7,3.96-1.77l1.17,1.04c-1.26,1.41-2.79,2.36-5.18,2.36
		c-3.45,0-6.27-2.65-6.27-6.56c0-3.64,2.55-6.56,6.03-6.56c3.72,0,5.86,2.96,5.86,6.66c0,0.17,0,0.36-0.02,0.58h-9.96
		C162.41,64.52,164.36,66.05,166.57,66.05z M170.24,60.41c-0.19-2.28-1.51-4.28-4.01-4.28c-2.19,0-3.84,1.82-4.08,4.28H170.24z"/>
	<path fill="#F1F2F2" d="M177.28,67.38h-1.87V54.82h1.87v2.19c0.83-1.36,2.14-2.45,4.3-2.45c3.04,0,4.81,2.04,4.81,5.03v7.8h-1.87
		v-7.34c0-2.33-1.26-3.79-3.47-3.79c-2.16,0-3.77,1.58-3.77,3.94V67.38z"/>
	<path fill="#F1F2F2" d="M196.04,67.67c-3.67,0-6.44-2.99-6.44-6.54c0-3.57,2.77-6.58,6.44-6.58c2.38,0,3.86,1,5.03,2.24l-1.24,1.31
		c-1-1.04-2.11-1.9-3.81-1.9c-2.55,0-4.49,2.16-4.49,4.88c0,2.75,1.99,4.91,4.62,4.91c1.6,0,2.84-0.8,3.84-1.87l1.19,1.12
		C199.9,66.65,198.39,67.67,196.04,67.67z"/>
	<path fill="#F1F2F2" d="M209.43,66.05c1.72,0,2.94-0.7,3.96-1.77l1.17,1.04c-1.26,1.41-2.79,2.36-5.17,2.36
		c-3.45,0-6.27-2.65-6.27-6.56c0-3.64,2.55-6.56,6.03-6.56c3.72,0,5.86,2.96,5.86,6.66c0,0.17,0,0.36-0.02,0.58H205
		C205.27,64.52,207.21,66.05,209.43,66.05z M213.09,60.41c-0.19-2.28-1.51-4.28-4.01-4.28c-2.19,0-3.84,1.82-4.08,4.28H213.09z"/>
	<path fill="#F1F2F2" d="M218.68,67.38h-0.88v-2.55h2.24v2.19c0,1.97-0.85,2.92-2.7,3.33l-0.29-0.85
		C218.27,69.06,218.78,68.43,218.68,67.38z"/>
	<path fill="#F1F2F2" d="M236.56,67.38h-1.94V52.15h-5.71v-1.77h13.36v1.77h-5.71V67.38z"/>
	<path fill="#F1F2F2" d="M247.06,67.38h-1.87V49.65h1.87v7.36c0.83-1.36,2.14-2.45,4.3-2.45c3.04,0,4.81,2.04,4.81,5.03v7.8h-1.87
		v-7.34c0-2.33-1.26-3.79-3.47-3.79c-2.16,0-3.77,1.58-3.77,3.94V67.38z"/>
	<path fill="#F1F2F2" d="M260.88,57.23l-0.56-1.53c1.38-0.63,2.75-1.04,4.57-1.04c3.43,0,5.35,1.75,5.35,5.05v7.68h-1.8v-1.89
		c-0.87,1.14-2.33,2.16-4.54,2.16c-2.33,0-4.69-1.31-4.69-3.94c0-2.67,2.19-4.08,5.37-4.08c1.6,0,2.75,0.22,3.86,0.53v-0.44
		c0-2.26-1.38-3.43-3.74-3.43C263.21,56.3,262.05,56.69,260.88,57.23z M261.1,63.64c0,1.6,1.46,2.53,3.16,2.53
		c2.31,0,4.2-1.41,4.2-3.4v-1.21c-0.92-0.27-2.16-0.53-3.69-0.53C262.41,61.02,261.1,62.04,261.1,63.64z"/>
	<path fill="#F1F2F2" d="M276.09,67.38h-1.87V54.82h1.87v2.19c0.83-1.36,2.14-2.45,4.3-2.45c3.04,0,4.81,2.04,4.81,5.03v7.8h-1.87
		v-7.34c0-2.33-1.26-3.79-3.47-3.79c-2.16,0-3.77,1.58-3.77,3.94V67.38z"/>
	<path fill="#F1F2F2" d="M300.34,67.38h-2.23l-4.49-5.86l-2.55,2.58v3.28h-1.87V49.65h1.87v12.24l6.78-7.07h2.33l-5.27,5.39
		L300.34,67.38z"/>
	<path fill="#F1F2F2" d="M307.16,67.63c-1.8,0-3.79-0.7-5.2-1.85l0.95-1.34c1.36,1.02,2.87,1.6,4.35,1.6c1.51,0,2.6-0.78,2.6-1.99
		V64c0-1.26-1.48-1.75-3.13-2.21c-1.97-0.56-4.15-1.24-4.15-3.55V58.2c0-2.16,1.8-3.6,4.28-3.6c1.53,0,3.23,0.53,4.52,1.38
		l-0.85,1.41c-1.17-0.75-2.5-1.21-3.72-1.21c-1.48,0-2.43,0.78-2.43,1.82v0.05c0,1.19,1.55,1.65,3.23,2.16
		c1.94,0.58,4.03,1.34,4.03,3.6v0.05C311.63,66.24,309.66,67.63,307.16,67.63z"/>
	<path fill="#F1F2F2" d="M314.89,67.38v-2.55h2.24v2.55H314.89z"/>
</g>
</svg>
