<?xml version="1.0" encoding="utf-8"?>
<!-- Generator: Adobe Illustrator 17.0.1, SVG Export Plug-In . SVG Version: 6.00 Build 0)  -->
<!DOCTYPE svg PUBLIC "-//W3C//DTD SVG 1.0//EN" "http://www.w3.org/TR/2001/REC-SVG-20010904/DTD/svg10.dtd">
<svg version="1.0" id="Layer_1" xmlns="http://www.w3.org/2000/svg" xmlns:xlink="http://www.w3.org/1999/xlink" x="0px" y="0px"
	 width="1654.42px" height="95.09px" viewBox="0 0 1654.42 95.09" enable-background="new 0 0 1654.42 95.09" xml:space="preserve">
<g>
	<defs>
		<rect id="SVGID_1_" x="-6.13" y="37.09" width="1675" height="96"/>
	</defs>
	<clipPath id="SVGID_2_">
		<use xlink:href="#SVGID_1_"  overflow="visible"/>
	</clipPath>
	<g clip-path="url(#SVGID_2_)">
		
			<image overflow="visible" width="1675" height="96" xlink:href="AB9028E785E333D7.png"  transform="matrix(1 0 0 1 -6.132 37.0871)">
		</image>
	</g>
</g>
<g enable-background="new    ">
	<g>
		<defs>
			<rect id="SVGID_3_" x="-6.13" y="-0.91" width="1675" height="96"/>
		</defs>
		<clipPath id="SVGID_4_">
			<use xlink:href="#SVGID_3_"  overflow="visible"/>
		</clipPath>
		<g clip-path="url(#SVGID_4_)">
			<defs>
				<rect id="SVGID_5_" x="-1.4" y="0" width="1662.06" height="94.79"/>
			</defs>
			<clipPath id="SVGID_6_">
				<use xlink:href="#SVGID_5_"  overflow="visible"/>
			</clipPath>
			<g clip-path="url(#SVGID_6_)">
				<defs>
					<rect id="SVGID_7_" x="-6.13" y="-38.91" width="1675" height="211"/>
				</defs>
				<clipPath id="SVGID_8_">
					<use xlink:href="#SVGID_7_"  overflow="visible"/>
				</clipPath>
				
					<rect x="-6.4" y="-5" clip-path="url(#SVGID_8_)" fill-rule="evenodd" clip-rule="evenodd" fill="#BC9F77" width="1672.06" height="104.79"/>
			</g>
		</g>
		<g clip-path="url(#SVGID_4_)">
			<defs>
				<rect id="SVGID_9_" x="-1.4" y="69.9" width="1662.06" height="24.89"/>
			</defs>
			<clipPath id="SVGID_10_">
				<use xlink:href="#SVGID_9_"  overflow="visible"/>
			</clipPath>
			<g clip-path="url(#SVGID_10_)">
				<defs>
					<rect id="SVGID_11_" x="-6.13" y="-38.91" width="1675" height="211"/>
				</defs>
				<clipPath id="SVGID_12_">
					<use xlink:href="#SVGID_11_"  overflow="visible"/>
				</clipPath>
				
					<rect x="-6.4" y="64.9" clip-path="url(#SVGID_12_)" fill-rule="evenodd" clip-rule="evenodd" fill="#9D8257" width="1672.06" height="34.89"/>
			</g>
		</g>
		<g clip-path="url(#SVGID_4_)">
			<defs>
				<rect id="SVGID_13_" x="-1.4" y="91.12" width="1662.06" height="3.9"/>
			</defs>
			<clipPath id="SVGID_14_">
				<use xlink:href="#SVGID_13_"  overflow="visible"/>
			</clipPath>
			<g clip-path="url(#SVGID_14_)">
				<defs>
					<rect id="SVGID_15_" x="-6.13" y="-38.91" width="1675" height="211"/>
				</defs>
				<clipPath id="SVGID_16_">
					<use xlink:href="#SVGID_15_"  overflow="visible"/>
				</clipPath>
				
					<rect x="-6.4" y="86.12" clip-path="url(#SVGID_16_)" fill-rule="evenodd" clip-rule="evenodd" fill="#806947" width="1672.06" height="13.9"/>
			</g>
		</g>
		<g clip-path="url(#SVGID_4_)">
			<defs>
				<rect id="SVGID_17_" x="-6.13" y="-38.91" width="1675" height="211"/>
			</defs>
			<clipPath id="SVGID_18_">
				<use xlink:href="#SVGID_17_"  overflow="visible"/>
			</clipPath>
			<path clip-path="url(#SVGID_18_)" fill="none" stroke="#9D8257" stroke-miterlimit="10" d="M221.44,7.41
				C148.61,18.18,72.24,27.23-4.6,37.67 M364.67,7.41c1.48,0-349.63,57.35-346.98,56.13 M475.88,7.41
				c1.48,0-276.86,57.35-274.21,56.13 M575.83,7.41c1.48,0-202.51,57.35-199.86,56.13 M658.62,7.41
				c1.46,0-119.96,56.13-119.96,56.13 M728.12,7.41c1.46,0-70.36,56.13-70.36,56.13 M783.71,7.41c1.46,0-34.58,56.13-34.58,56.13
				 M1660.65,63.54H-1.4 M-1.4,7.41h1662.06"/>
			<path clip-path="url(#SVGID_18_)" fill="none" stroke="#9D8257" stroke-miterlimit="10" d="M1407.6,7.41
				c85.7,13.03,172.98,22.08,260.89,34.88 M1264.36,7.41c-1.48,0,349.63,57.35,346.98,56.13 M1153.16,7.41
				c-1.48,0,276.86,57.35,274.21,56.13 M1053.21,7.41c-1.48,0,202.51,57.35,199.86,56.13 M970.42,7.41
				c-1.46,0,119.96,56.13,119.96,56.13 M900.92,7.41c-1.46,0,70.36,56.13,70.36,56.13 M845.33,7.41c-1.46,0,34.58,56.13,34.58,56.13
				"/>
		</g>
	</g>
</g>
</svg>
