<?xml version="1.0" encoding="utf-8"?>
<!-- Generator: Adobe Illustrator 17.0.1, SVG Export Plug-In . SVG Version: 6.00 Build 0)  -->
<!DOCTYPE svg PUBLIC "-//W3C//DTD SVG 1.0//EN" "http://www.w3.org/TR/2001/REC-SVG-20010904/DTD/svg10.dtd">
<svg version="1.0" id="Layer_1" xmlns="http://www.w3.org/2000/svg" xmlns:xlink="http://www.w3.org/1999/xlink" x="0px" y="0px"
	 width="720px" height="720px" viewBox="0 0 720 720" enable-background="new 0 0 720 720" xml:space="preserve">
<symbol  id="ryan" viewBox="-202.75 -225.83 405.5 451.65">
	
		<radialGradient id="SVGID_1_" cx="194.0639" cy="646.6388" r="187.6146" gradientTransform="matrix(1 -0.011 0.011 1 -200.1758 -589.8184)" gradientUnits="userSpaceOnUse">
		<stop  offset="0" style="stop-color:#FFFFFF"/>
		<stop  offset="1" style="stop-color:#9BDAF5"/>
	</radialGradient>
	<path opacity="0.82" fill="url(#SVGID_1_)" d="M-202.75-34.06c0,0,57.71-80.81,194.93-82.32c137.22-1.51,210.58,77.87,210.58,77.87
		S151.66,224.2,3.65,225.82C-144.37,227.45-202.75-34.06-202.75-34.06z"/>
	<g>
		<path fill="#E7BE99" d="M-87.05-92.3c-1.83,2.21-4.85,2.93-6.71,1.61c-1.86-1.33-5.61-1.66-8.33-0.74l-1.38,0.47
			c-2.72,0.92-5.57,0.1-6.34-1.82c-0.77-1.92,0.9-3.96,3.71-4.52l2.18-0.44c2.81-0.56,3.27-2.47,1.01-4.24l-5.84-4.58
			c-2.26-1.77-3.07-4.66-1.81-6.43c1.27-1.77,4.09-1.7,6.28,0.16l5.67,4.8c2.19,1.85,3.09,1.2,2-1.45l-1.59-3.86
			c-1.09-2.65-0.75-5.53,0.76-6.38c1.51-0.86,3.7,0.59,4.87,3.21l3.82,8.56c1.17,2.62,3.13,3.1,4.37,1.07
			c1.24-2.03,3.79-2.78,5.67-1.67c1.88,1.12,1.93,3.84,0.1,6.05L-87.05-92.3z"/>
	</g>
	<path fill="#8BC340" d="M-89.25-95.5c0,0,31.55,12.19,58.56,33.97l4.27-5.67c0,0-27.54-21.08-59.61-33.26L-89.25-95.5z"/>
	<path fill="#E7BE99" d="M-50.19-75.37C-70.88-88.4-89.25-95.5-89.25-95.5l3.21-4.96c14.61,5.55,28.26,12.93,38.82,19.34
		C-48.5-79.38-49.52-77.45-50.19-75.37z"/>
	<g>
		<g>
			<path fill="#E7BE99" d="M59.62-102.43c2.32,1.69,5.43,1.63,6.9-0.12c1.47-1.75,5.02-3.01,7.88-2.79l1.46,0.11
				c2.86,0.22,5.42-1.29,5.69-3.35c0.27-2.06-1.86-3.61-4.72-3.46l-2.22,0.12c-2.87,0.16-3.78-1.58-2.03-3.86l4.52-5.89
				c1.75-2.28,1.81-5.28,0.15-6.68c-1.67-1.4-4.38-0.62-6.04,1.72l-4.29,6.06c-1.66,2.34-2.69,1.93-2.29-0.91l0.57-4.13
				c0.4-2.84-0.65-5.54-2.33-5.99c-1.68-0.45-3.44,1.49-3.92,4.32l-1.56,9.24c-0.48,2.83-2.26,3.79-3.96,2.13
				c-1.7-1.66-4.36-1.75-5.9-0.2c-1.54,1.55-0.91,4.19,1.41,5.88L59.62-102.43z"/>
		</g>
		<path fill="#8BC340" d="M60.95-106.07c0,0-27.52,19.66-48.25,47.48l-5.55-4.43c0,0,21.42-27.28,49.45-47.06L60.95-106.07z"/>
		<path fill="#E7BE99" d="M28.14-76.85c16.8-17.78,32.82-29.23,32.82-29.23l-4.35-4c-12.77,9.01-24.15,19.57-32.78,28.4
			C25.5-80.31,26.97-78.7,28.14-76.85z"/>
	</g>
	<polygon fill="#4080AB" points="12.56,-121.43 -26.42,-119.6 -25.02,-217.76 -21.69,-217.47 -22.52,-139.73 7.54,-137.29 
		8.38,-217.47 11.59,-217.69 	"/>
	<path opacity="0.15" fill="#221F1F" d="M0.68-221.54c-98.21,0-177.84-0.96-177.84-2.14c0-1.18,79.62-2.14,177.84-2.14
		c98.22,0,177.85,0.96,177.85,2.14C178.53-222.5,98.9-221.54,0.68-221.54z"/>
	<polyline fill="#8BC340" points="18.75,-62.49 11.98,-129.19 -27.25,-130.32 -32.02,-60.68 	"/>
	<path fill="#040204" d="M11.51-217.65c0,0,2.88-4.57,9.84-4.57l0.19-1.42c0,0-8.91-0.71-11.6,3.56l0.18-3.26l-2.97,0.31l0.93,5.89
		L11.51-217.65z"/>
	<path fill="#040204" d="M-25.3-217.65c0,0-2.89-4.57-9.84-4.57l-0.19-1.42c0,0,8.92-0.71,11.6,3.56l-0.18-3.26l2.97,0.31
		l-0.93,5.89L-25.3-217.65z"/>
	<path fill="#7EA740" d="M-31.08-64.47c0,0,22.98-31.03,48.6-10.18L-32.02-57.8L-31.08-64.47z"/>
	<path fill="#A58E6D" d="M-70.63,4.61c0,0-26.4-19.74-36.83-4.31c0,0,24.07-27.11,36.87-16.31c0,0-1.48-21.27-15.89-25.26
		c0,0,29.93,3.58,36.59,28.09l-8.02,30.12L-70.63,4.61z"/>
	<path fill="#A58E6D" d="M53.41,67.37c0,0,23.83-22.77,36.05-8.71c0,0-27.16-24.01-38.56-11.76c0,0-1.09-21.29,12.73-26.99
		c0,0-29.29,7.16-32.95,32.29l11.59,28.94L53.41,67.37z"/>
	<path fill="#A58E6D" d="M-53.34,10.11c0,0-20.48-89.1,68.72-84.6c62.35,3.14,35.68,61.06,35.68,61.06"/>
	<path fill="#E7BE99" d="M-48.06-37.21c14.05-1.97,27.94-4.59,41.89-7.2c3.92-0.73,7.83-1.46,11.77-2.1
		c1.97-0.32,3.94-0.65,5.92-0.93c0.26-0.04,0.48-0.07,0.69-0.1c5.61-0.67,11.22-1.12,16.86-1.4c1.79,3.27,4.42,6.04,7.91,7.77
		c5.7,2.83,11.72,4.77,17.89,5.96C50.14-12.23,42.84,43.57,52,88.24c0,0-30.65,75.87-119.19,9.64l9.78-95.58
		C-57.42,2.3-56.31-17.95-48.06-37.21z"/>
	<polygon fill="#A58E6D" points="11.59,-46.35 18.8,-44.91 21.68,-54.28 15.91,-55 	"/>
	<path fill="#CC9B78" d="M27.45,3.21c0,0-11.17-22.67-31.12-0.74C-3.67,2.47,14.73-10.85,27.45,3.21z"/>
	<path fill="#CC9B78" d="M-55.66-14.73c0,0,2.93,2.28,3.24,6.82c0,0,0.97-7.79-1.95-11.04L-55.66-14.73z"/>
	<path fill="#A58E6D" d="M-45.05,12.26l0.77-2.16l12.42-34.73c0,0,31.21,30.12,78.39,4.64l4.54,6.55l5.09-28L-3.67-60.68
		L-43.4-45.72c0,0-11.99,11.5-12.73,43.74c-0.11,4.71,0.02,9.86,0.47,15.48"/>
	<path fill="#E7BE99" d="M31.29-29.74c0-5.96-11.39-10.79-25.45-10.79S-19.6-35.7-19.6-29.74c0,5.96,11.39,10.79,25.44,10.79
		S31.29-23.78,31.29-29.74z"/>
	<path fill="none" stroke="#CC9B78" stroke-width="1.0887" stroke-miterlimit="10" d="M16.81-25.86c0,0-17.78-3.74-30.38,2.46"/>
	<path fill="#A58E6D" d="M-6.16,144.72c0,0-33.67,20.5-50.01-14.79C-72.5,94.63-86.3,140.28-86.3,140.28s-5.13-14.18,3.24-23.74
		c8.37-9.56-20.56,18.02-20.98-16.82c-0.41-34.84,3.94,7.98,11.93,3.63c7.98-4.35-11.38-34.08,9.05-42.1c0,0-17.66-6.53-20.98,0
		c0,0,13.35-21.67,43.61-29.62c0,0,13.38,17.28,8.27,47.77c-1,5.95-7.72,23.93,4.38,23.24c9.96-0.57,14.49-10.85,25.63-9.41
		c22.22,2.86,28.88,28.99,37.53,15.93c8.64-13.06,27.39-18.47,28.24-12.34s4.94-34.05,4.43-44.28c0,0,1.68,39.2,8.79,50.81
		c7.11,11.61,1.3,25.87-5.96,21.64c-7.26-4.22-16.69-4.22-19.6,11.75C28.38,152.7,18.09,152.7-6.16,144.72z"/>
	<path fill="#A58E6D" d="M-3.67,115.77c0,0,25.29-40.14-27.03-33.38C-30.69,82.39,0.36,81.04-3.67,115.77z"/>
	<path fill="#A58E6D" d="M44.85,119.3c0,0-3.36,36.77,30.54,13.59C75.39,132.89,54.33,144.8,44.85,119.3z"/>
	<path fill="#A58E6D" d="M53.12,119.3c0,0,34.54-13.06-1.12-33.41C52,85.89,71.92,99.62,53.12,119.3z"/>
	<path fill="#A58E6D" d="M-6.16,140.68c0,0-8.11,34.84-49.21,12.34C-55.36,153.02-26.18,166.09-6.16,140.68z"/>
	<path fill="#A58E6D" d="M33.97,158.48c0,0-29.4,20.38-44.76-23.88C-10.79,134.6,2.08,163.87,33.97,158.48z"/>
	
		<line fill="none" stroke="#AE806B" stroke-linecap="round" stroke-linejoin="round" stroke-miterlimit="10" x1="-23.48" y1="25.55" x2="11.16" y2="25.45"/>
	<path fill="#AE806B" d="M2.05,25.73c0-3.22-2.49-5.83-5.56-5.83c-3.07,0-5.56,2.61-5.56,5.83"/>
	
		<line fill="none" stroke="#AE806B" stroke-linecap="round" stroke-linejoin="round" stroke-miterlimit="10" x1="21.26" y1="25.55" x2="49.78" y2="25.45"/>
	<path fill="#AE806B" d="M40.67,25.73c0-3.22-2.49-5.83-5.56-5.83c-3.07,0-5.56,2.61-5.56,5.83"/>
	<g opacity="0.29">
		<path fill="#F2F2F2" d="M-48.4,35.91c-0.14,2.2,1.54,3.92,3.74,3.83l52.02-2.1c2.2-0.09,3.97-1.96,3.95-4.16L11.09,16.6
			c-0.03-2.2-1.85-4.06-4.05-4.13l-49.82-1.57c-2.2-0.07-4.11,1.67-4.25,3.87L-48.4,35.91z"/>
	</g>
	<g>
		<path fill="none" stroke="#1D1B1C" stroke-width="4.1817" stroke-miterlimit="10" d="M-48.4,35.91c-0.14,2.2,1.54,3.92,3.74,3.83
			l52.02-2.1c2.2-0.09,3.97-1.96,3.95-4.16L11.09,16.6c-0.03-2.2-1.85-4.06-4.05-4.13l-49.82-1.57c-2.2-0.07-4.11,1.67-4.25,3.87
			L-48.4,35.91z"/>
	</g>
	<g opacity="0.29">
		<path fill="#F2F2F2" d="M60.14,33.77c0.11,2.01-1.45,3.58-3.46,3.48l-34.14-1.68c-2.01-0.1-3.51-1.82-3.32-3.83l1.25-13.56
			c0.19-2.01,1.98-3.71,4-3.79l30.92-1.23c2.01-0.08,3.75,1.5,3.85,3.51L60.14,33.77z"/>
	</g>
	<g>
		<path fill="none" stroke="#1D1B1C" stroke-width="4.1817" stroke-miterlimit="10" d="M60.14,33.77c0.11,2.01-1.45,3.58-3.46,3.48
			l-34.14-1.68c-2.01-0.1-3.51-1.82-3.32-3.83l1.25-13.56c0.19-2.01,1.98-3.71,4-3.79l30.92-1.23c2.01-0.08,3.75,1.5,3.85,3.51
			L60.14,33.77z"/>
	</g>
	<path fill="#A58E6D" d="M-44.27,49.59l0.5-7.72c0,0,37.33,13.22,55.66-1.68l2.14,15.23C14.03,55.42-17.83,75-44.27,49.59z"/>
	<path fill="#A58E6D" d="M52.02,49.93l-0.66-7.71c0,0-22.76,12.76-34.9-2.32L15.8,55.07C15.8,55.07,36.62,74.97,52.02,49.93z"/>
	<path fill="none" stroke="#1D1B1C" stroke-width="4.1817" stroke-miterlimit="10" d="M11.16,25.22c0,0,5.26,5.89,8.66,0"/>
	<polygon fill="#1D1B1C" points="-48.65,35.46 -64.56,38.04 -62.15,29.5 -47.98,29.5 	"/>
	<path fill="#E7BE99" d="M-62.85,35.81c0,0-12.24,19.23-32.99,7.21c-25.86-14.99,17.79-29.31,17.79-29.31s13.81-4.68,7.95-15.91
		c-5.88-11.23-6.16-15.47-1-17.27c5.16-1.79,16.19,1.26,17.05,8.16C-50.28,18.5-62.85,35.81-62.85,35.81z"/>
	<g>
		<path fill="#CC9B78" d="M-62.15,15.14c0,0-19.55,38.82-20.91,9.14C-83.05,24.29-78.2,40.58-62.15,15.14z"/>
		<path fill="#CC9B78" d="M-62,15.03c0,0-14.12,19.52-9.35-4.92C-71.35,10.11-72.41,25.71-62,15.03z"/>
	</g>
	<path opacity="0.24" fill="#FFFFFF" d="M-202.75-34.06c0,0,57.71-80.81,194.93-82.32c137.22-1.51,210.58,77.87,210.58,77.87
		S151.66,224.2,3.65,225.82C-144.37,227.45-202.75-34.06-202.75-34.06z"/>
</symbol>
<g>
	
		<use xlink:href="#ryan"  width="405.5" height="451.65" id="XMLID_2_" x="-202.75" y="-225.83" transform="matrix(1.5486 0 0 -1.5486 361.9183 358.3829)" overflow="visible"/>
</g>
</svg>
