<?xml version="1.0" encoding="utf-8"?>
<!-- Generator: Adobe Illustrator 16.0.0, SVG Export Plug-In . SVG Version: 6.00 Build 0)  -->
<!DOCTYPE svg PUBLIC "-//W3C//DTD SVG 1.1//EN" "http://www.w3.org/Graphics/SVG/1.1/DTD/svg11.dtd">
<svg version="1.1" id="Layer_1" xmlns="http://www.w3.org/2000/svg" xmlns:xlink="http://www.w3.org/1999/xlink" x="0px" y="0px"
   width="480px" height="500px" viewBox="0 0 480 500" enable-background="new 0 0 480 500" xml:space="preserve">
<g>
  
    <radialGradient id="SVGID_1_" cx="1310.499" cy="-2524.2656" r="92.2241" gradientTransform="matrix(-1.9291 0 0 0.047 2764.3281 606.1216)" gradientUnits="userSpaceOnUse">
    <stop  offset="0" style="stop-color:#010101"/>
    <stop  offset="1" style="stop-color:#FFFFFF;stop-opacity:0"/>
  </radialGradient>
  <path opacity="0.29" fill="url(#SVGID_1_)" d="M58.415,487.48c0-2.396,79.623-4.336,177.831-4.336
    c98.22,0,177.829,1.939,177.829,4.336c0,2.395-79.609,4.337-177.829,4.337C138.038,491.817,58.415,489.875,58.415,487.48z"/>
  
    <radialGradient id="SVGID_2_" cx="2700.9268" cy="-2510.4766" r="92.2788" gradientTransform="matrix(-1.2207 0 0 0.047 3544.165 606.1216)" gradientUnits="userSpaceOnUse">
    <stop  offset="0" style="stop-color:#010101"/>
    <stop  offset="1" style="stop-color:#FFFFFF;stop-opacity:0"/>
  </radialGradient>
  <path opacity="0.29" fill="url(#SVGID_2_)" d="M134.606,488.13c0-2.396,50.385-4.342,112.54-4.342
    c62.146,0,112.534,1.946,112.534,4.342c0,2.397-50.388,4.341-112.534,4.341C184.992,492.471,134.606,490.527,134.606,488.13z"/>
</g>
<path fill="#E9C09B" d="M167.02,146.859c0,0-8.74-14.379-22.653-3.686c-17.355,13.336,8.623,23.705,8.623,23.705
  s8.202,3.406,3.619,12.928c-4.591,9.521-5.122,13.055-2.054,14.36c3.065,1.31,10.177-1.593,11.295-7.355
  C170.666,161.942,167.02,146.859,167.02,146.859z"/>
<path fill="#2AA6DD" d="M213.024,279.623l-2.001-7.287c-3.517,0.437-11.774,4.664-17.279,8.337
  c-5.851,3.902-12.944,9.866-15.374,16.984c3.821,0.419,7.359,1.471,10.363,2.987c2.309-11.255,22.708-20.48,25.026-21.161
  C213.745,279.488,213.472,279.564,213.024,279.623z"/>
<path fill="#E7BE99" d="M188.512,302.666c0.004-1.422,0.323-2.817,0.88-4.177c-3.665-0.762-6.972-2.114-9.667-3.891
  c-0.962,1.771-1.669,3.629-2.004,5.562c-1.049,6.062,1.609,11.826,7.901,17.129c6.851,5.775,18.2,11.034,33.731,15.635l4.436-6.781
  C200.355,319.204,188.485,311.305,188.512,302.666z"/>
<path fill="#2AA6DD" d="M257.803,274.613l2.002-7.286c3.516,0.437,11.772,4.664,17.277,8.337
  c5.851,3.902,12.944,9.866,15.374,16.984c-3.82,0.419-7.359,1.47-10.362,2.987c-2.308-11.255-22.709-20.481-25.025-21.162
  C257.081,274.479,257.354,274.556,257.803,274.613z"/>
<path fill="#E7BE99" d="M282.314,297.657c-0.005-1.422-0.324-2.817-0.88-4.177c3.664-0.762,6.972-2.114,9.666-3.892
  c0.963,1.772,1.67,3.63,2.004,5.563c1.05,6.064-1.607,11.826-7.9,17.129c-6.851,5.775-18.199,11.034-33.731,15.635l-4.437-6.781
  C270.473,314.195,282.342,306.296,282.314,297.657z"/>
<polygon fill="#414142" points="219.373,309.205 261.12,308.531 257.789,482.712 254.231,482.286 256.288,352.645 224.216,349.046 
  222.074,481.29 218.644,481.412 "/>
<path fill="#09080A" d="M218.235,481.363c0,0-3.241,4.779-10.68,4.551l-0.25,1.523c0,0,9.512,1.052,12.528-3.426l-0.303,3.482
  l3.186-0.242l-0.8-6.334L218.235,481.363z"/>
<path fill="#09080A" d="M258.305,482.746c0,0,3.241,4.78,10.683,4.551l0.248,1.524c0,0-9.514,1.052-12.526-3.428l0.303,3.483
  l-3.187-0.242l0.8-6.334L258.305,482.746z"/>
<polygon fill="#414142" points="219.373,309.205 261.12,308.531 257.789,482.712 254.231,482.286 256.288,352.645 224.216,349.046 
  222.074,481.29 218.644,481.412 "/>
<path fill="#09080A" d="M218.235,481.363c0,0-3.241,4.779-10.68,4.551l-0.25,1.523c0,0,9.512,1.052,12.528-3.426l-0.303,3.482
  l3.186-0.242l-0.8-6.334L218.235,481.363z"/>
<path fill="#09080A" d="M258.305,482.746c0,0,3.241,4.78,10.683,4.551l0.248,1.524c0,0-9.514,1.052-12.526-3.428l0.303,3.483
  l-3.187-0.242l0.8-6.334L258.305,482.746z"/>
<polygon fill="#2AA6DD" points="266.134,344.941 269.326,249.281 208.151,249.006 214.925,342.153 "/>
<path opacity="0.1" fill="#231F20" d="M212.508,300.645c0,0,44.535,12.664,54.05-20.723l-55.32,11.54L212.508,300.645z"/>
<path fill="#1F171A" d="M170.552,93.339c0,0-22.94,44.828-7.31,84.222l21.954-86.604L170.552,93.339z"/>
<path fill="#1F171A" d="M173.567,187.489c0,0-2.699-18.434-0.238-24.194c2.457-5.764,0.272-2.387,0.272-2.387
  s-13.151-26.878-5.5-46.551l-3.761,1.385c0,0,2.749-13.583,10.864-16.284c0,0-8.162-2.139-10.672-1.217
  c0,0,2.267-25.12,23.968-31.103c0,0-7.884-0.352-10.438,1.072c-2.553,1.428,0.494-1.317,0.494-1.317s13.056-15.686,31.165-9.843
  c0,0-3.907-7.659-5.252-7.813c0,0,9.541,3.149,10.319,5.301c0,0,3.471-6.477-0.149-10.667c0,0,5.528,5.439,6.525,8.645
  c0,0,4.345-20.116,0.398-27.437c0,0,7.1,15.581,6.636,19.651c-0.464,4.07,5.371-14.158,11.225-17.614c0,0-6.351,16.796-4.564,19.062
  c0,0,10.516-17.351,13.03-18.44c0,0,0.05,17.526,1.802,20.132c1.752,2.603,5.844-9.34,17.302-8.033c0,0-9.581,6.166-10.007,9.896
  c0,0,24.303-6.505,35.245,2.302c0,0-13.365-2.555-14.61-0.636c0,0,28.235,3.909,38.629,20.553c0,0-9.158-6.542-12.902-6.625
  c0,0,20.254,13.99,26.271,39.069c0,0-3.958-4.231-8.936-5.486c0,0,14.529,22.272,11.745,46.689c0,0,0.319-5.804-3.97-10.071
  c0,0-1.332,26.645-6.297,31.228c0,0,1.786-6.666,0.294-8.552c0,0-18.212,21.971-19.096,38.705L173.567,187.489z"/>
<path fill="#E9C09B" d="M306.62,104.518c-12.567-34.615-56.899-28.612-102.057-25.72c-45.158,2.893-41.881,89.645-41.881,89.645
  c-10.315,56.611,4.957,83.484,17.023,95.407c1.339-0.822,2.859-1.321,4.51-1.321c6.26,0,11.983,3.311,12.773,10.091
  c0.337,2.903-0.667,6.167-2.563,8.669c7.559,14.594,28.178,6.21,28.178,6.21c37.15,4.236,43.955-7.577,43.955-7.577
  c46.049-13.21,44.382-99.505,44.382-99.505C323.376,174.799,306.62,104.518,306.62,104.518z"/>
<path fill="#C19A80" d="M310.061,199.349c-3.579,4.871-9.034-0.998-14.25,2.081c-1.096,0.647-1.444,4.484-1.772,5.606
  c-0.604,2.068-1.256,4.122-2.166,6.077c-1.939,4.183-4.959,7.496-8.987,9.761c-10.602,5.963-22.484,2.269-33.072-1.628
  c-10.748-3.956-21.567-9.136-33.167-9.885c-5.453-0.351-10.979,0.427-15.994,2.642c-5.073,2.239-9.405,5.904-14.787,7.501
  c-4.543,1.348-9.721,1.515-13.87-1.083c-9.418-5.894-7.287-20.708-7.5-30.078c-0.177-7.796-1.02-15.507-2.048-23.23
  c-1.629,7.015-1.795,14.832-2.451,22.001c-0.627,6.829-1.077,13.68-1.095,20.54c-0.029,10.933,0.983,22.108,4.823,32.426
  c4.287,11.516,12.102,21.115,22.495,27.5c0.606,0.372,5.696,2.096,5.698,2.834c0.079,33.975,31.976,19.86,31.976,19.86
  c48.739,11.454,42.667-12.352,42.667-12.352C298.821,270.666,307.66,225.542,310.061,199.349z"/>
<path fill="#1F171A" d="M270.462,58.373c0,0,5.58-26.077,50.085-27.678c0,0-35.052-12.681-55.023,2.405
  c0,0-0.512-10.743,11.21-22.095c0,0-25.478,2.438-32.431,17.671c0,0-20.016-23.587-42.955-19.589
  c-1.847,0.321,1.314,3.63,1.314,3.63s17.621,13.219,15.227,18.958c-2.392,5.738-1.941,1.782-1.941,1.782
  s-36.845-12.218-54.617,6.458c0,0,43.224,3.189,52.196,23.581L270.462,58.373z"/>
<g>
  <path opacity="0.39" fill="#D09F78" d="M230.042,148.187c0,0,51.094-33.716,48.977,4.752c0,0,5.638,46.682-47.642,2.503
    L230.042,148.187z"/>
  <path fill="none" stroke="#D09F78" stroke-width="0.8102" d="M283.686,159.04c0,0-4.215,6.051-11.021-1.019"/>
  <path fill="#FFFFFF" d="M272.745,158.139c0,0-11.741-19.749-27.536-2.172C245.209,155.966,260.643,163.305,272.745,158.139z"/>
  <g>
    <defs>
      <path id="SVGID_3_" d="M272.745,158.139c0,0-11.741-19.749-27.536-2.172C245.209,155.966,260.643,163.305,272.745,158.139z"/>
    </defs>
    <clipPath id="SVGID_4_">
      <use xlink:href="#SVGID_3_"  overflow="visible"/>
    </clipPath>
    <g clip-path="url(#SVGID_4_)">
      
        <ellipse transform="matrix(-0.9986 0.0526 -0.0526 -0.9986 505.3054 296.8981)" fill="#6BADC9" cx="248.749" cy="155.094" rx="6.205" ry="8.394"/>
      <path fill="#0E1E16" d="M245.98,155.238c0.108,2.071,1.437,3.683,2.965,3.602c1.524-0.08,2.679-1.823,2.57-3.891
        c-0.109-2.073-1.437-3.684-2.962-3.604C247.023,151.426,245.871,153.168,245.98,155.238z"/>
      <path fill="#FFFFFF" d="M250.992,154.444c0.032,0.632,0.439,1.119,0.904,1.096c0.467-0.024,0.812-0.554,0.781-1.182
        c-0.033-0.631-0.434-1.122-0.9-1.096C251.31,153.286,250.961,153.816,250.992,154.444z"/>
    </g>
  </g>
  <path fill="none" stroke="#D09F78" stroke-width="0.8102" d="M272.745,158.139c0,0-11.27-18.913-27.536-2.172
    c0,0-5.801,2.286-8.248,1.125"/>
  <path fill="none" stroke="#D09F78" stroke-width="0.8102" d="M283.298,151.634c0,0-6.764,8.802-10.449,6.61
    c0,0-6.531-28.877-29.014-6.688"/>
  <path fill="none" stroke="#D09F78" stroke-width="0.8102" d="M272.614,164.495c0,0-3.043,21.425-31.274-4.254"/>
  <path fill="none" stroke="#D09F78" stroke-width="0.8102" d="M272.849,158.245c0,0-10.087,5.462-27.64-2.278"/>
</g>
<g>
  <path opacity="0.39" fill="#D09F78" d="M221.023,146.277c0,0-43.582-42.988-48.968-4.839c0,0-14.588,44.702,46.25,11.699
    L221.023,146.277z"/>
  <path fill="none" stroke="#D09F78" stroke-width="0.8102" d="M166.292,146.516c0,0,2.961,6.756,11.01,1.141"/>
  <path fill="#FFFFFF" d="M177.2,147.757c0,0,15.35-17.097,27.434,3.208C204.634,150.964,188.071,155.17,177.2,147.757z"/>
  <g>
    <defs>
      <path id="SVGID_5_" d="M177.2,147.757c0,0,15.35-17.097,27.434,3.208C204.634,150.964,188.071,155.17,177.2,147.757z"/>
    </defs>
    <clipPath id="SVGID_6_">
      <use xlink:href="#SVGID_5_"  overflow="visible"/>
    </clipPath>
    <g clip-path="url(#SVGID_6_)">
      <path fill="#6BADC9" d="M207.349,150.945c-1.14,4.498-4.752,7.459-8.074,6.616c-3.323-0.837-5.095-5.163-3.958-9.658
        c1.137-4.497,4.755-7.46,8.076-6.62C206.715,142.123,208.485,146.45,207.349,150.945z"/>
      <path fill="#0E1E16" d="M204.019,150.104c-0.508,2.01-2.124,3.333-3.607,2.956c-1.481-0.375-2.276-2.306-1.766-4.314
        c0.509-2.012,2.125-3.335,3.604-2.959C203.736,146.162,204.529,148.094,204.019,150.104z"/>
      
        <ellipse transform="matrix(0.9698 0.2439 -0.2439 0.9698 42.1252 -43.9247)" fill="#FFFFFF" cx="198.438" cy="148.147" rx="0.844" ry="1.139"/>
    </g>
  </g>
  <path fill="none" stroke="#D09F78" stroke-width="0.8102" d="M177.2,147.757c0,0,14.725-16.367,27.434,3.208
    c0,0,5.248,3.373,7.874,2.706"/>
  <path fill="none" stroke="#D09F78" stroke-width="0.8102" d="M168.111,139.326c0,0,4.926,9.948,8.967,8.514
    c0,0,12.011-27.062,29.761-0.931"/>
  <path fill="none" stroke="#D09F78" stroke-width="0.8102" d="M176.096,154.016c0,0-1.172,21.608,31.506,1.896"/>
  <path fill="none" stroke="#D09F78" stroke-width="0.8102" d="M177.078,147.84c0,0,8.837,7.313,27.557,3.124"/>
</g>
<path fill="#1F171A" d="M296.879,166.654l11.165-22.575c0,0-19.139-31.657-73.82-14.274l-1.903,23.726
  C232.321,153.531,263.551,136.498,296.879,166.654z"/>
<path fill="#1F171A" d="M158.785,149.085l-7.338-23.657c0,0,21.913-25.411,70.215,3.09l-1.389,22.669
  C220.274,151.188,193.632,128.248,158.785,149.085z"/>
<path opacity="0.3" fill="#D09F78" d="M195.335,188.461c0,0,17.692,42.784,47.671,8.71
  C243.007,197.171,216.721,216.814,195.335,188.461z"/>
<path fill="#D09F78" d="M195.336,188.461c0,0,17.57,37.727,47.644,7.556C242.979,196.017,216.64,213.436,195.336,188.461z"/>
<path fill="#1F171A" d="M315.581,154.358c0,0-15.169,38.22-10.778,49.207l-9.732,0.502c0,0,22.005-76.957,10.88-85.484
  c-11.123-8.528-6.674-47.535-47.135-39.247c-40.461,8.288-25.516,11.604-50.175,1.534c0,0-23.619-5.503-40.54,33.488l17.656-44.968
  l59.68-14.162l38.554,8.432l27.528,27.332l8.378,39.667L315.581,154.358z"/>
<path fill="#E9C09B" d="M314.556,154.981c0,0,17.037-16.328,31.614,0.498c18.179,20.986-20.367,28.242-20.367,28.242
  s-12.221,2.46-9.659,15.651c2.571,13.193,1.961,17.819-2.622,18.779c-4.581,0.967-12.989-4.369-12.329-11.971
  C304.056,173.369,314.556,154.981,314.556,154.981z"/>
<g>
  <path fill="#D09F78" d="M313.086,179.21c0,0,23.694-38.162,18.909-5.94C331.995,173.271,331.268,154.804,313.086,179.21z"/>
  <path fill="#D09F78" d="M312.948,179.293c0,0,15.412-18.381,6.656,7.049C319.604,186.342,323.576,169.748,312.948,179.293z"/>
</g>
<path fill="#E9C09B" d="M194.28,241.942c0.971-1.898,2.4-3.639,4.335-5.101c3.294-2.492,7.252-3.564,11.242-4.341
  c4.171-0.813,8.354-1.914,12.558-2.511c2.444-0.347,4.916-0.522,7.386-0.447c6.235,0.182,13.072,1.58,17.176,6.691
  c4.04,5.03,5.062,11.347,4.739,17.631c-0.178,3.468-1.289,6.789-3.624,9.406c-5.244,5.871-14.195,7.132-21.637,7.091
  c-6.776-0.037-13.844-0.419-20.093-3.295c-7.342-3.38-14.152-9.957-13.651-18.653C192.83,246.336,193.325,243.808,194.28,241.942z"
  />
<path fill="none" stroke="#D09F78" stroke-width="1.0694" stroke-linecap="round" stroke-linejoin="round" stroke-miterlimit="10" d="
  M197.266,246.529c0,0,26.021,10.327,47.747-8.935"/>
<path fill="#D09F78" d="M213.894,258.328c0,0,12.334,7.746,22.35-6.152C236.244,252.176,229.201,268.725,213.894,258.328z"/>
<path fill="#414142" d="M255.396,315.691c0,7.988-7.11,11.66-16.449,11.66c-9.34,0-17.372-3.672-17.372-11.66
  s7.571-13.337,16.911-13.337C247.825,302.354,255.396,307.703,255.396,315.691z"/>
<path fill="#414142" d="M225.37,308.627c0,0-2.392-5.113,0-8.455c0,0,6.682,1.027,8.745,5.4L225.37,308.627z"/>
<path fill="#414142" d="M251.952,308.627c0,0,2.392-5.113,0-8.455c0,0-6.683,1.027-8.744,5.4L251.952,308.627z"/>
<g>
</g>
<g>
</g>
<g>
</g>
<g>
</g>
<g>
</g>
<g>
</g>
</svg>